<?xml version="1.0" encoding="utf-8"?>
<!-- Generator: Adobe Illustrator 21.0.0, SVG Export Plug-In . SVG Version: 6.00 Build 0)  -->
<svg version="1.1" id="Layer_1" xmlns="http://www.w3.org/2000/svg" xmlns:xlink="http://www.w3.org/1999/xlink" x="0px" y="0px"
	 viewBox="0 0 38 12" style="enable-background:new 0 0 38 12;" xml:space="preserve">
<style type="text/css">
	.st0{fill:#676767;}
</style>
<path class="st0" d="M20.8,0.3L25,6l-4.1,5.6H24l2.5-3.5l2.5,3.5h3.2L24,0.3H20.8z M34.8,0.3l-2.5,3.5l-2.5-3.5h-3.2l8.3,11.3H38
	L33.9,6L38,0.3H34.8z M8.7,4.2c0-1.8-1.2-3.3-2.8-3.9C5.5,0.2,5,0.1,4.5,0.1l0,0H0v1.3c0,0,0,7.6,0,10.3h2.6V8.4h1.8h0.1L7,11.7h3.2
	L7.1,7.4C8.1,6.6,8.7,5.5,8.7,4.2z M5,5.7C4.8,5.8,4.6,5.8,4.4,5.8H2.6V2.6h1.8c0.9,0,1.7,0.7,1.7,1.6C6.1,4.9,5.7,5.5,5,5.7z
	 M17.5,0.3C16.9,0.1,16.3,0,15.7,0c-0.6,0-1.2,0.1-1.8,0.3C11.4,1,9.6,3.3,9.6,6s1.8,4.9,4.3,5.7c0.6,0.2,1.2,0.3,1.8,0.3
	c0.6,0,1.2-0.1,1.8-0.3c2.5-0.7,4.3-3,4.3-5.7C21.9,3.3,20,1.1,17.5,0.3z M15.7,9.4c-1.9,0-3.5-1.5-3.5-3.4s1.6-3.4,3.5-3.4
	s3.5,1.5,3.5,3.4S17.6,9.4,15.7,9.4z"/>
</svg>
