<?xml version="1.0" standalone="no"?>
<!DOCTYPE svg PUBLIC "-//W3C//DTD SVG 1.1//EN" "http://www.w3.org/Graphics/SVG/1.1/DTD/svg11.dtd" >
<svg xmlns="http://www.w3.org/2000/svg">
<metadata>Generated by IcoMoon</metadata>
<defs>
<font id="icomoon" horiz-adv-x="1024">
<font-face units-per-em="1024" ascent="960" descent="-64" />
<missing-glyph horiz-adv-x="1024" />
<glyph unicode="&#x20;" horiz-adv-x="512" d="" />
<glyph unicode="&#xe900;" glyph-name="add-clipboard" horiz-adv-x="1268" d="M945.981-64c-165.79 0-302.324 136.533-302.324 302.324s136.533 302.324 302.324 302.324 302.324-136.533 302.324-302.324c4.876-165.79-131.657-302.324-302.324-302.324v0zM945.981 496.762c-141.41 0-253.562-112.152-253.562-253.562s112.152-253.562 253.562-253.562 253.562 112.152 253.562 253.562-112.152 253.562-253.562 253.562v0zM599.771-39.619c-9.752 0-14.629 0-24.381 4.876l-4.876 4.876-14.629 9.752c-34.133 24.381-121.905 82.895-175.543 126.781-214.552 165.79-326.705 287.695-346.21 380.343-9.752 29.257-14.629 68.267-19.505 102.4 0 97.524 34.133 195.048 102.4 263.314 63.39 63.39 141.41 97.524 224.305 97.524 92.648 0 180.419-39.010 243.81-107.276 63.39 68.267 146.286 112.152 243.81 112.152 87.771 0 165.79-29.257 229.181-92.648 68.267-63.39 112.152-156.038 112.152-258.438 0-39.010-4.876-73.143-14.629-107.276 0-9.752-4.876-24.381-14.629-39.010l-87.771 39.010c4.876 9.752 4.876 19.505 9.752 24.381 4.876 29.257 9.752 53.638 9.752 82.895 0 73.143-29.257 146.286-78.019 190.171-43.886 43.886-97.524 63.39-156.038 63.39-82.895 0-156.038-43.886-199.924-121.905-14.629-9.752-29.257-19.505-48.762-19.505s-34.133 9.752-43.886 24.381c-39.010 73.143-117.029 112.152-195.048 112.152 0 0 0 0-4.876 0-58.514 0-112.152-24.381-156.038-68.267-48.762-48.762-78.019-121.905-73.143-195.048 0-29.257 4.876-53.638 14.629-78.019 4.876-39.010 58.514-131.657 307.2-326.705 48.762-39.010 121.905-87.771 160.914-117.029 24.381 14.629 48.762 39.010 82.895 63.39l58.514-78.019c-48.762-39.010-87.771-63.39-117.029-82.895-4.876-9.752-14.629-9.752-24.381-9.752v0zM945.981 57.905c-29.257 0-48.762 19.505-48.762 48.762v268.19c0 29.257 19.505 48.762 48.762 48.762s48.762-19.505 48.762-48.762v-268.19c0-29.257-19.505-48.762-48.762-48.762v0zM1082.514 189.562h-268.19c-29.257 0-48.762 19.505-48.762 48.762s19.505 48.762 48.762 48.762h268.19c29.257 0 48.762-19.505 48.762-48.762 0-24.381-19.505-48.762-48.762-48.762v0z" />
<glyph unicode="&#xe901;" glyph-name="air-conditioning" horiz-adv-x="1067" d="M392.533 908.8c-17.067 17.067-42.667 17.067-59.733 4.267-17.067-17.067-17.067-42.667-4.267-59.733l140.8-153.6v128l-76.8 81.067zM512 921.6c0 12.8-8.533 21.333-21.333 21.333s-21.333-8.533-21.333-21.333v-98.133l42.667-46.933v145.067zM469.333 827.733v-128l12.8-12.8c8.533-8.533 21.333-12.8 29.867-12.8v106.667l-42.667 46.933zM469.333-25.6c0-12.8 8.533-21.333 21.333-21.333s21.333 8.533 21.333 21.333v140.8l-42.667-46.933v-93.867zM328.533 42.667c-17.067-17.067-12.8-42.667 4.267-59.733 8.533-4.267 17.067-8.533 29.867-8.533s21.333 4.267 29.867 12.8l76.8 81.067v128l-140.8-153.6zM477.867 209.067l-8.533-12.8v-128l42.667 46.933v106.667c-12.8 0-25.6-4.267-34.133-12.8zM59.733 490.667c-21.333 0-38.4 12.8-42.667 34.133 0 21.333 12.8 46.933 34.133 51.2l213.333 46.933c21.333 4.267 46.933-8.533 51.2-34.133 4.267-21.333-8.533-46.933-34.133-51.2l-213.333-46.933c0 0-4.267 0-8.533 0v0zM277.333 537.6c-17.067 0-34.133 12.8-42.667 29.867l-64 213.333c-8.533 21.333 4.267 42.667 25.6 51.2s46.933-4.267 55.467-29.867l68.267-209.067c8.533-21.333-4.267-46.933-29.867-55.467-4.267 0-8.533 0-12.8 0v0zM469.333 196.267l12.8 12.8c8.533 8.533 21.333 12.8 29.867 12.8v179.2l-42.667-25.6v-179.2zM512 674.133c-12.8 0-21.333 4.267-29.867 12.8l-12.8 12.8v-179.2l42.667-25.6v179.2zM469.333 520.533l-337.067 192c-17.067 12.8-42.667 4.267-55.467-12.8-12.8-21.333-4.267-46.933 12.8-59.733l337.067-192 42.667 25.6v46.933zM490.667 482.133c8.533 4.267 12.8 4.267 21.333 4.267v8.533l-42.667 25.6v-51.2l21.333 12.8zM426.667 448l-332.8-192c-21.333-12.8-25.6-38.4-17.067-59.733 8.533-12.8 21.333-21.333 38.4-21.333 8.533 0 12.8 0 21.333 4.267l332.8 192v51.2l-42.667 25.6zM512 405.333c-8.533 0-12.8 0-21.333 4.267l-21.333 12.8v-51.2l42.667 25.6v8.533c0 0 0 0 0 0zM469.333 473.6l-42.667-25.6 42.667-25.6zM490.667 482.133l-21.333-8.533v-51.2l21.333-12.8c4.267-4.267 12.8-4.267 21.333-4.267 0 0 0 0 0 0v85.333c-8.533 0-17.067-4.267-21.333-8.533zM209.067 59.733c-4.267 0-8.533 0-12.8 0-21.333 8.533-34.133 29.867-29.867 55.467l68.267 209.067c8.533 21.333 29.867 34.133 55.467 29.867 21.333-8.533 34.133-29.867 29.867-55.467l-68.267-209.067c-4.267-17.067-21.333-29.867-42.667-29.867v0zM277.333 268.8c-4.267 0-4.267 0-8.533 0l-213.333 46.933c-21.333 4.267-38.4 29.867-34.133 51.2s25.6 38.4 51.2 34.133l213.333-46.933c21.333-4.267 38.4-29.867 34.133-51.2s-21.333-34.133-42.667-34.133v0zM1006.933 405.333h-192c-25.6 0-42.667 17.067-42.667 42.667s17.067 42.667 42.667 42.667h192c25.6 0 42.667-17.067 42.667-42.667 0-21.333-21.333-42.667-42.667-42.667v0zM738.133 588.8c-12.8 0-21.333 4.267-29.867 12.8-17.067 17.067-17.067 42.667 0 59.733l136.533 136.533c17.067 17.067 42.667 17.067 59.733 0s17.067-42.667 0-59.733l-136.533-136.533c-8.533-8.533-21.333-12.8-29.867-12.8v0zM874.667 89.6c-12.8 0-21.333 4.267-29.867 12.8l-136.533 132.267c-17.067 17.067-17.067 42.667 0 59.733s42.667 17.067 59.733 0l136.533-136.533c17.067-17.067 17.067-42.667 0-59.733-8.533-4.267-21.333-8.533-29.867-8.533v0zM849.067 448c0 149.333-110.933 268.8-251.733 290.133v-85.333c93.867-21.333 166.4-102.4 166.4-204.8s-72.533-187.733-166.4-204.8v-85.333c140.8 21.333 251.733 145.067 251.733 290.133zM597.333 657.067c-17.067 0-29.867 4.267-42.667 4.267v-418.133c12.8 0 29.867 0 42.667 4.267v409.6zM554.667-25.6c0-12.8 8.533-21.333 21.333-21.333s21.333 8.533 21.333 21.333v183.467c-12.8 0-29.867-4.267-42.667-4.267v-179.2zM597.333 921.6c0 12.8-8.533 21.333-21.333 21.333s-21.333-8.533-21.333-21.333v-174.933c12.8 0 29.867 0 42.667-4.267v179.2zM597.333 742.4c-12.8 0-29.867 4.267-42.667 4.267v-85.333c12.8 0 29.867 0 42.667-4.267v85.333zM554.667 238.933v-85.333c12.8 0 29.867 0 42.667 4.267v85.333c-17.067 0-29.867-4.267-42.667-4.267z" />
<glyph unicode="&#xe902;" glyph-name="animal-friendly" horiz-adv-x="1210" d="M777.309 457.309c-13.964 0-27.927 4.655-41.891 9.309-97.745 32.582-162.909 148.945-153.6 265.309 9.309 121.018 111.709 223.418 223.418 223.418v0c51.2 0 93.091-18.618 125.673-60.509 41.891-51.2 60.509-134.982 41.891-223.418-27.927-125.673-107.055-214.109-195.491-214.109v0zM809.891 866.909c-69.818 0-134.982-69.818-139.636-144.291s37.236-158.255 93.091-176.873c4.655 0 9.309-4.655 13.964-4.655 37.236 0 88.436 51.2 107.055 148.945 13.964 60.509 4.655 116.364-23.273 148.945-13.964 18.618-32.582 27.927-51.2 27.927v0zM968.145 196.655c-32.582 0-60.509 9.309-88.436 23.273-83.782 55.855-102.4 162.909-37.236 265.309 51.2 83.782 139.636 139.636 218.764 139.636 23.273 0 41.891-4.655 60.509-13.964 32.582-13.964 55.855-46.545 69.818-88.436 18.618-65.164 4.655-148.945-41.891-214.109-46.545-69.818-111.709-111.709-181.527-111.709v0zM1056.582 541.091c-46.545 0-107.055-41.891-144.291-97.745-37.236-60.509-32.582-116.364 9.309-144.291s107.055 0 148.945 60.509c27.927 46.545 41.891 107.055 27.927 144.291-4.655 13.964-13.964 27.927-23.273 32.582 0 0-9.309 4.655-18.618 4.655v0zM432.873 457.309v0c-88.436 0-167.564 88.436-195.491 218.764-13.964 83.782 0 167.564 41.891 223.418 32.582 37.236 74.473 60.509 121.018 60.509 116.364 0 218.764-102.4 228.073-223.418 9.309-116.364-55.855-232.727-153.6-265.309-13.964-9.309-27.927-13.964-41.891-13.964v0zM404.945 866.909c-23.273 0-41.891-9.309-55.855-23.273-27.927-32.582-37.236-93.091-23.273-148.945 18.618-97.745 69.818-148.945 107.055-148.945 4.655 0 9.309 0 13.964 4.655 55.855 18.618 102.4 102.4 93.091 176.873-4.655 74.473-69.818 139.636-134.982 139.636v0 0zM242.036 196.655v0c-69.818 0-134.982 41.891-181.527 111.709-41.891 69.818-60.509 153.6-41.891 214.109 13.964 46.545 37.236 74.473 74.473 93.091 18.618 9.309 37.236 13.964 60.509 13.964 79.127 0 167.564-55.855 218.764-139.636 60.509-102.4 46.545-209.455-37.236-265.309-32.582-18.618-60.509-27.927-93.091-27.927v0zM153.6 541.091c-9.309 0-18.618 0-23.273-4.655-9.309-9.309-18.618-18.618-23.273-32.582-9.309-41.891 0-97.745 27.927-144.291 37.236-60.509 102.4-88.436 148.945-60.509 41.891 27.927 46.545 83.782 9.309 144.291-32.582 51.2-93.091 97.745-139.636 97.745v0zM605.091-59.345v0h-65.164c-181.527 4.655-279.273 9.309-316.509 69.818-9.309 18.618-18.618 46.545-4.655 88.436 46.545 121.018 232.727 353.745 381.673 344.436 148.945 9.309 335.127-223.418 381.673-344.436 18.618-37.236 9.309-69.818-4.655-83.782-37.236-60.509-134.982-60.509-316.509-69.818l-55.855-4.655zM302.545 57.018c23.273-18.618 144.291-23.273 242.036-27.927h121.018c97.745 4.655 218.764 9.309 242.036 27.927 0 0 0 4.655-4.655 4.655-41.891 111.709-204.8 297.891-297.891 288.582-4.655 0-4.655 0-9.309 0-93.091 4.655-256-176.873-297.891-288.582 4.655 0 4.655-4.655 4.655-4.655v0z" />
<glyph unicode="&#xe903;" glyph-name="arrow-1" horiz-adv-x="1755" d="M892.343-64c-43.886 0-73.143 14.629-102.4 43.886l-746.057 731.429c-58.514 58.514-58.514 146.286 0 204.8s146.286 58.514 204.8 0l629.029-614.4 614.4 614.4c58.514 58.514 146.286 58.514 204.8 0s58.514-146.286 0-204.8l-716.8-731.429c-14.629-29.257-58.514-43.886-87.771-43.886v0z" />
<glyph unicode="&#xe904;" glyph-name="arrow-2" horiz-adv-x="569" d="M48.356-64c-11.378 0-22.756 5.689-34.133 14.222-17.067 19.911-17.067 48.356 0 68.267l420.978 429.511-420.978 429.511c-17.067 19.911-17.067 48.356 0 68.267s48.356 19.911 65.422 0l489.244-497.778-489.244-497.778c-8.533-8.533-19.911-14.222-31.289-14.222z" />
<glyph unicode="&#xe905;" glyph-name="balcony" horiz-adv-x="1202" d="M218.157 74.017c-26.713 0-44.522 17.809-44.522 44.522v422.957c0 26.713 17.809 44.522 44.522 44.522s44.522-17.809 44.522-44.522v-422.957c0-22.261-17.809-44.522-44.522-44.522v0zM983.93 74.017c-26.713 0-44.522 17.809-44.522 44.522v422.957c0 26.713 17.809 44.522 44.522 44.522s44.522-17.809 44.522-44.522v-422.957c0-22.261-22.261-44.522-44.522-44.522v0zM409.6 74.017c-26.713 0-44.522 17.809-44.522 44.522v422.957c0 26.713 17.809 44.522 44.522 44.522s44.522-17.809 44.522-44.522v-422.957c0-22.261-17.809-44.522-44.522-44.522v0zM601.043 74.017c-26.713 0-44.522 17.809-44.522 44.522v422.957c0 26.713 17.809 44.522 44.522 44.522s44.522-17.809 44.522-44.522v-422.957c0-22.261-17.809-44.522-44.522-44.522v0zM792.487 74.017c-26.713 0-44.522 17.809-44.522 44.522v422.957c0 26.713 17.809 44.522 44.522 44.522s44.522-17.809 44.522-44.522v-422.957c0-22.261-17.809-44.522-44.522-44.522v0zM1144.209 496.974h-1086.33c-26.713 0-44.522 17.809-44.522 44.522s17.809 44.522 44.522 44.522h1086.33c26.713 0 44.522-17.809 44.522-44.522 0-22.261-17.809-44.522-44.522-44.522v0zM431.861 924.383v-351.722c0-13.357-8.904-22.261-22.261-22.261s-22.261 8.904-22.261 22.261v351.722c0 13.357 8.904 22.261 22.261 22.261s22.261-8.904 22.261-22.261v0zM814.748 924.383v-351.722c0-13.357-8.904-22.261-22.261-22.261s-22.261 8.904-22.261 22.261v351.722c0 13.357 8.904 22.261 22.261 22.261s22.261-8.904 22.261-22.261v0zM1144.209 74.017h-1086.33c-26.713 0-44.522 17.809-44.522 44.522s17.809 44.522 44.522 44.522h1086.33c26.713 0 44.522-17.809 44.522-44.522 0-22.261-17.809-44.522-44.522-44.522v0zM1144.209-50.643h-1086.33c-26.713 0-44.522 17.809-44.522 44.522s17.809 44.522 44.522 44.522h1086.33c26.713 0 44.522-17.809 44.522-44.522s-22.261-44.522-44.522-44.522v0z" />
<glyph unicode="&#xe906;" glyph-name="basement" d="M968.533 947.2c-25.6 0-42.667-17.067-42.667-42.667v-874.667h-123.733v-85.333h166.4c25.6 0 42.667 17.067 42.667 42.667v917.333c0 25.6-17.067 42.667-42.667 42.667zM1011.2 904.533v0c0 25.6-21.333 42.667-42.667 42.667h-699.733c-25.6 0-42.667-21.333-42.667-42.667v0c0-25.6 21.333-42.667 42.667-42.667h699.733c25.6 0 42.667 21.333 42.667 42.667zM349.867 89.6c-21.333 0-38.4 17.067-38.4 38.4v132.267h-132.267c-21.333 0-38.4 17.067-38.4 38.4s17.067 38.4 38.4 38.4h209.067v-209.067c0-21.333-17.067-38.4-38.4-38.4zM388.267 166.4v537.6h379.733v-759.467h76.8v836.267h-533.333v-614.4c0-21.333 17.067-38.4 38.4-38.4s38.4 17.067 38.4 38.4zM349.867 166.4c-21.333 0-38.4-17.067-38.4-38.4s17.067-38.4 38.4-38.4h132.267v-145.067h72.533v221.867h-204.8zM12.8 507.733v-76.8h128v-132.267c0-21.333 17.067-38.4 38.4-38.4s38.4 17.067 38.4 38.4v209.067h-204.8zM529.067 384c0-25.921-21.013-46.933-46.933-46.933s-46.933 21.013-46.933 46.933c0 25.921 21.013 46.933 46.933 46.933s46.933-21.013 46.933-46.933z" />
<glyph unicode="&#xe907;" glyph-name="call" horiz-adv-x="683" d="M640-64h-597.333c-25.6 0-42.667 17.067-42.667 42.667v938.667c0 25.6 17.067 42.667 42.667 42.667h597.333c25.6 0 42.667-17.067 42.667-42.667v-938.667c0-25.6-17.067-42.667-42.667-42.667v0zM85.333 21.333h512v853.333h-512v-853.333zM554.667 213.333h-426.667c-12.8 0-21.333 8.533-21.333 21.333v541.867c0 12.8 8.533 21.333 21.333 21.333h426.667c12.8 0 21.333-8.533 21.333-21.333v-541.867c0-12.8-8.533-21.333-21.333-21.333v0zM149.333 256h384v499.2h-384v-499.2zM392.533 119.467c0-28.277-22.923-51.2-51.2-51.2s-51.2 22.923-51.2 51.2c0 28.277 22.923 51.2 51.2 51.2s51.2-22.923 51.2-51.2z" />
<glyph unicode="&#xe908;" glyph-name="elevator" d="M970.574-64h-917.148c-26.713 0-44.522 17.809-44.522 44.522v578.783c0 26.713 17.809 44.522 44.522 44.522h912.696c26.713 0 44.522-17.809 44.522-44.522v-578.783c4.452-22.261-17.809-44.522-40.070-44.522v0zM97.948 25.043h823.652v489.739h-823.652v-489.739zM512 220.939c-62.33 0-115.757 57.878-115.757 129.113s53.426 129.113 115.757 129.113c62.33 0 115.757-57.878 115.757-129.113s-53.426-129.113-115.757-129.113v0zM512 385.67c-13.357 0-26.713-17.809-26.713-40.070s13.357-40.070 26.713-40.070c13.357 0 26.713 17.809 26.713 40.070s-13.357 40.070-26.713 40.070v0zM449.67 768.557c-13.357 0-22.261 4.452-31.165 13.357l-71.235 71.235-71.235-71.235c-17.809-17.809-44.522-17.809-62.33 0s-17.809 44.522 0 62.33l102.4 102.4c17.809 17.809 44.522 17.809 62.33 0l102.4-102.4c17.809-17.809 17.809-44.522 0-62.33-8.904-8.904-22.261-13.357-31.165-13.357v0zM347.27 648.348c-26.713 0-44.522 17.809-44.522 44.522v195.896c0 26.713 17.809 44.522 44.522 44.522v0c26.713 0 44.522-17.809 44.522-44.522v-195.896c0-26.713-22.261-44.522-44.522-44.522v0 0zM583.235 839.791c13.357 0 22.261-4.452 31.165-13.357l71.235-71.235 66.783 71.235c17.809 17.809 44.522 17.809 62.33 0s17.809-44.522 0-62.33l-102.4-102.4c-17.809-17.809-44.522-17.809-62.33 0l-102.4 102.4c-13.357 17.809-13.357 44.522 0 62.33 8.904 8.904 22.261 13.357 35.617 13.357v0zM681.183 960c26.713 0 44.522-17.809 44.522-44.522v-195.896c0-26.713-17.809-44.522-44.522-44.522v0c-26.713 0-44.522 17.809-44.522 44.522v195.896c0 22.261 22.261 44.522 44.522 44.522v0 0zM414.052 65.113l-4.452 44.522c0 4.452 8.904 17.809 13.357 17.809 57.878 17.809 115.757 17.809 173.635 0 8.904-4.452 13.357-13.357 13.357-17.809v-44.522h84.591l4.452 40.070c4.452 44.522-26.713 93.496-71.235 111.304-75.687 26.713-155.826 26.713-235.965 0-44.522-17.809-75.687-62.33-71.235-106.852l4.452-40.070h89.043z" />
<glyph unicode="&#xe909;" glyph-name="exclusive" horiz-adv-x="1065" d="M827.392-47.616c-8.192 0-16.384 4.096-24.576 8.192l-270.336 196.608-270.336-196.608c-16.384-12.288-32.768-12.288-49.152 0-12.288 12.288-20.48 28.672-16.384 45.056l102.4 319.488-270.336 196.608c-12.288 12.288-16.384 28.672-12.288 45.056s20.48 28.672 40.96 28.672h335.872l98.304 319.488c4.096 16.384 20.48 28.672 40.96 28.672 16.384 0 32.768-12.288 40.96-28.672l102.4-319.488h335.872c16.384 0 32.768-12.288 40.96-28.672 4.096-16.384 0-36.864-16.384-45.056l-270.336-196.608 102.4-319.488c4.096-16.384 0-36.864-16.384-45.056-8.192-4.096-16.384-8.192-24.576-8.192v0zM532.48 251.392c8.192 0 16.384-4.096 24.576-8.192l192.512-139.264-73.728 225.28c-4.096 16.384 0 36.864 16.384 45.056l192.512 139.264h-237.568c-16.384 0-32.768 12.288-40.96 28.672l-73.728 225.28-73.728-225.28c-4.096-16.384-20.48-28.672-40.96-28.672h-237.568l192.512-139.264c16.384-12.288 20.48-28.672 16.384-45.056l-73.728-225.28 192.512 139.264c8.192 4.096 16.384 8.192 24.576 8.192v0z" />
<glyph unicode="&#xe90a;" glyph-name="fb" horiz-adv-x="559" d="M363.055-64v465.455h162.909l23.273 181.527h-186.182v116.364c0 51.2 13.964 88.436 93.091 88.436h102.4v162.909c-18.618 4.655-79.127 9.309-148.945 9.309-144.291 0-246.691-83.782-246.691-242.036v-134.982h-162.909v-181.527h162.909v-465.455h200.145z" />
<glyph unicode="&#xe90b;" glyph-name="financial-consulting" horiz-adv-x="1113" d="M694.539-46.191c-227.061 0-409.6 182.539-409.6 409.6s182.539 409.6 409.6 409.6 409.6-182.539 409.6-409.6c0-222.609-182.539-409.6-409.6-409.6v0zM694.539 688.417c-178.087 0-320.557-146.922-320.557-320.557 0-178.087 146.922-320.557 320.557-320.557 178.087 0 320.557 146.922 320.557 320.557 0 178.087-142.47 320.557-320.557 320.557v0zM694.539 96.278c-151.374 0-271.583 120.209-271.583 271.583s120.209 271.583 271.583 271.583c151.374 0 271.583-120.209 271.583-271.583s-124.661-271.583-271.583-271.583v0zM694.539 594.922c-124.661 0-227.061-102.4-227.061-227.061s102.4-227.061 227.061-227.061 227.061 102.4 227.061 227.061c0 124.661-102.4 227.061-227.061 227.061v0zM520.904 652.8h-467.478c-26.713 0-44.522 17.809-44.522 44.522s17.809 44.522 44.522 44.522h467.478c26.713 0 44.522-17.809 44.522-44.522s-22.261-44.522-44.522-44.522v0zM658.922 853.148h-605.496c-26.713 0-44.522 17.809-44.522 44.522s17.809 44.522 44.522 44.522h609.948c26.713 0 44.522-17.809 44.522-44.522-4.452-26.713-22.261-44.522-48.974-44.522v0zM302.748 452.452h-249.322c-26.713 0-44.522 17.809-44.522 44.522s17.809 44.522 44.522 44.522h253.774c26.713 0 44.522-17.809 44.522-44.522-4.452-26.713-22.261-44.522-48.974-44.522v0zM302.748 252.104h-249.322c-26.713 0-44.522 17.809-44.522 44.522s17.809 44.522 44.522 44.522h253.774c26.713 0 44.522-17.809 44.522-44.522-4.452-26.713-22.261-44.522-48.974-44.522v0zM422.957 51.757h-369.53c-26.713 0-44.522 17.809-44.522 44.522s17.809 44.522 44.522 44.522h369.53c26.713 0 44.522-17.809 44.522-44.522s-17.809-44.522-44.522-44.522v0zM716.8 550.4v-22.261c13.357 0 26.713-4.452 40.070-8.904 8.904-4.452 22.261-13.357 26.713-22.261s13.357-13.357 13.357-22.261c4.452-8.904 4.452-13.357 4.452-22.261s-4.452-13.357-8.904-17.809c0-8.904-4.452-8.904-13.357-8.904-13.357 0-22.261 8.904-26.713 22.261-4.452 17.809-17.809 31.165-35.617 35.617v-89.043c17.809-4.452 31.165-8.904 44.522-13.357 8.904-4.452 17.809-8.904 26.713-17.809s17.809-17.809 22.261-26.713c4.452-8.904 8.904-22.261 8.904-35.617 0-17.809-4.452-31.165-13.357-44.522s-17.809-26.713-35.617-35.617c-13.357-13.357-31.165-17.809-53.426-17.809v-53.426c0-8.904 0-13.357-4.452-17.809 0-4.452-4.452-4.452-8.904-4.452s-8.904 0-8.904 4.452c0 4.452-4.452 8.904-4.452 13.357v57.878c-17.809 0-31.165 4.452-44.522 13.357-13.357 4.452-22.261 13.357-31.165 22.261s-13.357 17.809-17.809 26.713c-4.452 8.904-4.452 17.809-4.452 26.713s4.452 13.357 8.904 17.809c4.452 4.452 13.357 8.904 17.809 8.904s13.357 0 17.809-4.452c4.452-4.452 8.904-8.904 8.904-13.357 4.452-13.357 8.904-22.261 8.904-26.713 4.452-4.452 8.904-13.357 13.357-17.809s13.357-8.904 22.261-13.357v97.948c-17.809 4.452-35.617 13.357-48.974 17.809s-22.261 17.809-31.165 26.713c-8.904 13.357-13.357 26.713-13.357 44.522 0 26.713 8.904 44.522 22.261 62.33 17.809 17.809 40.070 26.713 66.783 26.713v31.165c0 13.357 4.452 17.809 13.357 17.809 13.357 0 17.809-8.904 17.809-17.809zM690.087 403.478v80.139c-13.357-4.452-22.261-8.904-26.713-13.357-8.904-4.452-8.904-13.357-8.904-26.713s4.452-17.809 8.904-26.713c4.452-4.452 13.357-8.904 26.713-13.357zM716.8 336.696v-93.496c13.357 4.452 26.713 8.904 35.617 17.809s13.357 17.809 13.357 31.165c0 13.357-4.452 22.261-13.357 26.713-8.904 8.904-22.261 13.357-35.617 17.809z" />
<glyph unicode="&#xe90c;" glyph-name="garden" horiz-adv-x="906" d="M441.108-48.246c-224.492 0-405.662 181.169-405.662 405.662 0 19.692 15.754 39.385 39.385 39.385 7.877 0 7.877 0 11.815 0 224.492 0 405.662-181.169 405.662-405.662 0-19.692-15.754-39.385-39.385-39.385-7.877 0-11.815 0-11.815 0v0zM114.215 314.092c19.692-149.662 141.785-271.754 295.385-283.569-19.692 153.6-141.785 271.754-295.385 283.569v0zM464.738-48.246c-3.938 0-7.877 0-7.877 0-19.692 0-43.323 19.692-43.323 39.385 0 224.492 181.169 405.662 405.662 405.662 3.938 0 7.877 0 7.877 0 19.692 0 43.323-19.692 43.323-39.385 0-224.492-181.169-405.662-405.662-405.662v0zM791.631 314.092c-153.6-15.754-275.692-133.908-295.385-283.569 153.6 15.754 275.692 133.908 295.385 283.569v0zM452.923-48.246c-23.631 0-39.385 15.754-39.385 39.385v425.354c0 23.631 15.754 39.385 39.385 39.385s39.385-15.754 39.385-39.385v-425.354c0-23.631-15.754-39.385-39.385-39.385v0zM452.923 388.923c-200.862 0-366.277 165.415-366.277 366.277v59.077c0 19.692 11.815 35.446 31.508 39.385 122.092 27.569 248.123-11.815 334.769-98.462 86.646 86.646 212.677 126.031 334.769 98.462 19.692-3.938 31.508-19.692 31.508-39.385v-59.077c0-200.862-165.415-366.277-366.277-366.277v0zM165.415 782.769v-27.569c0-157.538 129.969-287.508 287.508-287.508s287.508 129.969 287.508 287.508v27.569c-102.4 7.877-196.923-31.508-256-110.277-15.754-19.692-47.262-19.692-63.015 0-59.077 78.769-157.538 118.154-256 110.277v0zM452.923 660.677c-11.815 0-19.692 3.938-27.569 11.815-39.385 51.2-94.523 86.646-153.6 106.338-11.815 0-19.692 11.815-23.631 23.631s0 23.631 7.877 31.508c47.262 51.2 106.338 86.646 177.231 110.277 7.877 0 11.815 0 19.692 0 78.769-19.692 145.723-59.077 196.923-110.277 7.877-7.877 11.815-19.692 7.877-31.508s-11.815-19.692-23.631-23.631c-59.077-15.754-114.215-55.138-153.6-102.4-7.877-11.815-15.754-15.754-27.569-15.754v0zM346.585 822.154c39.385-19.692 74.831-43.323 106.338-74.831 31.508 31.508 63.015 55.138 102.4 74.831-31.508 23.631-70.892 39.385-110.277 51.2-35.446-11.815-70.892-27.569-98.462-51.2v0z" />
<glyph unicode="&#xe90d;" glyph-name="interior-design" horiz-adv-x="1479" d="M1336.889 231.822h-113.778c0 221.867-153.6 415.289-364.089 466.489l28.444 108.089c261.689-62.578 449.422-295.822 449.422-574.578v0zM256 231.822h-113.778c0 267.378 176.356 500.622 438.044 574.578l28.444-108.089c-204.8-56.889-352.711-250.311-352.711-466.489v0zM386.844-41.244h-364.089v358.4h358.4v-358.4h5.689zM136.533 72.533h130.844v130.844h-130.844v-130.844zM1456.356-41.244h-358.4v358.4h358.4v-358.4zM1206.044 72.533h130.844v130.844h-130.844v-130.844zM921.6 578.844h-364.089v358.4h358.4v-358.4h5.689zM671.289 692.622h130.844v130.844h-130.844v-130.844zM597.333 766.578h-438.044v56.889h438.044v-56.889zM142.222 857.6c-34.133 0-62.578-28.444-62.578-62.578s28.444-62.578 62.578-62.578c34.133 0 62.578 28.444 62.578 62.578s-28.444 62.578-62.578 62.578v0zM1336.889 766.578h-438.044v56.889h438.044v-56.889zM1336.889 857.6c-34.133 0-62.578-28.444-62.578-62.578s28.444-62.578 62.578-62.578c34.133 0 62.578 28.444 62.578 62.578s-28.444 62.578-62.578 62.578v0z" />
<glyph unicode="&#xe90f;" horiz-adv-x="816" d="M416 864c156.8 0 284-114.4 284-285.6 0-167.2-143.2-239.2-220-346.4-62.4-87.2-64-152-64-152s-0.8 64.8-64 152c-78.4 107.2-220 173.6-220 346.4 0 171.2 127.2 285.6 284 285.6z" />
<glyph unicode="&#xe910;" horiz-adv-x="816" d="M416 753.6c96 0 174.4-78.4 174.4-175.2s-77.6-175.2-174.4-175.2c-96 0-174.4 78.4-174.4 175.2s78.4 175.2 174.4 175.2z" />
<glyph unicode="&#xe911;" glyph-name="print" horiz-adv-x="1069" d="M449.67 666.157h-240.417c-13.357 0-22.261 8.904-22.261 22.261s8.904 22.261 22.261 22.261h218.157v213.704c0 13.357 8.904 22.261 22.261 22.261s22.261-8.904 22.261-22.261v-240.417c0-8.904-13.357-17.809-22.261-17.809v0zM859.27 465.809h-650.017c-13.357 0-22.261 8.904-22.261 22.261v200.348c0 4.452 4.452 13.357 4.452 17.809l240.417 240.417c4.452 4.452 8.904 4.452 17.809 4.452h409.6c13.357 0 22.261-8.904 22.261-22.261v-440.765c0-13.357-8.904-22.261-22.261-22.261v0zM231.513 510.33h605.496v391.791h-378.435l-227.061-222.609v-169.183zM859.27-50.643h-650.017c-13.357 0-22.261 8.904-22.261 22.261v218.157c0 13.357 8.904 22.261 22.261 22.261h650.017c13.357 0 22.261-8.904 22.261-22.261v-218.157c0-13.357-8.904-22.261-22.261-22.261v0zM231.513-6.122h605.496v173.635h-605.496v-173.635zM1055.165 25.043h-138.017v89.043h48.974v320.557h-863.722v-320.557h48.974v-89.043h-138.017v498.643h1041.809v-498.643zM796.939 372.313c-26.713 0-53.426-22.261-53.426-53.426 0-26.713 22.261-53.426 53.426-53.426s53.426 22.261 53.426 53.426c-4.452 26.713-26.713 53.426-53.426 53.426v0zM667.826 305.53h-276.035c-13.357 0-22.261 8.904-22.261 22.261s8.904 22.261 22.261 22.261h276.035c13.357 0 22.261-8.904 22.261-22.261 0-8.904-8.904-22.261-22.261-22.261v0z" />
<glyph unicode="&#xe912;" glyph-name="rent-property" horiz-adv-x="1401" d="M706.021 485.726c-113.179 0-204.8 102.4-204.8 226.358s91.621 226.358 204.8 226.358c113.179 0 204.8-102.4 204.8-226.358s-91.621-226.358-204.8-226.358v0zM706.021 830.653c-53.895 0-97.011-53.895-97.011-118.568s43.116-118.568 97.011-118.568c53.895 0 97.011 53.895 97.011 118.568s-43.116 118.568-97.011 118.568v0zM991.663-42.442h-582.063c-26.947 0-53.895 21.558-53.895 48.505-5.389 64.674-10.779 123.958-10.779 188.632-5.389 75.453 53.895 161.684 123.958 188.632 150.905 53.895 312.589 53.895 458.105 0 75.453-26.947 129.347-113.179 123.958-188.632l-10.779-188.632c0-26.947-21.558-48.505-48.505-48.505v0zM463.495 65.347h479.663l10.779 134.737c0 21.558-21.558 64.674-53.895 80.842-123.958 43.116-258.695 43.116-382.653 0-32.337-10.779-53.895-53.895-53.895-80.842-5.389-43.116-5.389-91.621 0-134.737v0zM1341.979 43.789h-231.747c-16.168 0-26.947 10.779-26.947 26.947s10.779 26.947 26.947 26.947h204.8l10.779 134.737c0 26.947-21.558 75.453-59.284 86.232-53.895 16.168-107.789 26.947-161.684 32.337-16.168 0-26.947 10.779-26.947 26.947s10.779 26.947 26.947 26.947c0 0 0 0 0 0 59.284 0 123.958-10.779 183.242-32.337 53.895-21.558 102.4-86.232 97.011-140.126l-10.779-161.684c-10.779-16.168-21.558-26.947-32.337-26.947v0zM1164.126 464.168c-80.842 0-145.516 70.063-145.516 161.684s64.674 161.684 145.516 161.684c80.842 0 145.516-70.063 145.516-161.684-5.389-86.232-70.063-161.684-145.516-161.684v0zM1164.126 733.642c-48.505 0-91.621-48.505-91.621-107.789s43.116-107.789 91.621-107.789c48.505 0 91.621 48.505 91.621 107.789-5.389 59.284-43.116 107.789-91.621 107.789v0zM291.032 43.789h-231.747c-16.168 0-26.947 10.779-26.947 26.947l-10.779 161.684c-5.389 53.895 37.726 123.958 97.011 140.126 59.284 21.558 118.568 32.337 183.242 32.337 16.168 0 26.947-10.779 26.947-26.947s-10.779-26.947-26.947-26.947c-53.895 0-113.179-10.779-161.684-32.337-37.726-10.779-64.674-59.284-59.284-86.232l5.389-134.737h204.8c16.168 0 26.947-10.779 26.947-26.947s-10.779-26.947-26.947-26.947v0zM237.137 464.168c-80.842 0-145.516 70.063-145.516 161.684s64.674 161.684 145.516 161.684c80.842 0 145.516-70.063 145.516-161.684 0-86.232-64.674-161.684-145.516-161.684v0zM237.137 733.642c-48.505 0-91.621-48.505-91.621-107.789s37.726-107.789 91.621-107.789c48.505 0 91.621 48.505 91.621 107.789s-37.726 107.789-91.621 107.789v0z" />
<glyph unicode="&#xe913;" glyph-name="save" d="M512 405.333c-8.533 0-17.067 4.267-25.6 8.533l-230.4 166.4c-17.067 12.8-21.333 42.667-8.533 59.733 12.8 21.333 42.667 25.6 59.733 12.8l204.8-149.333 204.8 149.333c17.067 12.8 46.933 8.533 59.733-8.533s8.533-46.933-8.533-59.733l-230.4-166.4c-8.533-8.533-17.067-12.8-25.6-12.8v0zM512 405.333c-25.6 0-42.667 17.067-42.667 42.667v460.8c0 25.6 17.067 42.667 42.667 42.667s42.667-17.067 42.667-42.667v-460.8c0-21.333-17.067-42.667-42.667-42.667v0zM960-55.467h-896c-25.6 0-42.667 17.067-42.667 42.667v302.933c0 25.6 17.067 42.667 42.667 42.667h277.333c25.6 0 42.667-17.067 42.667-42.667v-59.733h256v59.733c0 25.6 17.067 42.667 42.667 42.667h277.333c25.6 0 42.667-17.067 42.667-42.667v-302.933c0-21.333-17.067-42.667-42.667-42.667v0zM106.667 29.867h810.667v217.6h-192v-17.067c0-46.933-38.4-85.333-85.333-85.333h-256c-46.933 0-85.333 38.4-85.333 85.333v17.067h-192v-217.6zM64 247.467c-8.533 0-21.333 4.267-29.867 12.8-17.067 17.067-17.067 42.667 0 59.733l170.667 179.2c17.067 17.067 42.667 17.067 59.733 0s17.067-42.667 0-59.733l-170.667-179.2c-8.533-8.533-17.067-12.8-29.867-12.8v0zM960 247.467c-12.8 0-21.333 4.267-29.867 12.8l-170.667 179.2c-17.067 17.067-17.067 42.667 0 59.733s42.667 17.067 59.733 0l170.667-179.2c17.067-17.067 17.067-42.667 0-59.733-8.533-8.533-17.067-12.8-29.867-12.8v0z" />
<glyph unicode="&#xe914;" glyph-name="search" horiz-adv-x="981" d="M426.667 93.867c-234.667 0-426.667 192-426.667 426.667s192 426.667 426.667 426.667c234.667 0 426.667-192 426.667-426.667s-192-426.667-426.667-426.667v0zM426.667 857.6c-187.733 0-341.333-153.6-341.333-341.333s153.6-341.333 341.333-341.333c187.733 0 341.333 153.6 341.333 341.333s-153.6 341.333-341.333 341.333v0zM187.733 516.267h-42.667c0 153.6 128 281.6 281.6 281.6v-42.667c-128 4.267-238.933-106.667-238.933-238.933v0zM934.4-46.933c-12.8 0-21.333 4.267-29.867 12.8l-238.933 238.933c-17.067 17.067-17.067 42.667 0 59.733s42.667 17.067 59.733 0l238.933-238.933c17.067-17.067 17.067-42.667 0-59.733-8.533-8.533-17.067-12.8-29.867-12.8v0z" />
<glyph unicode="&#xe915;" glyph-name="security" horiz-adv-x="906" d="M689.231 172.308c11.815 7.877 23.631 19.692 35.446 31.508 0 0 0 0 0 0s0 0-3.938 0c-7.877-7.877-19.692-19.692-31.508-31.508zM181.169 207.754c0 0 0 0 0 0 0-3.938 0-3.938 0 0 11.815-15.754 23.631-23.631 35.446-35.446-11.815 11.815-23.631 23.631-35.446 35.446zM165.415 113.231c114.215-110.277 200.862-165.415 287.508-165.415s173.292 55.138 287.508 165.415c-82.708-63.015-181.169-98.462-287.508-98.462-106.338-3.938-204.8 31.508-287.508 98.462zM791.631 896.985c-220.554 70.892-460.8 70.892-677.415 0-59.077-19.692-102.4-78.769-102.4-137.846v-389.908c0-51.2 27.569-129.969 70.892-177.231 3.938-3.938 3.938-3.938 7.877-7.877-7.877 11.815-11.815 27.569-3.938 43.323s23.631 31.508 35.446 39.385c-19.692 31.508-35.446 74.831-35.446 102.4v389.908c0 27.569 19.692 55.138 47.262 63.015 102.4 35.446 208.738 51.2 315.077 51.2s212.677-15.754 315.077-51.2c23.631-7.877 47.262-39.385 47.262-63.015v-389.908c0-27.569-15.754-74.831-35.446-106.338 15.754-7.877 27.569-23.631 35.446-39.385 7.877-11.815 7.877-31.508-3.938-43.323 3.938 3.938 3.938 3.938 7.877 7.877 43.323 47.262 70.892 126.031 70.892 177.231v393.846c7.877 59.077-39.385 118.154-94.523 137.846zM740.431 113.231c15.754 11.815 27.569 23.631 39.385 35.446s23.631 23.631 31.508 35.446c0 0 0 0 0 3.938-23.631-27.569-47.262-55.138-70.892-74.831zM181.169 207.754c59.077 27.569 126.031 43.323 192.985 51.2 11.815 0 19.692 7.877 27.569 15.754s7.877 19.692 7.877 31.508l-7.877 55.138c0 11.815-7.877 19.692-19.692 27.569-7.877 3.938-11.815 11.815-11.815 11.815 0 15.754-3.938 35.446-3.938 51.2s-11.815 27.569-27.569 31.508c0 0 0 0 0 0l-3.938 27.569c0 0 0 0 0 0 11.815 3.938 19.692 19.692 19.692 35.446l-7.877 47.262c0 27.569-3.938 51.2 15.754 70.892s51.2 31.508 90.585 31.508c35.446 0 70.892-11.815 90.585-31.508 19.692-15.754 15.754-43.323 15.754-66.954l-7.877-51.2c0-15.754 3.938-27.569 15.754-35.446 0 0 0 0 3.938 0l-3.938-27.569c0 0 0 0 0 0-15.754-3.938-23.631-15.754-27.569-31.508l-3.938-47.262c0 0-3.938-7.877-11.815-11.815-7.877-7.877-15.754-15.754-15.754-27.569l-7.877-55.138c0-11.815 0-19.692 7.877-31.508 7.877-7.877 15.754-15.754 27.569-15.754 66.954-7.877 133.908-27.569 192.985-51.2 11.815 11.815 27.569 27.569 43.323 43.323 3.938 3.938 7.877 11.815 11.815 15.754-3.938 0-3.938 3.938-7.877 3.938-59.077 27.569-122.092 47.262-189.046 59.077 19.692 15.754 31.508 35.446 31.508 55.138v15.754c15.754 7.877 27.569 23.631 27.569 43.323l7.877 74.831c0 19.692-3.938 35.446-15.754 47.262l3.938 19.692c3.938 27.569 7.877 90.585-39.385 133.908-35.446 31.508-86.646 51.2-145.723 51.2-63.015-3.938-114.215-19.692-145.723-51.2-51.2-43.323-43.323-106.338-39.385-133.908l3.938-19.692c-11.815-11.815-19.692-27.569-19.692-47.262l7.877-74.831c3.938-19.692 11.815-35.446 27.569-43.323 0-3.938 0-11.815 0-15.754 0-19.692 11.815-39.385 31.508-55.138-66.954-11.815-129.969-31.508-192.985-59.077 0 0-3.938-3.938-3.938-3.938 3.938-7.877 7.877-11.815 11.815-15.754 15.754-19.692 31.508-35.446 43.323-47.262zM90.585 184.123c0 0 0 0 0 0 11.815-15.754 19.692-27.569 31.508-35.446 11.815-11.815 27.569-23.631 39.385-35.446-19.692 19.692-43.323 43.323-70.892 70.892zM815.262 227.446c-7.877 15.754-23.631 27.569-35.446 39.385-3.938-7.877-7.877-11.815-11.815-15.754-15.754-15.754-27.569-27.569-43.323-43.323 0 0 0 0 3.938 0 0 0 0 0 0 0-11.815-11.815-23.631-23.631-35.446-31.508-98.462-98.462-173.292-149.662-236.308-149.662s-137.846 51.2-236.308 149.662c-11.815 7.877-23.631 19.692-35.446 31.508 0 0 0 0 0 0s0 0 3.938 0c-11.815 11.815-27.569 27.569-43.323 43.323-3.938 3.938-7.877 11.815-11.815 15.754-15.754-7.877-27.569-23.631-35.446-39.385-7.877-11.815-7.877-31.508 3.938-43.323 15.754-27.569 39.385-51.2 63.015-70.892 82.708-63.015 181.169-98.462 287.508-98.462s204.8 35.446 287.508 98.462c23.631 23.631 47.262 47.262 74.831 74.831 7.877 7.877 7.877 27.569 0 39.385z" />
<glyph unicode="&#xe916;" glyph-name="sell" horiz-adv-x="1210" d="M1028.655 233.891h-623.709c-23.273 0-37.236 13.964-46.545 32.582l-116.364 437.527c-4.655 13.964 0 27.927 9.309 41.891 9.309 9.309 23.273 18.618 37.236 18.618h865.745c13.964 0 27.927-4.655 37.236-18.618 9.309-9.309 13.964-27.927 9.309-41.891l-121.018-432.873c-9.309-23.273-27.927-37.236-51.2-37.236v0zM437.527 326.982h553.891l93.091 339.782h-740.073l93.091-339.782zM404.945 233.891c-18.618 0-37.236 13.964-46.545 32.582l-153.6 572.509-144.291 4.655c-27.927 0-46.545 23.273-46.545 46.545s23.273 46.545 46.545 46.545l176.873-9.309c23.273 0 41.891-13.964 46.545-32.582l162.909-600.436c4.655-23.273-9.309-51.2-32.582-55.855 0 0-4.655-4.655-9.309-4.655v0zM516.655-40.727c-69.818 0-130.327 55.855-130.327 130.327s60.509 125.673 130.327 125.673 130.327-55.855 130.327-130.327-60.509-125.673-130.327-125.673v0zM516.655 122.182c-18.618 0-37.236-13.964-37.236-37.236 0-18.618 13.964-37.236 37.236-37.236 18.618 0 37.236 13.964 37.236 37.236-4.655 23.273-18.618 37.236-37.236 37.236v0zM902.982-40.727c-69.818 0-130.327 55.855-130.327 130.327s55.855 130.327 130.327 130.327 130.327-55.855 130.327-130.327-60.509-130.327-130.327-130.327v0zM902.982 122.182c-18.618 0-37.236-13.964-37.236-37.236 0-18.618 13.964-37.236 37.236-37.236 18.618 0 37.236 13.964 37.236 37.236s-18.618 37.236-37.236 37.236v0z" />
<glyph unicode="&#xe917;" glyph-name="sold-out" d="M512-55.467c-132.267 0-260.267 51.2-354.133 149.333-93.867 93.867-149.333 221.867-145.067 354.133-4.267 277.333 221.867 503.467 499.2 503.467s503.467-226.133 503.467-503.467c0-277.333-226.133-503.467-503.467-503.467v0zM512 866.133c-230.4 0-418.133-187.733-418.133-418.133 0-110.933 42.667-217.6 123.733-294.4 76.8-76.8 183.467-123.733 294.4-123.733 230.4 0 418.133 187.733 418.133 418.133s-187.733 418.133-418.133 418.133v0zM836.267 81.067c-12.8 0-21.333 4.267-29.867 12.8l-648.533 648.533c-17.067 17.067-17.067 42.667 0 59.733s42.667 17.067 59.733 0l648.533-648.533c17.067-17.067 17.067-42.667 0-59.733-8.533-8.533-17.067-12.8-29.867-12.8v0zM187.733 81.067c-12.8 0-21.333 4.267-29.867 12.8-17.067 17.067-17.067 42.667 0 59.733l648.533 648.533c17.067 17.067 42.667 17.067 59.733 0s17.067-42.667 0-59.733l-648.533-648.533c-8.533-8.533-17.067-12.8-29.867-12.8v0z" />
<glyph unicode="&#xe918;" glyph-name="sold" d="M512-55.467c-132.267 0-260.267 51.2-354.133 149.333-93.867 93.867-149.333 221.867-145.067 354.133-4.267 277.333 221.867 503.467 499.2 503.467s503.467-226.133 503.467-503.467c0-277.333-226.133-503.467-503.467-503.467v0zM512 866.133c-230.4 0-418.133-187.733-418.133-418.133 0-110.933 42.667-217.6 123.733-294.4 76.8-76.8 183.467-123.733 294.4-123.733 230.4 0 418.133 187.733 418.133 418.133s-187.733 418.133-418.133 418.133v0zM836.267 81.067c-12.8 0-21.333 4.267-29.867 12.8l-648.533 648.533c-17.067 17.067-17.067 42.667 0 59.733s42.667 17.067 59.733 0l648.533-648.533c17.067-17.067 17.067-42.667 0-59.733-8.533-8.533-17.067-12.8-29.867-12.8v0zM187.733 81.067c-12.8 0-21.333 4.267-29.867 12.8-17.067 17.067-17.067 42.667 0 59.733l648.533 648.533c17.067 17.067 42.667 17.067 59.733 0s17.067-42.667 0-59.733l-648.533-648.533c-8.533-8.533-17.067-12.8-29.867-12.8v0z" />
<glyph unicode="&#xe919;" glyph-name="sticker" horiz-adv-x="778" d="M0 960v-778.24l385.024-245.76 393.216 245.76v778.24z" />
<glyph unicode="&#xe91a;" glyph-name="without-commission" horiz-adv-x="985" d="M315.077 424.369c0-19.576-15.87-35.446-35.446-35.446s-35.446 15.87-35.446 35.446c0 19.576 15.87 35.446 35.446 35.446s35.446-15.87 35.446-35.446zM681.354 487.385c-7.877 0-11.815 0-19.692 3.938-63.015 35.446-145.723 51.2-224.492 43.323-19.692-3.938-39.385 11.815-39.385 35.446 0 19.692 11.815 39.385 35.446 39.385 94.523 7.877 189.046-11.815 267.815-55.138 19.692-11.815 23.631-31.508 15.754-51.2-7.877-7.877-23.631-15.754-35.446-15.754v0zM586.831 526.769c-118.154 0-216.615 94.523-216.615 216.615 0 118.154 94.523 216.615 216.615 216.615s216.615-94.523 216.615-216.615c0-118.154-98.462-216.615-216.615-216.615v0zM586.831 877.292c-74.831 0-137.846-63.015-137.846-137.846s63.015-133.908 137.846-133.908 137.846 63.015 137.846 137.846-63.015 133.908-137.846 133.908v0zM586.831 640.985c-55.138 0-102.4 47.262-102.4 102.4s47.262 102.4 102.4 102.4 102.4-47.262 102.4-102.4-43.323-102.4-102.4-102.4v0zM586.831 806.4c-35.446 0-63.015-27.569-63.015-63.015s27.569-63.015 63.015-63.015c35.446 0 63.015 27.569 63.015 63.015s-27.569 63.015-63.015 63.015v0zM716.8-60.062h-59.077c-43.323 0-78.769 31.508-86.646 70.892-47.262-7.877-98.462-7.877-149.662-3.938-7.877-39.385-43.323-66.954-86.646-66.954h-55.138c-47.262 0-86.646 39.385-86.646 86.646v78.769c-39.385 35.446-70.892 74.831-90.585 122.092-47.262 0-82.708 39.385-82.708 86.646v59.077c0 47.262 39.385 86.646 82.708 86.646 19.692 43.323 51.2 86.646 90.585 122.092v59.077c0 15.754 7.877 27.569 19.692 31.508 43.323 23.631 94.523 15.754 133.908-11.815 31.508 7.877 63.015 15.754 94.523 19.692l7.877-74.831c-35.446-3.938-66.954-11.815-98.462-23.631-19.692-3.938-35.446 0-47.262 11.815-7.877 11.815-23.631 19.692-35.446 19.692v-51.2c0-11.815-3.938-23.631-15.754-31.508-43.323-35.446-74.831-74.831-90.585-122.092-3.938-15.754-19.692-23.631-35.446-23.631h-23.631c-7.877 0-11.815-3.938-11.815-11.815v-59.077c0-7.877 3.938-11.815 11.815-11.815h23.631c15.754 0 31.508-11.815 35.446-23.631 15.754-47.262 47.262-86.646 90.585-122.092 7.877-7.877 15.754-19.692 15.754-31.508v-94.523c0-7.877 3.938-11.815 11.815-11.815h59.077c7.877 0 11.815 3.938 11.815 11.815v23.631c0 11.815 3.938 23.631 15.754 27.569 7.877 7.877 19.692 7.877 31.508 7.877 66.954-15.754 137.846-11.815 200.862 3.938 11.815 3.938 23.631 0 31.508-7.877s15.754-19.692 15.754-31.508v-27.569c0-7.877 3.938-11.815 11.815-11.815h59.077c7.877 0 11.815 3.938 11.815 11.815v110.277c0 11.815 3.938 19.692 11.815 27.569 55.138 47.262 86.646 110.277 86.646 177.231 0 7.877 3.938 15.754 7.877 23.631-7.877 3.938-11.815 11.815-11.815 19.692-15.754 74.831-70.892 137.846-153.6 177.231l31.508 66.954c70.892-35.446 129.969-90.585 165.415-149.662 0 15.754 7.877 27.569 19.692 35.446 15.754 7.877 31.508 3.938 43.323-7.877 23.631-23.631 35.446-51.2 35.446-86.646 0-43.323-23.631-86.646-63.015-106.338-7.877-74.831-39.385-145.723-98.462-200.862v-94.523c3.938-39.385-35.446-78.769-86.646-78.769v0z" />
<glyph unicode="&#xe91b;" glyph-name="wyslij" horiz-adv-x="1071" d="M958.836-40.727h-847.127c-37.236 0-69.818 23.273-79.127 55.855-4.655 9.309 0 18.618 4.655 27.927l330.473 293.236c9.309 9.309 23.273 9.309 32.582 0s9.309-23.273 0-32.582l-316.509-279.273c9.309-9.309 18.618-13.964 27.927-13.964h847.127c9.309 0 23.273 4.655 27.927 13.964l-321.164 283.927c-9.309 9.309-9.309 23.273 0 32.582s23.273 9.309 32.582 0l335.127-297.891c9.309-4.655 9.309-18.618 4.655-23.273-13.964-37.236-46.545-60.509-79.127-60.509v0zM674.909 745.891c-9.309 0-18.618 4.655-23.273 9.309l-111.709 111.709-116.364-107.055c-18.618-13.964-37.236-13.964-51.2 0s-13.964 37.236 0 51.2l139.636 139.636c13.964 9.309 32.582 9.309 46.545-4.655l139.636-139.636c13.964-13.964 13.964-37.236 0-51.2-4.655-4.655-13.964-9.309-23.273-9.309v0zM535.273 401.455c-18.618 0-37.236 13.964-37.236 37.236v446.836c0 18.618 13.964 37.236 37.236 37.236 18.618 0 37.236-13.964 37.236-37.236v-446.836c0-23.273-18.618-37.236-37.236-37.236v0zM958.836-64h-847.127c-60.509 0-111.709 51.2-111.709 111.709v553.891c0 60.509 51.2 111.709 111.709 111.709h297.891c27.927 0 46.545-18.618 46.545-46.545s-18.618-46.545-46.545-46.545h-297.891c-9.309 0-18.618-9.309-18.618-18.618v-553.891c0-9.309 9.309-18.618 18.618-18.618h847.127c9.309 0 18.618 9.309 18.618 18.618v553.891c0 9.309-9.309 18.618-18.618 18.618h-297.891c-27.927 0-46.545 18.618-46.545 46.545s18.618 46.545 46.545 46.545h297.891c60.509 0 111.709-51.2 111.709-111.709v-553.891c-4.655-60.509-51.2-111.709-111.709-111.709v0zM535.273 168.727c-4.655 0-9.309 0-13.964 4.655l-484.073 432.873c-9.309 9.309-9.309 23.273 0 32.582s23.273 9.309 32.582 0l465.455-414.255 465.455 414.255c9.309 9.309 23.273 9.309 32.582 0s9.309-23.273 0-32.582l-479.418-428.218c-9.309-4.655-13.964-9.309-18.618-9.309v0z" />
<glyph unicode="&#xe91c;" glyph-name="your-property" d="M520.192 5.632c-8.192 0-16.384 0-20.48 4.096 0 0-4.096 4.096-4.096 4.096l-12.288 8.192c-32.768 20.48-106.496 73.728-155.648 114.688-192.512 147.456-290.816 258.048-307.2 335.872-16.384 28.672-20.48 61.44-20.48 94.208 0 90.112 32.768 176.128 90.112 233.472 53.248 53.248 126.976 86.016 200.704 86.016v0c86.016 0 159.744-32.768 217.088-94.208 53.248 61.44 131.072 98.304 212.992 98.304h4.096c159.744 0 290.816-139.264 294.912-311.296 0-32.768-4.096-65.536-12.288-98.304-16.384-77.824-114.688-192.512-299.008-344.064-69.632-57.344-126.976-102.4-172.032-126.976 0-4.096-8.192-4.096-16.384-4.096v0zM294.912 800.256c-53.248 0-102.4-20.48-143.36-61.44s-65.536-106.496-65.536-172.032c0-24.576 4.096-49.152 12.288-69.632 8.192-36.864 53.248-118.784 278.528-290.816 45.056-32.768 110.592-77.824 143.36-102.4 36.864 24.576 86.016 61.44 139.264 106.496 217.088 176.128 262.144 262.144 266.24 294.912 8.192 24.576 12.288 49.152 12.288 73.728 0 126.976-94.208 229.376-208.896 229.376 0 0-4.096 0-4.096 0-73.728 0-139.264-40.96-176.128-106.496-8.192-12.288-20.48-20.48-36.864-20.48s-28.672 8.192-36.864 20.48c-40.96 61.44-106.496 98.304-180.224 98.304v0zM843.776 497.152c0 0-4.096 0-4.096 0-12.288 4.096-20.48 12.288-16.384 24.576l4.096 12.288c4.096 12.288 4.096 24.576 4.096 40.96 0 69.632-45.056 118.784-102.4 118.784-12.288 0-20.48 8.192-20.48 20.48s8.192 20.48 20.48 20.48c81.92 0 143.36-73.728 147.456-163.84 0-16.384-4.096-36.864-8.192-53.248l-4.096-8.192c-4.096-4.096-12.288-12.288-20.48-12.288v0z" />
<glyph unicode="&#xe91d;" glyph-name="zoom-in" horiz-adv-x="981" d="M426.667 93.867c-234.667 0-426.667 192-426.667 426.667s192 426.667 426.667 426.667c234.667 0 426.667-192 426.667-426.667s-192-426.667-426.667-426.667v0zM426.667 857.6c-187.733 0-341.333-153.6-341.333-341.333s153.6-341.333 341.333-341.333c187.733 0 341.333 153.6 341.333 341.333s-153.6 341.333-341.333 341.333v0zM934.4-46.933c-12.8 0-21.333 4.267-29.867 12.8l-238.933 238.933c-17.067 17.067-17.067 42.667 0 59.733s42.667 17.067 59.733 0l238.933-238.933c17.067-17.067 17.067-42.667 0-59.733-8.533-8.533-17.067-12.8-29.867-12.8v0zM426.667 311.467c-25.6 0-42.667 17.067-42.667 42.667v337.067c0 25.6 17.067 42.667 42.667 42.667s42.667-17.067 42.667-42.667v-337.067c0-21.333-17.067-42.667-42.667-42.667v0zM597.333 482.133h-337.067c-25.6 0-42.667 17.067-42.667 42.667s17.067 42.667 42.667 42.667h337.067c25.6 0 42.667-17.067 42.667-42.667s-21.333-42.667-42.667-42.667v0z" />
<glyph unicode="&#xe91e;" glyph-name="zoom-out" horiz-adv-x="981" d="M426.667 93.867c-234.667 0-426.667 192-426.667 426.667s192 426.667 426.667 426.667c234.667 0 426.667-192 426.667-426.667s-192-426.667-426.667-426.667v0zM426.667 857.6c-187.733 0-341.333-153.6-341.333-341.333s153.6-341.333 341.333-341.333c187.733 0 341.333 153.6 341.333 341.333s-153.6 341.333-341.333 341.333v0zM934.4-46.933c-12.8 0-21.333 4.267-29.867 12.8l-238.933 238.933c-17.067 17.067-17.067 42.667 0 59.733s42.667 17.067 59.733 0l238.933-238.933c17.067-17.067 17.067-42.667 0-59.733-8.533-8.533-17.067-12.8-29.867-12.8v0zM597.333 482.133h-337.067c-25.6 0-42.667 17.067-42.667 42.667s17.067 42.667 42.667 42.667h337.067c25.6 0 42.667-17.067 42.667-42.667s-21.333-42.667-42.667-42.667v0z" />
<glyph unicode="&#xe91f;" glyph-name="play" horiz-adv-x="793" d="M74.473 866.909l629.295-420.771-625.571-417.047-3.724 837.818zM55.855 960c-29.789 0-55.855-22.342-55.855-55.855l3.724-912.291c0-33.513 26.065-55.855 55.855-55.855 11.171 0 22.342 3.724 29.789 7.447l681.425 458.007c33.513 22.342 33.513 70.749 0 89.367l-685.149 461.731c-11.171 3.724-22.342 7.447-29.789 7.447z" />
<glyph unicode="&#xe920;" glyph-name="checkmark" horiz-adv-x="1365" d="M512-64l-486.4 520.533c-25.6 34.133-25.6 85.333 0 110.933 25.6 34.133 76.8 34.133 110.933 0l375.467-401.067 725.333 768c25.6 34.133 76.8 34.133 110.933 0 25.6-34.133 25.6-85.333 0-110.933l-836.267-887.467z" />
</font>
</defs>
</svg>
