<?xml version="1.0" encoding="utf-8"?>
<!-- Generator: Adobe Illustrator 21.1.0, SVG Export Plug-In . SVG Version: 6.00 Build 0)  -->
<svg version="1.1" id="Layer_3" xmlns="http://www.w3.org/2000/svg" xmlns:xlink="http://www.w3.org/1999/xlink" x="0px" y="0px"
	 viewBox="0 0 25 24" style="enable-background:new 0 0 25 24;" xml:space="preserve">
<style type="text/css">
	.st0{fill:#282828;}
</style>
<path class="st0" d="M11.5,0.4c-0.3,0-0.5,0.2-0.5,0.5v2.2L9.2,1.2c-0.4-0.4-1-0.4-1.4-0.1c-0.4,0.4-0.4,1-0.1,1.4L11,6.1v4.2
	L7.4,8.2L5.9,3.7C5.7,3.1,5.1,2.8,4.6,3S3.8,3.7,4,4.2l0.8,2.5L3.1,5.8c-0.4-0.3-1-0.1-1.3,0.3C1.5,6.6,1.7,7.2,2.1,7.5l1.6,0.9
	L1.2,9c-0.5,0.1-0.8,0.7-0.8,1.2c0.1,0.5,0.5,0.8,1,0.8c0.1,0,0.2,0,0.2,0l4.8-1.1L10,12l-3.7,2.1l-4.6-1c-0.6-0.1-1.1,0.3-1.2,0.8
	s0.3,1.1,0.8,1.2l2.4,0.5l-1.5,0.9c-0.5,0.3-0.6,0.9-0.4,1.4c0.2,0.3,0.5,0.5,0.9,0.5c0.2,0,0.3,0,0.5-0.1l1.5-0.8l-0.8,2.3
	c-0.1,0.6,0.2,1.1,0.7,1.3c0.1,0,0.2,0,0.3,0c0.5,0,0.9-0.3,1-0.7l1.5-4.5l3.6-2.1v4.1l-3.3,3.6c-0.4,0.4-0.3,1,0.1,1.4
	C8,23,8.2,23.1,8.5,23.1S9,23,9.2,22.8l1.8-1.9v2.2c0,0.3,0.2,0.5,0.5,0.5s0.5-0.2,0.5-0.5V0.9C12,0.6,11.8,0.4,11.5,0.4z"/>
<path class="st0" d="M23.6,11h-3.8c-0.2-1.2-0.6-2.2-1.3-3.1l2.7-2.7c0.4-0.4,0.4-1,0-1.4c-0.4-0.4-1-0.4-1.4,0l-2.7,2.7
	c-0.9-0.7-2-1.1-3.1-1.3V5.1V0.9c0-0.3-0.2-0.5-0.5-0.5S13,0.6,13,0.9V5v11.9v0.5v1.5v4.2c0,0.3,0.2,0.5,0.5,0.5s0.5-0.2,0.5-0.5
	v-4.3c1.1-0.2,2.2-0.6,3.1-1.3l2.7,2.6c0.2,0.2,0.4,0.3,0.7,0.3c0.2,0,0.5-0.1,0.7-0.2c0.4-0.4,0.4-1,0-1.4l-2.7-2.7
	c0.7-0.9,1.1-2,1.3-3.1h3.8c0.5,0,1-0.5,1-1C24.6,11.4,24.2,11,23.6,11z M14,16.8V7.2c2.2,0.5,3.9,2.4,3.9,4.8S16.2,16.4,14,16.8z"
	/>
</svg>
