<?xml version="1.0" encoding="utf-8"?>
<!-- Generator: Adobe Illustrator 21.0.0, SVG Export Plug-In . SVG Version: 6.00 Build 0)  -->
<svg version="1.1" id="Layer_3" xmlns="http://www.w3.org/2000/svg" xmlns:xlink="http://www.w3.org/1999/xlink" x="0px" y="0px"
	 viewBox="0 0 25 24" style="enable-background:new 0 0 25 24;" xml:space="preserve">
<style type="text/css">
	.st0{fill:#282828;}
</style>
<g>
	<g>
		<path class="st0" d="M9.2,1.2c-0.4-0.4-1-0.4-1.4-0.1c-0.4,0.4-0.4,1-0.1,1.4L11,6.1v-3L9.2,1.2z"/>
		<path class="st0" d="M12,0.9c0-0.3-0.2-0.5-0.5-0.5c-0.3,0-0.5,0.2-0.5,0.5v2.3l1,1.1V0.9z"/>
		<path class="st0" d="M11,3.1v3l0.3,0.3c0.2,0.2,0.5,0.3,0.7,0.3V4.2L11,3.1z"/>
		<path class="st0" d="M11,23.1c0,0.3,0.2,0.5,0.5,0.5c0.3,0,0.5-0.2,0.5-0.5v-3.3l-1,1.1V23.1z"/>
		<path class="st0" d="M7.7,21.5c-0.4,0.4-0.3,1,0.1,1.4C8,23,8.2,23.1,8.5,23.1c0.3,0,0.5-0.1,0.7-0.3l1.8-1.9v-3L7.7,21.5z"/>
		<path class="st0" d="M11.2,17.6L11,17.9v3l1-1.1v-2.5C11.7,17.3,11.4,17.4,11.2,17.6z"/>
		<g>
			<g>
				<path class="st0" d="M1.4,11c-0.5,0-0.9-0.3-1-0.8C0.4,9.7,0.7,9.1,1.2,9l5-1.1c0.5-0.1,1.1,0.2,1.2,0.8
					c0.1,0.5-0.2,1.1-0.8,1.2l-5,1.1C1.6,11,1.5,11,1.4,11L1.4,11z"/>
			</g>
			<g>
				<path class="st0" d="M6.5,9.9c-0.4,0-0.8-0.3-1-0.7L4,4.2C3.8,3.7,4.1,3.2,4.6,3c0.5-0.2,1.1,0.1,1.3,0.7l1.6,4.9
					c0.2,0.5-0.1,1.1-0.7,1.3C6.7,9.9,6.6,9.9,6.5,9.9L6.5,9.9z"/>
			</g>
		</g>
		<g>
			<path class="st0" d="M11,17.9l0.3-0.3c0.2-0.2,0.5-0.3,0.7-0.3v-4.2l-1,0.6V17.9z"/>
			<path class="st0" d="M12,6.7c-0.3,0-0.5-0.1-0.7-0.3L11,6.1v4.2l1,0.6V6.7z"/>
			<path class="st0" d="M11,10.3L3.1,5.8C2.7,5.5,2.1,5.7,1.8,6.1C1.5,6.6,1.7,7.2,2.1,7.5L10,12l1-0.6V10.3z"/>
			<path class="st0" d="M11.5,11.2c0.2-0.1,0.3-0.1,0.5-0.1v-0.2l-1-0.6v1.2L11.5,11.2z"/>
			<path class="st0" d="M10,12l-7.8,4.5c-0.5,0.3-0.6,0.9-0.4,1.4c0.2,0.3,0.5,0.5,0.9,0.5c0.2,0,0.3,0,0.5-0.1l7.8-4.5v-1.2L10,12z
				"/>
			<path class="st0" d="M12,13c-0.2,0-0.3,0-0.5-0.1L11,12.6v1.2l1-0.6L12,13C12,13,12,13,12,13z"/>
			<polygon class="st0" points="11,11.4 10,12 11,12.6 			"/>
			<path class="st0" d="M11.5,11.2L11,11.4v1.2l0.5,0.3C11.6,13,11.8,13,12,13c0,0,0,0,0,0v-2C11.8,11,11.6,11.1,11.5,11.2z"/>
		</g>
		<g>
			<g>
				<path class="st0" d="M4.9,21.1c-0.1,0-0.2,0-0.3,0c-0.5-0.2-0.8-0.7-0.7-1.3l1.6-4.9c0.2-0.5,0.7-0.8,1.3-0.7
					c0.5,0.2,0.8,0.7,0.7,1.3l-1.6,4.9C5.8,20.8,5.4,21.1,4.9,21.1L4.9,21.1z"/>
			</g>
			<g>
				<path class="st0" d="M6.5,16.2c-0.1,0-0.1,0-0.2,0l-5-1.1c-0.5-0.1-0.9-0.7-0.8-1.2c0.1-0.5,0.6-0.9,1.2-0.8l5,1.1
					c0.5,0.1,0.9,0.7,0.8,1.2C7.4,15.9,7,16.2,6.5,16.2L6.5,16.2z"/>
			</g>
		</g>
	</g>
	<g>
		<path class="st0" d="M23.6,13h-4.5c-0.6,0-1-0.4-1-1c0-0.6,0.4-1,1-1h4.5c0.6,0,1,0.4,1,1C24.6,12.5,24.1,13,23.6,13L23.6,13z"/>
	</g>
	<g>
		<path class="st0" d="M17.3,8.7c-0.3,0-0.5-0.1-0.7-0.3c-0.4-0.4-0.4-1,0-1.4l3.2-3.2c0.4-0.4,1-0.4,1.4,0c0.4,0.4,0.4,1,0,1.4
			L18,8.4C17.8,8.6,17.5,8.7,17.3,8.7L17.3,8.7z"/>
	</g>
	<g>
		<path class="st0" d="M20.5,20.4c-0.3,0-0.5-0.1-0.7-0.3L16.6,17c-0.4-0.4-0.4-1,0-1.4c0.4-0.4,1-0.4,1.4,0l3.2,3.2
			c0.4,0.4,0.4,1,0,1.4C21,20.3,20.7,20.4,20.5,20.4L20.5,20.4z"/>
	</g>
	<g>
		<path class="st0" d="M19.9,12c0-3.5-2.6-6.3-5.9-6.8v2c2.2,0.5,3.9,2.4,3.9,4.8c0,2.4-1.7,4.4-3.9,4.8v2
			C17.3,18.3,19.9,15.4,19.9,12z"/>
		<path class="st0" d="M14,7.1C13.6,7.1,13.3,7,13,7v9.8c0.3,0,0.7,0,1-0.1V7.1z"/>
		<path class="st0" d="M13,23.1c0,0.3,0.2,0.5,0.5,0.5c0.3,0,0.5-0.2,0.5-0.5v-4.3c-0.3,0-0.7,0.1-1,0.1V23.1z"/>
		<path class="st0" d="M14,0.9c0-0.3-0.2-0.5-0.5-0.5c-0.3,0-0.5,0.2-0.5,0.5V5c0.3,0,0.7,0,1,0.1V0.9z"/>
		<path class="st0" d="M14,5.1c-0.3,0-0.7-0.1-1-0.1v2c0.3,0,0.7,0,1,0.1V5.1z"/>
		<path class="st0" d="M13,16.9v2c0.3,0,0.7,0,1-0.1v-2C13.6,16.8,13.3,16.9,13,16.9z"/>
	</g>
</g>
</svg>
