<?xml version="1.0" encoding="utf-8"?>
<!-- Generator: Adobe Illustrator 21.0.0, SVG Export Plug-In . SVG Version: 6.00 Build 0)  -->
<svg version="1.1" id="Layer_3" xmlns="http://www.w3.org/2000/svg" xmlns:xlink="http://www.w3.org/1999/xlink" x="0px" y="0px"
	 viewBox="0 0 26 22" style="enable-background:new 0 0 26 22;" xml:space="preserve">
<style type="text/css">
	.st0{fill:#282828;}
</style>
<g>
	<g>
		<g>
			<path class="st0" d="M16.7,10.8c-0.3,0-0.6-0.1-0.9-0.2c-2.1-0.7-3.5-3.2-3.3-5.7c0.2-2.6,2.4-4.8,4.8-4.8l0,0
				c1.1,0,2,0.4,2.7,1.3c0.9,1.1,1.3,2.9,0.9,4.8C20.3,8.9,18.6,10.8,16.7,10.8L16.7,10.8z M17.4,2c-1.5,0-2.9,1.5-3,3.1
				s0.8,3.4,2,3.8c0.1,0,0.2,0.1,0.3,0.1c0.8,0,1.9-1.1,2.3-3.2c0.3-1.3,0.1-2.5-0.5-3.2C18.2,2.2,17.8,2,17.4,2L17.4,2z"/>
		</g>
		<g>
			<path class="st0" d="M20.8,16.4c-0.7,0-1.3-0.2-1.9-0.5c-1.8-1.2-2.2-3.5-0.8-5.7c1.1-1.8,3-3,4.7-3c0.5,0,0.9,0.1,1.3,0.3
				c0.7,0.3,1.2,1,1.5,1.9c0.4,1.4,0.1,3.2-0.9,4.6C23.7,15.5,22.3,16.4,20.8,16.4L20.8,16.4z M22.7,9c-1,0-2.3,0.9-3.1,2.1
				c-0.8,1.3-0.7,2.5,0.2,3.1c0.9,0.6,2.3,0,3.2-1.3c0.6-1,0.9-2.3,0.6-3.1c-0.1-0.3-0.3-0.6-0.5-0.7C23.1,9.1,22.9,9,22.7,9L22.7,9
				z"/>
		</g>
		<g>
			<path class="st0" d="M9.3,10.8L9.3,10.8c-1.9,0-3.6-1.9-4.2-4.7C4.8,4.3,5.1,2.5,6,1.3C6.7,0.5,7.6,0,8.6,0
				c2.5,0,4.7,2.2,4.9,4.8c0.2,2.5-1.2,5-3.3,5.7C9.9,10.7,9.6,10.8,9.3,10.8L9.3,10.8z M8.7,2C8.2,2,7.8,2.2,7.5,2.5
				C6.9,3.2,6.7,4.5,7,5.7c0.4,2.1,1.5,3.2,2.3,3.2c0.1,0,0.2,0,0.3-0.1c1.2-0.4,2.2-2.2,2-3.8C11.5,3.4,10.1,2,8.7,2L8.7,2L8.7,2z"
				/>
		</g>
		<g>
			<path class="st0" d="M5.2,16.4L5.2,16.4c-1.5,0-2.9-0.9-3.9-2.4C0.4,12.5,0,10.7,0.4,9.4c0.3-1,0.8-1.6,1.6-2
				c0.4-0.2,0.8-0.3,1.3-0.3c1.7,0,3.6,1.2,4.7,3c1.3,2.2,1,4.5-0.8,5.7C6.5,16.2,5.9,16.4,5.2,16.4L5.2,16.4z M3.3,9
				C3.1,9,2.9,9,2.8,9.1C2.6,9.3,2.4,9.5,2.3,9.8c-0.2,0.9,0,2.1,0.6,3.1c0.8,1.3,2.2,1.9,3.2,1.3c0.9-0.6,1-1.8,0.2-3.1
				C5.6,10,4.3,9,3.3,9L3.3,9z"/>
		</g>
	</g>
	<g>
		<path class="st0" d="M13,21.9L13,21.9h-1.4c-3.9-0.1-6-0.2-6.8-1.5c-0.2-0.4-0.4-1-0.1-1.9c1-2.6,5-7.6,8.2-7.4
			c3.2-0.2,7.2,4.8,8.2,7.4c0.4,0.8,0.2,1.5-0.1,1.8c-0.8,1.3-2.9,1.3-6.8,1.5L13,21.9L13,21.9L13,21.9z M6.5,19.4
			c0.5,0.4,3.1,0.5,5.2,0.6H13h1.3c2.1-0.1,4.7-0.2,5.2-0.6c0,0,0-0.1-0.1-0.1c-0.9-2.4-4.4-6.4-6.4-6.2c-0.1,0-0.1,0-0.2,0
			c-2-0.1-5.5,3.8-6.4,6.2C6.5,19.3,6.5,19.4,6.5,19.4L6.5,19.4z"/>
	</g>
</g>
</svg>
