<?xml version="1.0" encoding="utf-8"?>
<!-- Generator: Adobe Illustrator 21.0.0, SVG Export Plug-In . SVG Version: 6.00 Build 0)  -->
<svg version="1.1" id="Layer_3" xmlns="http://www.w3.org/2000/svg" xmlns:xlink="http://www.w3.org/1999/xlink" x="0px" y="0px"
	 viewBox="0 0 27 23" style="enable-background:new 0 0 27 23;" xml:space="preserve">
<style type="text/css">
	.st0{fill:#282828;}
</style>
<g>
	<g>
		<g>
			<path class="st0" d="M4.9,19.9c-0.6,0-1-0.4-1-1V9.4c0-0.6,0.4-1,1-1c0.6,0,1,0.4,1,1v9.5C5.9,19.4,5.5,19.9,4.9,19.9L4.9,19.9z"
				/>
		</g>
		<g>
			<path class="st0" d="M22.1,19.9c-0.6,0-1-0.4-1-1V9.4c0-0.6,0.4-1,1-1c0.6,0,1,0.4,1,1v9.5C23.1,19.4,22.6,19.9,22.1,19.9
				L22.1,19.9z"/>
		</g>
		<g>
			<path class="st0" d="M9.2,19.9c-0.6,0-1-0.4-1-1V9.4c0-0.6,0.4-1,1-1c0.6,0,1,0.4,1,1v9.5C10.2,19.4,9.8,19.9,9.2,19.9L9.2,19.9z
				"/>
		</g>
		<g>
			<path class="st0" d="M13.5,19.9c-0.6,0-1-0.4-1-1V9.4c0-0.6,0.4-1,1-1c0.6,0,1,0.4,1,1v9.5C14.5,19.4,14.1,19.9,13.5,19.9
				L13.5,19.9z"/>
		</g>
		<g>
			<path class="st0" d="M17.8,19.9c-0.6,0-1-0.4-1-1V9.4c0-0.6,0.4-1,1-1c0.6,0,1,0.4,1,1v9.5C18.8,19.4,18.4,19.9,17.8,19.9
				L17.8,19.9z"/>
		</g>
	</g>
	<g>
		<path class="st0" d="M25.7,10.4H1.3c-0.6,0-1-0.4-1-1c0-0.6,0.4-1,1-1h24.4c0.6,0,1,0.4,1,1C26.7,9.9,26.3,10.4,25.7,10.4
			L25.7,10.4z"/>
	</g>
	<g>
		<path class="st0" d="M9.7,0.8v7.9c0,0.3-0.2,0.5-0.5,0.5c-0.3,0-0.5-0.2-0.5-0.5V0.8c0-0.3,0.2-0.5,0.5-0.5
			C9.5,0.3,9.7,0.5,9.7,0.8L9.7,0.8z"/>
	</g>
	<g>
		<path class="st0" d="M18.3,0.8v7.9c0,0.3-0.2,0.5-0.5,0.5c-0.3,0-0.5-0.2-0.5-0.5V0.8c0-0.3,0.2-0.5,0.5-0.5
			C18.1,0.3,18.3,0.5,18.3,0.8L18.3,0.8z"/>
	</g>
	<g>
		<path class="st0" d="M25.7,19.9H1.3c-0.6,0-1-0.4-1-1c0-0.6,0.4-1,1-1h24.4c0.6,0,1,0.4,1,1C26.7,19.4,26.3,19.9,25.7,19.9
			L25.7,19.9z"/>
	</g>
	<g>
		<path class="st0" d="M25.7,22.7H1.3c-0.6,0-1-0.4-1-1c0-0.6,0.4-1,1-1h24.4c0.6,0,1,0.4,1,1C26.7,22.3,26.2,22.7,25.7,22.7
			L25.7,22.7z"/>
	</g>
</g>
</svg>
