<?xml version="1.0" encoding="utf-8"?>
<!-- Generator: Adobe Illustrator 18.0.0, SVG Export Plug-In . SVG Version: 6.00 Build 0)  -->
<!DOCTYPE svg PUBLIC "-//W3C//DTD SVG 1.1//EN" "http://www.w3.org/Graphics/SVG/1.1/DTD/svg11.dtd">
<svg version="1.1" id="Warstwa_1" xmlns="http://www.w3.org/2000/svg" xmlns:xlink="http://www.w3.org/1999/xlink" x="0px" y="0px"
	 viewBox="0 0 35.1 35.1" enable-background="new 0 0 35.1 35.1" xml:space="preserve">
<g>
	<g>
		<path d="M34.1,35.1c-0.3,0-0.5-0.1-0.7-0.3L16.1,17.6L33.4,0.3c0.4-0.4,1-0.4,1.4,0s0.4,1,0,1.4L19,17.6l15.8,15.8
			c0.4,0.4,0.4,1,0,1.4C34.6,35,34.4,35.1,34.1,35.1z"/>
	</g>
	<g>
		<path d="M1,35.1c-0.3,0-0.5-0.1-0.7-0.3c-0.4-0.4-0.4-1,0-1.4l15.8-15.8L0.3,1.7c-0.4-0.4-0.4-1,0-1.4s1-0.4,1.4,0L19,17.6
			L1.7,34.8C1.5,35,1.3,35.1,1,35.1z"/>
	</g>
</g>
</svg>
