<?xml version="1.0" encoding="utf-8"?>
<!-- Generator: Adobe Illustrator 21.0.0, SVG Export Plug-In . SVG Version: 6.00 Build 0)  -->
<svg version="1.1" id="Layer_3" xmlns="http://www.w3.org/2000/svg" xmlns:xlink="http://www.w3.org/1999/xlink" x="0px" y="0px"
	 viewBox="0 0 23 26" style="enable-background:new 0 0 23 26;" xml:space="preserve">
<style type="text/css">
	.st0{fill:#282828;}
</style>
<g>
	<g>
		<g>
			<path class="st0" d="M11.2,25.6C5.5,25.6,0.9,21,0.9,15.3c0-0.5,0.4-1,1-1c0.2,0,0.2,0,0.3,0c5.7,0,10.3,4.6,10.3,10.3
				c0,0.5-0.4,1-1,1C11.3,25.6,11.2,25.6,11.2,25.6L11.2,25.6z M2.9,16.4c0.5,3.8,3.6,6.9,7.5,7.2C9.9,19.7,6.8,16.7,2.9,16.4
				L2.9,16.4z"/>
		</g>
		<g>
			<path class="st0" d="M11.8,25.6c-0.1,0-0.2,0-0.2,0c-0.5,0-1.1-0.5-1.1-1c0-5.7,4.6-10.3,10.3-10.3c0.1,0,0.2,0,0.2,0
				c0.5,0,1.1,0.5,1.1,1C22.1,21,17.5,25.6,11.8,25.6L11.8,25.6z M20.1,16.4c-3.9,0.4-7,3.4-7.5,7.2C16.5,23.2,19.6,20.2,20.1,16.4
				L20.1,16.4z"/>
		</g>
	</g>
	<g>
		<path class="st0" d="M11.5,25.6c-0.6,0-1-0.4-1-1V13.8c0-0.6,0.4-1,1-1c0.6,0,1,0.4,1,1v10.8C12.5,25.2,12.1,25.6,11.5,25.6
			L11.5,25.6z"/>
	</g>
	<g>
		<path class="st0" d="M11.5,14.5c-5.1,0-9.3-4.2-9.3-9.3V3.7c0-0.5,0.3-0.9,0.8-1C6.1,2,9.3,3,11.5,5.2C13.7,3,16.9,2,20,2.7
			c0.5,0.1,0.8,0.5,0.8,1v1.5C20.8,10.3,16.6,14.5,11.5,14.5L11.5,14.5z M4.2,4.5v0.7c0,4,3.3,7.3,7.3,7.3s7.3-3.3,7.3-7.3V4.5
			c-2.6-0.2-5,0.8-6.5,2.8c-0.4,0.5-1.2,0.5-1.6,0C9.2,5.3,6.7,4.3,4.2,4.5L4.2,4.5z"/>
	</g>
	<g>
		<path class="st0" d="M11.5,7.6c-0.3,0-0.5-0.1-0.7-0.3C9.8,6,8.4,5.1,6.9,4.6C6.6,4.6,6.4,4.3,6.3,4c-0.1-0.3,0-0.6,0.2-0.8
			C7.7,1.9,9.2,1,11,0.4c0.2,0,0.3,0,0.5,0c2,0.5,3.7,1.5,5,2.8c0.2,0.2,0.3,0.5,0.2,0.8c-0.1,0.3-0.3,0.5-0.6,0.6
			c-1.5,0.4-2.9,1.4-3.9,2.6C12,7.5,11.8,7.6,11.5,7.6L11.5,7.6z M8.8,3.5c1,0.5,1.9,1.1,2.7,1.9c0.8-0.8,1.6-1.4,2.6-1.9
			c-0.8-0.6-1.8-1-2.8-1.3C10.4,2.5,9.5,2.9,8.8,3.5L8.8,3.5z"/>
	</g>
</g>
</svg>
