<?xml version="1.0" encoding="utf-8"?>
<!-- Generator: Adobe Illustrator 21.0.0, SVG Export Plug-In . SVG Version: 6.00 Build 0)  -->
<svg version="1.1" id="Layer_3" xmlns="http://www.w3.org/2000/svg" xmlns:xlink="http://www.w3.org/1999/xlink" x="0px" y="0px"
	 viewBox="0 0 26 18" style="enable-background:new 0 0 26 18;" xml:space="preserve">
<style type="text/css">
	.st0{fill:#9DD614;}
</style>
<g>
	<g>
		<path class="st0" d="M23.5,12.8h-2c0-3.9-2.7-7.3-6.4-8.2l0.5-1.9C20.2,3.8,23.5,7.9,23.5,12.8L23.5,12.8z"/>
	</g>
	<g>
		<path class="st0" d="M4.5,12.8h-2c0-4.7,3.1-8.8,7.7-10.1l0.5,1.9C7.1,5.6,4.5,9,4.5,12.8L4.5,12.8z"/>
	</g>
	<g>
		<g>
			<path class="st0" d="M6.8,17.6H0.4v-6.3h6.3V17.6L6.8,17.6z M2.4,15.6h2.3v-2.3H2.4V15.6L2.4,15.6z"/>
		</g>
		<g>
			<path class="st0" d="M25.6,17.6h-6.3v-6.3h6.3V17.6L25.6,17.6z M21.2,15.6h2.3v-2.3h-2.3V15.6L21.2,15.6z"/>
		</g>
	</g>
	<g>
		<path class="st0" d="M16.2,6.7H9.8V0.4h6.3V6.7L16.2,6.7z M11.8,4.7h2.3V2.4h-2.3V4.7L11.8,4.7z"/>
	</g>
	<g>
		<polygon class="st0" points="10.5,3.4 2.8,3.4 2.8,2.4 10.5,2.4 10.5,3.4 		"/>
	</g>
	<path class="st0" d="M2.5,1.8c-0.6,0-1.1,0.5-1.1,1.1C1.4,3.5,1.9,4,2.5,4c0.6,0,1.1-0.5,1.1-1.1C3.6,2.3,3.1,1.8,2.5,1.8L2.5,1.8z
		"/>
	<g>
		<polygon class="st0" points="23.5,3.4 15.8,3.4 15.8,2.4 23.5,2.4 23.5,3.4 		"/>
	</g>
	<path class="st0" d="M23.5,1.8c-0.6,0-1.1,0.5-1.1,1.1c0,0.6,0.5,1.1,1.1,1.1c0.6,0,1.1-0.5,1.1-1.1C24.6,2.3,24.1,1.8,23.5,1.8
		L23.5,1.8z"/>
</g>
</svg>
