<?xml version="1.0" encoding="utf-8"?>
<!-- Generator: Adobe Illustrator 21.0.0, SVG Export Plug-In . SVG Version: 6.00 Build 0)  -->
<svg version="1.1" id="Layer_3" xmlns="http://www.w3.org/2000/svg" xmlns:xlink="http://www.w3.org/1999/xlink" x="0px" y="0px"
	 viewBox="0 0 24 24" style="enable-background:new 0 0 24 24;" xml:space="preserve">
<style type="text/css">
	.st0{fill:none;}
</style>
<g>
	<path class="st0" d="M8.3,11.4c2.4,0,4.3-2.2,4.3-4.9c0-2.7-1.9-4.9-4.3-4.9C5.9,1.5,4,3.7,4,6.4C4,9.2,5.9,11.4,8.3,11.4z
		 M8.3,3.5c1.3,0,2.3,1.3,2.3,2.9c0,1.6-1,2.9-2.3,2.9S6,8,6,6.4C6,4.8,7,3.5,8.3,3.5z M13.1,13.3c-3.2-1.2-6.7-1.2-9.9,0
		c-1.6,0.6-2.7,2.4-2.6,4l0.3,4.2c0,0.5,0.5,0.9,1,0.9h12.7c0.5,0,0.9-0.4,1-0.9l0.3-4.2C15.9,15.7,14.7,13.9,13.1,13.3z M13.6,20.5
		H2.8l-0.2-3.3c0-0.7,0.5-1.7,1.3-2c2.8-1,5.8-1,8.6,0c0.8,0.3,1.4,1.3,1.3,2L13.6,20.5z M21,14.3c-1.3-0.5-2.7-0.7-4.1-0.8
		c-0.5,0-1,0.4-1,1c0,0.6,0.4,1,1,1c1.2,0,2.3,0.2,3.5,0.6c0.6,0.2,1.1,1.1,1.1,1.6l-0.2,2.7h-4.1c-0.5,0-1,0.5-1,1c0,0.6,0.4,1,1,1
		h5c0.5,0,0.9-0.4,1-0.9l0.2-3.6C23.5,16.4,22.5,14.8,21,14.3z M21.9,8.4c0-2.2-1.6-4.1-3.5-4.1c-2,0-3.6,1.8-3.6,4.1
		c0,2.2,1.6,4.1,3.6,4.1C20.3,12.4,21.9,10.6,21.9,8.4z M16.7,8.4c0-1.1,0.7-2,1.6-2c0.9,0,1.6,0.9,1.6,2c0,1.1-0.7,2-1.6,2
		C17.4,10.4,16.7,9.5,16.7,8.4z"/>
</g>
</svg>
