<?xml version="1.0" encoding="utf-8"?>
<!-- Generator: Adobe Illustrator 21.0.0, SVG Export Plug-In . SVG Version: 6.00 Build 0)  -->
<svg version="1.1" id="Layer_3" xmlns="http://www.w3.org/2000/svg" xmlns:xlink="http://www.w3.org/1999/xlink" x="0px" y="0px"
	 viewBox="0 0 24 24" style="enable-background:new 0 0 24 24;" xml:space="preserve">
<style type="text/css">
	.st0{fill:#9DD614;}
</style>
<g>
	<g>
		<g>
			<path class="st0" d="M12,13c-0.2,0-0.4-0.1-0.6-0.2L6,8.9c-0.4-0.3-0.5-1-0.2-1.4C6.1,7,6.8,6.9,7.2,7.2l4.8,3.5l4.8-3.5
				c0.4-0.3,1.1-0.2,1.4,0.2c0.3,0.4,0.2,1.1-0.2,1.4l-5.4,3.9C12.4,12.9,12.2,13,12,13L12,13z"/>
		</g>
		<g>
			<path class="st0" d="M12,13c-0.6,0-1-0.4-1-1V1.2c0-0.6,0.4-1,1-1c0.6,0,1,0.4,1,1V12C13,12.5,12.6,13,12,13L12,13z"/>
		</g>
	</g>
	<g>
		<path class="st0" d="M22.5,23.8h-21c-0.6,0-1-0.4-1-1v-7.1c0-0.6,0.4-1,1-1H8c0.6,0,1,0.4,1,1v1.4h6v-1.4c0-0.6,0.4-1,1-1h6.5
			c0.6,0,1,0.4,1,1v7.1C23.5,23.3,23.1,23.8,22.5,23.8L22.5,23.8z M2.5,21.8h19v-5.1H17v0.4c0,1.1-0.9,2-2,2H9c-1.1,0-2-0.9-2-2
			v-0.4H2.5V21.8L2.5,21.8z"/>
	</g>
	<g>
		<g>
			<g>
				<path class="st0" d="M1.5,16.7c-0.2,0-0.5-0.1-0.7-0.3c-0.4-0.4-0.4-1,0-1.4l4-4.2c0.4-0.4,1-0.4,1.4,0c0.4,0.4,0.4,1,0,1.4
					l-4,4.2C2,16.6,1.8,16.7,1.5,16.7L1.5,16.7z"/>
			</g>
		</g>
		<g>
			<g>
				<path class="st0" d="M22.5,16.7c-0.3,0-0.5-0.1-0.7-0.3l-4-4.2c-0.4-0.4-0.4-1,0-1.4c0.4-0.4,1-0.4,1.4,0l4,4.2
					c0.4,0.4,0.4,1,0,1.4C23,16.6,22.8,16.7,22.5,16.7L22.5,16.7z"/>
			</g>
		</g>
	</g>
</g>
</svg>
