<?xml version="1.0" encoding="utf-8"?>
<!-- Generator: Adobe Illustrator 18.0.0, SVG Export Plug-In . SVG Version: 6.00 Build 0)  -->
<!DOCTYPE svg PUBLIC "-//W3C//DTD SVG 1.1//EN" "http://www.w3.org/Graphics/SVG/1.1/DTD/svg11.dtd">
<svg version="1.1" id="Warstwa_1" xmlns="http://www.w3.org/2000/svg" xmlns:xlink="http://www.w3.org/1999/xlink" x="0px" y="0px"
	 viewBox="0 0 23 22" enable-background="new 0 0 23 22" xml:space="preserve">
<g>
	<path d="M20.6,21.5H2.4c-0.8,0-1.5-0.5-1.7-1.2c-0.1-0.2,0-0.4,0.1-0.6l7.1-6.3c0.2-0.2,0.5-0.2,0.7,0c0.2,0.2,0.2,0.5,0,0.7
		l-6.8,6.1c0.2,0.2,0.4,0.3,0.6,0.3h18.3c0.2,0,0.5-0.1,0.6-0.3l-6.9-6.1c-0.2-0.2-0.2-0.5,0-0.7c0.2-0.2,0.5-0.2,0.7,0l7.2,6.4
		c0.2,0.1,0.2,0.4,0.1,0.6C22.1,21,21.4,21.5,20.6,21.5"/>
	<path d="M14.5,4.6c-0.2,0-0.4-0.1-0.5-0.2l-2.5-2.5L9,4.3c-0.3,0.3-0.8,0.3-1.1,0C7.6,4,7.6,3.5,7.9,3.2l3-3c0.3-0.3,0.8-0.3,1.1,0
		l3,3c0.3,0.3,0.3,0.8,0,1.1C14.9,4.5,14.7,4.6,14.5,4.6"/>
	<path d="M11.5,12c-0.4,0-0.8-0.3-0.8-0.8V1.6c0-0.4,0.3-0.8,0.8-0.8c0.4,0,0.8,0.3,0.8,0.8v9.6C12.3,11.7,11.9,12,11.5,12"/>
	<path d="M20.6,22H2.4C1.1,22,0,20.9,0,19.6V7.7c0-1.3,1.1-2.4,2.4-2.4h6.4c0.6,0,1,0.4,1,1c0,0.6-0.4,1-1,1H2.4
		C2.2,7.4,2,7.5,2,7.7v11.9C2,19.8,2.2,20,2.4,20h18.3c0.2,0,0.4-0.2,0.4-0.4V7.7c0-0.2-0.2-0.4-0.4-0.4h-6.4c-0.6,0-1-0.4-1-1
		c0-0.6,0.5-1,1-1h6.4c1.3,0,2.4,1.1,2.4,2.4v11.9C23,20.9,21.9,22,20.6,22"/>
	<path d="M11.5,17c-0.1,0-0.2,0-0.3-0.1L0.8,7.6c-0.2-0.2-0.2-0.5,0-0.7c0.2-0.2,0.5-0.2,0.7,0l10.1,9l10.1-9c0.2-0.2,0.5-0.2,0.7,0
		c0.2,0.2,0.2,0.5,0,0.7l-10.4,9.2C11.7,17,11.6,17,11.5,17"/>
</g>
</svg>
