<?xml version="1.0" encoding="utf-8"?>
<!-- Generator: Adobe Illustrator 21.1.0, SVG Export Plug-In . SVG Version: 6.00 Build 0)  -->
<svg version="1.1" id="Layer_3" xmlns="http://www.w3.org/2000/svg" xmlns:xlink="http://www.w3.org/1999/xlink" x="0px" y="0px"
	 viewBox="0 0 23 22" style="enable-background:new 0 0 23 22;" xml:space="preserve">
<style type="text/css">
	.st0{fill:#9DD614;}
</style>
<g>
	<path class="st0" d="M9.1,4.3l1.6-1.5v8.4c0,0.5,0.4,0.8,0.8,0.8s0.8-0.3,0.8-0.8V2.7L14,4.4c0.1,0.1,0.3,0.2,0.5,0.2
		s0.4-0.1,0.5-0.2c0.3-0.3,0.3-0.8,0-1.1l-3-3C11.7,0,11.3,0,11,0.2l-3,3C7.7,3.5,7.7,4,8,4.3S8.7,4.6,9.1,4.3z"/>
	<path class="st0" d="M20.6,5.3h-6.4c-0.6,0-1,0.4-1,1c0,0.6,0.4,1,1,1h6.4c0.1,0,0.2,0.1,0.3,0.1l-6.6,5.8c0,0,0,0,0,0c0,0,0,0,0,0
		l-2.8,2.5L2.1,7.4c0.1-0.1,0.2-0.1,0.3-0.1h6.4c0.6,0,1-0.4,1-1c0-0.6-0.4-1-1-1H2.4C1.1,5.3,0,6.4,0,7.7v11.9
		C0,20.9,1.1,22,2.4,22h18.2c1.3,0,2.3-1.1,2.4-2.4V7.7C23,6.4,21.9,5.3,20.6,5.3z M2,8.7l5.6,5l-5.6,5V8.7z M15.4,13.7l5.6-5v10
		L15.4,13.7z M11.5,17c0.1,0,0.2-0.1,0.4-0.2l2.8-2.5l6.2,5.5c-0.1,0.1-0.2,0.2-0.3,0.2H2.4c-0.1,0-0.2-0.1-0.3-0.2l6.2-5.5l2.9,2.6
		C11.3,17,11.4,17,11.5,17z"/>
</g>
</svg>
