<?xml version="1.0" encoding="utf-8"?>
<!-- Generator: Adobe Illustrator 18.0.0, SVG Export Plug-In . SVG Version: 6.00 Build 0)  -->
<!DOCTYPE svg PUBLIC "-//W3C//DTD SVG 1.1//EN" "http://www.w3.org/Graphics/SVG/1.1/DTD/svg11.dtd">
<svg version="1.1" id="Warstwa_1" xmlns="http://www.w3.org/2000/svg" xmlns:xlink="http://www.w3.org/1999/xlink" x="0px" y="0px"
	 viewBox="0 0 23.6 23.6" enable-background="new 0 0 23.6 23.6" xml:space="preserve">
<g>
	<path d="M11.8,23.6c-3.1,0-6.1-1.2-8.3-3.5C1.2,17.9,0,14.9,0,11.8C0,5.3,5.3,0,11.8,0c6.5,0,11.8,5.3,11.8,11.8
		C23.6,18.3,18.3,23.6,11.8,23.6 M11.8,2C6.4,2,2,6.4,2,11.8c0,2.6,1,5.1,2.9,6.9c1.8,1.8,4.3,2.9,6.9,2.9c5.4,0,9.8-4.4,9.8-9.8
		C21.6,6.4,17.2,2,11.8,2"/>
	<path d="M19.4,20.4c-0.3,0-0.5-0.1-0.7-0.3L3.5,4.9c-0.4-0.4-0.4-1,0-1.4c0.4-0.4,1-0.4,1.4,0l15.2,15.2c0.4,0.4,0.4,1,0,1.4
		C19.9,20.3,19.6,20.4,19.4,20.4"/>
	<path d="M4.2,20.4c-0.3,0-0.5-0.1-0.7-0.3c-0.4-0.4-0.4-1,0-1.4L18.7,3.5c0.4-0.4,1-0.4,1.4,0c0.4,0.4,0.4,1,0,1.4L4.9,20.1
		C4.7,20.3,4.4,20.4,4.2,20.4"/>
</g>
</svg>
