<?xml version="1.0" encoding="utf-8"?>
<!-- Generator: Adobe Illustrator 21.0.0, SVG Export Plug-In . SVG Version: 6.00 Build 0)  -->
<svg version="1.1" id="Layer_3" xmlns="http://www.w3.org/2000/svg" xmlns:xlink="http://www.w3.org/1999/xlink" x="0px" y="0px"
	 viewBox="0 0 24 24" style="enable-background:new 0 0 24 24;" xml:space="preserve">
<style type="text/css">
	.st0{fill:#FFFFFF;}
</style>
<g>
	<g>
		<path class="st0" d="M12,23.8c-3.1,0-6.1-1.2-8.3-3.5c-2.2-2.2-3.5-5.2-3.4-8.3C0.2,5.5,5.5,0.2,12,0.2c6.5,0,11.8,5.3,11.8,11.8
			C23.8,18.5,18.5,23.8,12,23.8L12,23.8z M12,2.2c-5.4,0-9.8,4.4-9.8,9.8c0,2.6,1,5.1,2.9,6.9c1.8,1.8,4.3,2.9,6.9,2.9
			c5.4,0,9.8-4.4,9.8-9.8C21.8,6.6,17.4,2.2,12,2.2L12,2.2z"/>
	</g>
	<g>
		<path class="st0" d="M19.6,20.6c-0.3,0-0.5-0.1-0.7-0.3L3.7,5.1c-0.4-0.4-0.4-1,0-1.4c0.4-0.4,1-0.4,1.4,0l15.2,15.2
			c0.4,0.4,0.4,1,0,1.4C20.1,20.5,19.9,20.6,19.6,20.6L19.6,20.6z"/>
	</g>
	<g>
		<path class="st0" d="M4.4,20.6c-0.3,0-0.5-0.1-0.7-0.3c-0.4-0.4-0.4-1,0-1.4L18.9,3.7c0.4-0.4,1-0.4,1.4,0c0.4,0.4,0.4,1,0,1.4
			L5.1,20.3C4.9,20.5,4.7,20.6,4.4,20.6L4.4,20.6z"/>
	</g>
</g>
</svg>
