<?xml version="1.0" encoding="utf-8"?>
<!-- Generator: Adobe Illustrator 21.0.0, SVG Export Plug-In . SVG Version: 6.00 Build 0)  -->
<svg version="1.1" id="Layer_3" xmlns="http://www.w3.org/2000/svg" xmlns:xlink="http://www.w3.org/1999/xlink" x="0px" y="0px"
	 viewBox="0 0 25 26" style="enable-background:new 0 0 25 26;" xml:space="preserve">
<style type="text/css">
	.st0{fill:#FFFFFF;}
</style>
<g>
	<circle class="st0" cx="7.1" cy="13.6" r="0.9"/>
	<g>
		<path class="st0" d="M17.3,12c-0.2,0-0.3,0-0.5-0.1c-1.6-0.9-3.7-1.3-5.7-1.1c-0.5,0.1-1-0.3-1-0.9c0-0.5,0.3-1,0.9-1
			c2.4-0.2,4.8,0.3,6.8,1.4c0.5,0.3,0.6,0.8,0.4,1.3C18,11.8,17.6,12,17.3,12L17.3,12z"/>
	</g>
	<g>
		<path class="st0" d="M14.9,11c-3,0-5.5-2.4-5.5-5.5c0-3,2.4-5.5,5.5-5.5s5.5,2.4,5.5,5.5C20.4,8.5,17.9,11,14.9,11L14.9,11z
			 M14.9,2.1c-1.9,0-3.5,1.6-3.5,3.5S13,9,14.9,9s3.5-1.6,3.5-3.5S16.8,2.1,14.9,2.1L14.9,2.1z"/>
	</g>
	<g>
		<path class="st0" d="M14.9,8.1c-1.4,0-2.6-1.2-2.6-2.6s1.2-2.6,2.6-2.6s2.6,1.2,2.6,2.6S16.4,8.1,14.9,8.1L14.9,8.1z M14.9,3.9
			c-0.9,0-1.6,0.7-1.6,1.6s0.7,1.6,1.6,1.6c0.9,0,1.6-0.7,1.6-1.6S15.8,3.9,14.9,3.9L14.9,3.9z"/>
	</g>
	<g>
		<path class="st0" d="M18.2,25.9h-1.5c-1.1,0-2-0.8-2.2-1.8c-1.2,0.2-2.5,0.2-3.8,0.1c-0.2,1-1.1,1.7-2.2,1.7H7.1
			c-1.2,0-2.2-1-2.2-2.2v-2c-1-0.9-1.8-1.9-2.3-3.1c-1.2,0-2.1-1-2.1-2.2v-1.5c0-1.2,1-2.2,2.1-2.2c0.5-1.1,1.3-2.2,2.3-3.1V8.1
			c0-0.4,0.2-0.7,0.5-0.8c1.1-0.6,2.4-0.4,3.4,0.3c0.8-0.2,1.6-0.4,2.4-0.5L11.4,9c-0.9,0.1-1.7,0.3-2.5,0.6C8.4,9.7,8,9.6,7.7,9.3
			C7.5,9,7.1,8.8,6.8,8.8v1.3c0,0.3-0.1,0.6-0.4,0.8c-1.1,0.9-1.9,1.9-2.3,3.1c-0.1,0.4-0.5,0.6-0.9,0.6H2.6c-0.2,0-0.3,0.1-0.3,0.3
			v1.5c0,0.2,0.1,0.3,0.3,0.3h0.6c0.4,0,0.8,0.3,0.9,0.6c0.4,1.2,1.2,2.2,2.3,3.1c0.2,0.2,0.4,0.5,0.4,0.8v2.4
			c0,0.2,0.1,0.3,0.3,0.3h1.5c0.2,0,0.3-0.1,0.3-0.3V23c0-0.3,0.1-0.6,0.4-0.7c0.2-0.2,0.5-0.2,0.8-0.2c1.7,0.4,3.5,0.3,5.1-0.1
			c0.3-0.1,0.6,0,0.8,0.2c0.2,0.2,0.4,0.5,0.4,0.8v0.7c0,0.2,0.1,0.3,0.3,0.3h1.5c0.2,0,0.3-0.1,0.3-0.3v-2.8c0-0.3,0.1-0.5,0.3-0.7
			c1.4-1.2,2.2-2.8,2.2-4.5c0-0.2,0.1-0.4,0.2-0.6c-0.2-0.1-0.3-0.3-0.3-0.5c-0.4-1.9-1.8-3.5-3.9-4.5l0.8-1.7
			c1.8,0.9,3.3,2.3,4.2,3.8c0-0.4,0.2-0.7,0.5-0.9c0.4-0.2,0.8-0.1,1.1,0.2c0.6,0.6,0.9,1.3,0.9,2.2c0,1.1-0.6,2.2-1.6,2.7
			c-0.2,1.9-1,3.7-2.5,5.1v2.4C20.5,24.9,19.5,25.9,18.2,25.9L18.2,25.9z"/>
	</g>
</g>
</svg>
