<?xml version="1.0" encoding="utf-8"?>
<!-- Generator: Adobe Illustrator 21.0.0, SVG Export Plug-In . SVG Version: 6.00 Build 0)  -->
<svg version="1.1" id="Layer_3" xmlns="http://www.w3.org/2000/svg" xmlns:xlink="http://www.w3.org/1999/xlink" x="0px" y="0px"
	 viewBox="0 0 23 22" style="enable-background:new 0 0 23 22;" xml:space="preserve">
<style type="text/css">
	.st0{fill:#9DD614;}
</style>
<g>
	<g>
		<path class="st0" d="M20.6,21.5H2.4c-0.8,0-1.5-0.5-1.7-1.2c-0.1-0.2,0-0.4,0.1-0.6l7.1-6.3c0.2-0.2,0.5-0.2,0.7,0
			c0.2,0.2,0.2,0.5,0,0.7l-6.8,6c0.2,0.2,0.4,0.3,0.6,0.3h18.2c0.2,0,0.5-0.1,0.6-0.3L14.3,14c-0.2-0.2-0.2-0.5,0-0.7s0.5-0.2,0.7,0
			l7.2,6.4c0.2,0.1,0.2,0.4,0.1,0.5C22,21,21.3,21.5,20.6,21.5L20.6,21.5z"/>
	</g>
	<g>
		<g>
			<path class="st0" d="M14.5,4.6c-0.2,0-0.4-0.1-0.5-0.2L11.6,2L9.1,4.3C8.7,4.6,8.3,4.6,8,4.3C7.7,4,7.7,3.5,8,3.2l3-3
				C11.3,0,11.7,0,12,0.3l3,3c0.3,0.3,0.3,0.8,0,1.1C14.9,4.5,14.7,4.6,14.5,4.6L14.5,4.6z"/>
		</g>
		<g>
			<path class="st0" d="M11.5,12c-0.4,0-0.8-0.3-0.8-0.8V1.6c0-0.4,0.3-0.8,0.8-0.8c0.4,0,0.8,0.3,0.8,0.8v9.6
				C12.3,11.7,11.9,12,11.5,12L11.5,12z"/>
		</g>
	</g>
	<g>
		<path class="st0" d="M20.6,22H2.4C1.1,22,0,20.9,0,19.6V7.7c0-1.3,1.1-2.4,2.4-2.4h6.4c0.6,0,1,0.4,1,1s-0.4,1-1,1H2.4
			C2.2,7.3,2,7.5,2,7.7v11.9C2,19.8,2.2,20,2.4,20h18.2c0.2,0,0.4-0.2,0.4-0.4V7.7c0-0.2-0.2-0.4-0.4-0.4h-6.4c-0.6,0-1-0.4-1-1
			s0.4-1,1-1h6.4c1.3,0,2.4,1.1,2.4,2.4v11.9C22.9,20.9,21.9,22,20.6,22L20.6,22z"/>
	</g>
	<g>
		<path class="st0" d="M11.5,17c-0.1,0-0.2,0-0.3-0.1L0.8,7.6c-0.2-0.2-0.2-0.5,0-0.7s0.5-0.2,0.7,0l10,8.9l10-8.9
			c0.2-0.2,0.5-0.2,0.7,0s0.2,0.5,0,0.7l-10.3,9.2C11.7,16.9,11.6,17,11.5,17L11.5,17z"/>
	</g>
</g>
</svg>
