<?xml version="1.0" encoding="utf-8"?>
<!-- Generator: Adobe Illustrator 21.0.0, SVG Export Plug-In . SVG Version: 6.00 Build 0)  -->
<svg version="1.1" id="Layer_1" xmlns="http://www.w3.org/2000/svg" xmlns:xlink="http://www.w3.org/1999/xlink" x="0px" y="0px"
	 viewBox="0 0 25 25" style="enable-background:new 0 0 25 25;" xml:space="preserve">
<style type="text/css">
	.st0{fill:#9DD614;}
</style>
<g>
	<g>
		<path class="st0" d="M12.7,23.3c-0.2,0-0.4,0-0.5-0.1c0,0-0.1-0.1-0.1-0.1l-0.3-0.2c-0.8-0.5-2.6-1.8-3.8-2.8
			c-4.7-3.6-7.1-6.3-7.5-8.2C0.1,11.2,0,10.4,0,9.6c0-2.2,0.8-4.3,2.2-5.7c1.3-1.3,3.1-2.1,4.9-2.1h0c2.1,0,3.9,0.8,5.3,2.3
			c1.3-1.5,3.2-2.4,5.2-2.4l0.1,0c3.9,0,7.1,3.4,7.2,7.6c0,0.8-0.1,1.6-0.3,2.4c-0.4,1.9-2.8,4.7-7.3,8.4c-1.7,1.4-3.1,2.5-4.2,3.1
			C13.1,23.3,12.9,23.3,12.7,23.3L12.7,23.3z M7.2,3.9c-1.3,0-2.5,0.5-3.5,1.5C2.7,6.4,2.1,8,2.1,9.6c0,0.6,0.1,1.2,0.3,1.7
			c0.2,0.9,1.3,2.9,6.8,7.1c1.1,0.8,2.7,1.9,3.5,2.5c0.9-0.6,2.1-1.5,3.4-2.6c5.3-4.3,6.4-6.4,6.5-7.2c0.2-0.6,0.3-1.2,0.3-1.8
			c0-3.1-2.3-5.6-5.1-5.6c0,0-0.1,0-0.1,0c-1.8,0-3.4,1-4.3,2.6c-0.2,0.3-0.5,0.5-0.9,0.5c-0.4,0-0.7-0.2-0.9-0.5
			C10.6,4.8,9,3.9,7.2,3.9L7.2,3.9z"/>
	</g>
	<g>
		<path class="st0" d="M20.6,11.3c0,0-0.1,0-0.1,0c-0.3-0.1-0.5-0.3-0.4-0.6l0.1-0.3c0.1-0.3,0.1-0.6,0.1-1c0-1.7-1.1-2.9-2.5-2.9
			c-0.3,0-0.5-0.2-0.5-0.5c0-0.3,0.2-0.5,0.5-0.5c2,0,3.5,1.8,3.6,4c0,0.4-0.1,0.9-0.2,1.3l-0.1,0.2C21,11.1,20.8,11.3,20.6,11.3
			L20.6,11.3z"/>
	</g>
</g>
</svg>
