<?xml version="1.0" encoding="utf-8"?>
<!-- Generator: Adobe Illustrator 21.0.0, SVG Export Plug-In . SVG Version: 6.00 Build 0)  -->
<svg version="1.1" id="Layer_3" xmlns="http://www.w3.org/2000/svg" xmlns:xlink="http://www.w3.org/1999/xlink" x="0px" y="0px"
	 viewBox="0 0 23 24" style="enable-background:new 0 0 23 24;" xml:space="preserve">
<style type="text/css">
	.st0{fill:#9DD614;}
</style>
<g>
	<g>
		<path class="st0" d="M10,20.3c-5.5,0-10-4.5-10-10c0-5.5,4.5-10,10-10c5.5,0,10,4.5,10,10C20,15.8,15.5,20.3,10,20.3L10,20.3z
			 M10,2.4c-4.4,0-8,3.6-8,8c0,4.4,3.6,8,8,8c4.4,0,8-3.6,8-8C18,6,14.4,2.4,10,2.4L10,2.4z"/>
	</g>
	<g>
		<path class="st0" d="M21.9,23.6c-0.3,0-0.5-0.1-0.7-0.3l-5.6-5.6c-0.4-0.4-0.4-1,0-1.4c0.4-0.4,1-0.4,1.4,0l5.6,5.6
			c0.4,0.4,0.4,1,0,1.4C22.4,23.5,22.2,23.6,21.9,23.6L21.9,23.6z"/>
	</g>
	<g>
		<path class="st0" d="M14,11.2H6.1c-0.6,0-1-0.4-1-1c0-0.6,0.4-1,1-1H14c0.6,0,1,0.4,1,1C15,10.8,14.5,11.2,14,11.2L14,11.2z"/>
	</g>
</g>
</svg>
