<?xml version="1.0" encoding="utf-8"?>
<!-- Generator: Adobe Illustrator 18.0.0, SVG Export Plug-In . SVG Version: 6.00 Build 0)  -->
<!DOCTYPE svg PUBLIC "-//W3C//DTD SVG 1.1//EN" "http://www.w3.org/Graphics/SVG/1.1/DTD/svg11.dtd">
<svg version="1.1" id="Warstwa_1" xmlns="http://www.w3.org/2000/svg" xmlns:xlink="http://www.w3.org/1999/xlink" x="0px" y="0px"
	 viewBox="0 0 106 64" enable-background="new 0 0 106 64" xml:space="preserve">
<g>
	<g>
		<polygon fill="#9FCC3B" points="19.3,0 14.9,0 4.7,0 0.3,0 0.3,4.4 0.3,46.6 4.7,46.6 4.7,4.4 14.9,4.4 14.9,46.6 19.3,46.6 
			19.3,4.4 29.5,4.4 29.5,46.6 33.9,46.6 33.9,4.4 33.9,0 29.5,0 		"/>
		<polygon fill="#9FCC3B" points="63.7,0 59.3,0 59.3,4.4 59.3,46.6 63.7,46.6 63.7,4.4 74.2,4.4 74.2,46.6 78.5,46.6 78.5,4.4 
			78.5,0 74.2,0 		"/>
		<polygon fill="#9FCC3B" points="106,0 93.3,0 88.9,0 88.9,4.4 88.9,46.6 93.3,46.6 93.3,4.4 106,4.4 		"/>
		<rect x="44.5" fill="#9FCC3B" width="4.4" height="46.6"/>
	</g>
	<g>
		<path fill="#9FCC3B" d="M0,55.4h1.5l2.2,6.4l2.2-6.4h1.5V63h-1v-4.5c0-0.2,0-0.4,0-0.8c0-0.4,0-0.7,0-1.1L4.1,63h-1l-2.2-6.4v0.2
			c0,0.2,0,0.5,0,0.8c0,0.4,0,0.7,0,0.8V63H0V55.4z"/>
		<path fill="#9FCC3B" d="M10.6,55.4h1V63h-1V55.4z"/>
		<path fill="#9FCC3B" d="M14.9,55.4h1.2l3.8,6.1v-6.1h1V63h-1.2l-3.8-6.1V63h-1V55.4z"/>
		<path fill="#9FCC3B" d="M29.6,55.4v0.9h-2.6V63h-1v-6.7h-2.5v-0.9H29.6z"/>
		<path fill="#010101" d="M36.6,55.4H40c0.7,0,1.2,0.2,1.6,0.6c0.4,0.4,0.6,0.9,0.6,1.6c0,0.6-0.2,1.1-0.6,1.5s-0.9,0.7-1.7,0.7
			h-2.4V63h-1V55.4z M40.5,56.4c-0.2-0.1-0.5-0.2-0.9-0.2h-2v2.6h2c0.5,0,0.8-0.1,1.1-0.3s0.4-0.5,0.4-1C41.2,57,41,56.6,40.5,56.4z
			"/>
		<path fill="#010101" d="M45.2,55.4h3.4c0.6,0,1,0.1,1.4,0.3c0.7,0.3,1,0.9,1,1.8c0,0.5-0.1,0.8-0.3,1.1c-0.2,0.3-0.4,0.5-0.8,0.7
			c0.3,0.1,0.5,0.3,0.7,0.5c0.1,0.2,0.2,0.5,0.2,1l0,1c0,0.3,0,0.5,0.1,0.6c0.1,0.2,0.2,0.4,0.3,0.5V63h-1.3c0-0.1-0.1-0.1-0.1-0.3
			c0-0.1,0-0.3-0.1-0.6l-0.1-1.3c0-0.5-0.2-0.8-0.5-1c-0.2-0.1-0.5-0.1-0.9-0.1h-2.3V63h-1V55.4z M48.5,58.9c0.5,0,0.8-0.1,1.1-0.3
			c0.3-0.2,0.4-0.5,0.4-1c0-0.5-0.2-0.9-0.6-1.1c-0.2-0.1-0.5-0.2-0.8-0.2h-2.4v2.6H48.5z"/>
		<path fill="#010101" d="M60.5,56.5c0.5,0.7,0.8,1.5,0.8,2.6c0,1.1-0.3,2.1-0.9,2.8c-0.7,0.9-1.6,1.3-2.9,1.3
			c-1.2,0-2.1-0.4-2.7-1.2c-0.6-0.7-0.9-1.7-0.9-2.8c0-1,0.3-1.9,0.8-2.6c0.7-0.9,1.6-1.4,2.9-1.4C58.9,55.2,59.9,55.6,60.5,56.5z
			 M59.6,61.3c0.4-0.6,0.6-1.4,0.6-2.2c0-0.9-0.2-1.6-0.7-2.2c-0.5-0.5-1.1-0.8-1.9-0.8c-0.8,0-1.4,0.3-1.9,0.8
			c-0.5,0.5-0.7,1.3-0.7,2.4c0,0.8,0.2,1.5,0.6,2.1c0.4,0.6,1.1,0.9,2.1,0.9C58.6,62.3,59.2,61.9,59.6,61.3z"/>
		<path fill="#010101" d="M64.2,55.4h3.4c0.7,0,1.2,0.2,1.6,0.6c0.4,0.4,0.6,0.9,0.6,1.6c0,0.6-0.2,1.1-0.6,1.5
			c-0.4,0.4-0.9,0.7-1.7,0.7h-2.4V63h-1V55.4z M68.2,56.4c-0.2-0.1-0.5-0.2-0.9-0.2h-2v2.6h2c0.5,0,0.8-0.1,1.1-0.3
			c0.3-0.2,0.4-0.5,0.4-1C68.8,57,68.6,56.6,68.2,56.4z"/>
		<path fill="#010101" d="M72.8,55.4h5.5v0.9h-4.5v2.3H78v0.9h-4.2v2.6h4.6V63h-5.6V55.4z"/>
		<path fill="#010101" d="M81.4,55.4h3.4c0.6,0,1,0.1,1.4,0.3c0.7,0.3,1,0.9,1,1.8c0,0.5-0.1,0.8-0.3,1.1c-0.2,0.3-0.4,0.5-0.8,0.7
			c0.3,0.1,0.5,0.3,0.7,0.5s0.2,0.5,0.2,1l0,1c0,0.3,0,0.5,0.1,0.6c0.1,0.2,0.2,0.4,0.3,0.5V63h-1.3c0-0.1-0.1-0.1-0.1-0.3
			c0-0.1,0-0.3-0.1-0.6l-0.1-1.3c0-0.5-0.2-0.8-0.5-1c-0.2-0.1-0.5-0.1-0.9-0.1h-2.3V63h-1V55.4z M84.8,58.9c0.5,0,0.8-0.1,1.1-0.3
			c0.3-0.2,0.4-0.5,0.4-1c0-0.5-0.2-0.9-0.6-1.1c-0.2-0.1-0.5-0.2-0.8-0.2h-2.4v2.6H84.8z"/>
		<path fill="#010101" d="M95.8,55.4v0.9h-2.5V63h-1v-6.7h-2.5v-0.9H95.8z"/>
		<path fill="#010101" d="M97.8,55.4H99l2.2,3.6l2.2-3.6h1.2l-2.9,4.5v3h-1v-3L97.8,55.4z"/>
	</g>
</g>
</svg>
