<svg id="Layer_1" xmlns="http://www.w3.org/2000/svg" viewBox="0 0 38 12"><style>.st0{fill:#676767}</style><path class="st0" d="M20.8.3L25 6l-4.1 5.6H24l2.5-3.5 2.5 3.5h3.2L24 .3h-3.2zm14 0l-2.5 3.5L29.8.3h-3.2l8.3 11.3H38L33.9 6 38 .3h-3.2zM8.7 4.2C8.7 2.4 7.5.9 5.9.3 5.5.2 5 .1 4.5.1H0v11.6h2.6V8.4h1.9L7 11.7h3.2L7.1 7.4c1-.8 1.6-1.9 1.6-3.2zM5 5.7c-.2.1-.4.1-.6.1H2.6V2.6h1.8c.9 0 1.7.7 1.7 1.6 0 .7-.4 1.3-1.1 1.5zM17.5.3c-.6-.2-1.2-.3-1.8-.3-.6 0-1.2.1-1.8.3-2.5.7-4.3 3-4.3 5.7s1.8 4.9 4.3 5.7c.6.2 1.2.3 1.8.3.6 0 1.2-.1 1.8-.3 2.5-.7 4.3-3 4.3-5.7.1-2.7-1.8-4.9-4.3-5.7zm-1.8 9.1c-1.9 0-3.5-1.5-3.5-3.4s1.6-3.4 3.5-3.4 3.5 1.5 3.5 3.4-1.6 3.4-3.5 3.4z"/></svg>