<?xml version="1.0" encoding="utf-8"?>
<!-- Generator: Adobe Illustrator 21.0.0, SVG Export Plug-In . SVG Version: 6.00 Build 0)  -->
<svg version="1.1" id="Layer_3" xmlns="http://www.w3.org/2000/svg" xmlns:xlink="http://www.w3.org/1999/xlink" x="0px" y="0px"
	 viewBox="0 0 26 21" style="enable-background:new 0 0 26 21;" xml:space="preserve">
<style type="text/css">
	.st0{fill:#9DD614;}
</style>
<g>
	<g>
		<path class="st0" d="M19.4,21c-3.4,0-6.2-2.8-6.2-6.2s2.8-6.2,6.2-6.2s6.2,2.8,6.2,6.2C25.7,18.2,22.9,21,19.4,21L19.4,21z
			 M19.4,9.5c-2.9,0-5.2,2.3-5.2,5.2s2.3,5.2,5.2,5.2s5.2-2.3,5.2-5.2S22.3,9.5,19.4,9.5L19.4,9.5z"/>
	</g>
	<g>
		<path class="st0" d="M12.3,20.5c-0.2,0-0.3,0-0.5-0.1l-0.1-0.1l-0.3-0.2c-0.7-0.5-2.5-1.7-3.6-2.6c-4.4-3.4-6.7-5.9-7.1-7.8
			C0.5,9.1,0.4,8.3,0.3,7.6c0-2,0.7-4,2.1-5.4c1.3-1.3,2.9-2,4.6-2c1.9,0,3.7,0.8,5,2.2c1.3-1.4,3-2.3,5-2.3c1.8,0,3.4,0.6,4.7,1.9
			C23.1,3.3,24,5.2,24,7.3c0,0.8-0.1,1.5-0.3,2.2c0,0.2-0.1,0.5-0.3,0.8l-1.8-0.8c0.1-0.2,0.1-0.4,0.2-0.5C21.9,8.4,22,7.9,22,7.3
			c0-1.5-0.6-3-1.6-3.9c-0.9-0.9-2-1.3-3.2-1.3c-1.7,0-3.2,0.9-4.1,2.5c-0.3,0.2-0.6,0.4-1,0.4s-0.7-0.2-0.9-0.5
			c-0.8-1.5-2.4-2.3-4-2.3c0,0,0,0-0.1,0c-1.2,0-2.3,0.5-3.2,1.4c-1,1-1.6,2.5-1.5,4c0,0.6,0.1,1.1,0.3,1.6C2.8,10,3.9,11.9,9,15.9
			c1,0.8,2.5,1.8,3.3,2.4c0.5-0.3,1-0.8,1.7-1.3l1.2,1.6c-1,0.8-1.8,1.3-2.4,1.7C12.7,20.5,12.5,20.5,12.3,20.5L12.3,20.5z"/>
	</g>
	<g>
		<path class="st0" d="M19.4,18.5c-0.6,0-1-0.4-1-1V12c0-0.6,0.4-1,1-1s1,0.4,1,1v5.5C20.4,18.1,20,18.5,19.4,18.5L19.4,18.5z"/>
	</g>
	<g>
		<path class="st0" d="M22.2,15.8h-5.5c-0.6,0-1-0.4-1-1s0.4-1,1-1h5.5c0.6,0,1,0.4,1,1C23.2,15.3,22.8,15.8,22.2,15.8L22.2,15.8z"
			/>
	</g>
</g>
</svg>
