<svg id="Layer_3" xmlns="http://www.w3.org/2000/svg" viewBox="0 0 26 22"><style>.st0{fill:#282828}</style><path class="st0" d="M16.7 10.8c-.3 0-.6-.1-.9-.2-2.1-.7-3.5-3.2-3.3-5.7.2-2.6 2.4-4.8 4.8-4.8 1.1 0 2 .4 2.7 1.3.9 1.1 1.3 2.9.9 4.8-.6 2.7-2.3 4.6-4.2 4.6zm.7-8.8c-1.5 0-2.9 1.5-3 3.1s.8 3.4 2 3.8c.1 0 .2.1.3.1.8 0 1.9-1.1 2.3-3.2.3-1.3.1-2.5-.5-3.2-.3-.4-.7-.6-1.1-.6z"/><path class="st0" d="M20.8 16.4c-.7 0-1.3-.2-1.9-.5-1.8-1.2-2.2-3.5-.8-5.7 1.1-1.8 3-3 4.7-3 .5 0 .9.1 1.3.3.7.3 1.2 1 1.5 1.9.4 1.4.1 3.2-.9 4.6-1 1.5-2.4 2.4-3.9 2.4zM22.7 9c-1 0-2.3.9-3.1 2.1-.8 1.3-.7 2.5.2 3.1.9.6 2.3 0 3.2-1.3.6-1 .9-2.3.6-3.1-.1-.3-.3-.6-.5-.7 0 0-.2-.1-.4-.1zM9.3 10.8c-1.9 0-3.6-1.9-4.2-4.7-.3-1.8 0-3.6.9-4.8C6.7.5 7.6 0 8.6 0c2.5 0 4.7 2.2 4.9 4.8.2 2.5-1.2 5-3.3 5.7-.3.2-.6.3-.9.3zM8.7 2c-.5 0-.9.2-1.2.5-.6.7-.8 2-.5 3.2.4 2.1 1.5 3.2 2.3 3.2.1 0 .2 0 .3-.1 1.2-.4 2.2-2.2 2-3.8-.1-1.6-1.5-3-2.9-3z"/><path class="st0" d="M5.2 16.4c-1.5 0-2.9-.9-3.9-2.4C.4 12.5 0 10.7.4 9.4c.3-1 .8-1.6 1.6-2 .4-.2.8-.3 1.3-.3 1.7 0 3.6 1.2 4.7 3 1.3 2.2 1 4.5-.8 5.7-.7.4-1.3.6-2 .6zM3.3 9c-.2 0-.4 0-.5.1-.2.2-.4.4-.5.7-.2.9 0 2.1.6 3.1.8 1.3 2.2 1.9 3.2 1.3.9-.6 1-1.8.2-3.1-.7-1.1-2-2.1-3-2.1z"/><path class="st0" d="M13 21.9h-1.4c-3.9-.1-6-.2-6.8-1.5-.2-.4-.4-1-.1-1.9 1-2.6 5-7.6 8.2-7.4 3.2-.2 7.2 4.8 8.2 7.4.4.8.2 1.5-.1 1.8-.8 1.3-2.9 1.3-6.8 1.5l-1.2.1zm-6.5-2.5c.5.4 3.1.5 5.2.6h2.6c2.1-.1 4.7-.2 5.2-.6 0 0 0-.1-.1-.1-.9-2.4-4.4-6.4-6.4-6.2h-.2c-2-.1-5.5 3.8-6.4 6.2.1 0 .1.1.1.1z"/></svg>