<svg id="Layer_3" xmlns="http://www.w3.org/2000/svg" viewBox="0 0 27 23"><style>.st0{fill:#282828}</style><path class="st0" d="M4.9 19.9c-.6 0-1-.4-1-1V9.4c0-.6.4-1 1-1s1 .4 1 1v9.5c0 .5-.4 1-1 1zm17.2 0c-.6 0-1-.4-1-1V9.4c0-.6.4-1 1-1s1 .4 1 1v9.5c0 .5-.5 1-1 1zm-12.9 0c-.6 0-1-.4-1-1V9.4c0-.6.4-1 1-1s1 .4 1 1v9.5c0 .5-.4 1-1 1zm4.3 0c-.6 0-1-.4-1-1V9.4c0-.6.4-1 1-1s1 .4 1 1v9.5c0 .5-.4 1-1 1zm4.3 0c-.6 0-1-.4-1-1V9.4c0-.6.4-1 1-1s1 .4 1 1v9.5c0 .5-.4 1-1 1z"/><path class="st0" d="M25.7 10.4H1.3c-.6 0-1-.4-1-1s.4-1 1-1h24.4c.6 0 1 .4 1 1 0 .5-.4 1-1 1z"/><path class="st0" d="M9.7.8v7.9c0 .3-.2.5-.5.5s-.5-.2-.5-.5V.8c0-.3.2-.5.5-.5s.5.2.5.5zm8.6 0v7.9c0 .3-.2.5-.5.5s-.5-.2-.5-.5V.8c0-.3.2-.5.5-.5s.5.2.5.5zm7.4 19.1H1.3c-.6 0-1-.4-1-1s.4-1 1-1h24.4c.6 0 1 .4 1 1 0 .5-.4 1-1 1zm0 2.8H1.3c-.6 0-1-.4-1-1s.4-1 1-1h24.4c.6 0 1 .4 1 1s-.5 1-1 1z"/></svg>