<?xml version="1.0" encoding="utf-8"?>
<!-- Generator: Adobe Illustrator 21.0.0, SVG Export Plug-In . SVG Version: 6.00 Build 0)  -->
<svg version="1.1" id="Layer_3" xmlns="http://www.w3.org/2000/svg" xmlns:xlink="http://www.w3.org/1999/xlink" x="0px" y="0px"
	 viewBox="0 0 24 24" style="enable-background:new 0 0 24 24;" xml:space="preserve">
<style type="text/css">
	.st0{fill:#282828;}
</style>
<g>
	<g>
		<path class="st0" d="M22.7,0.3c-0.6,0-1,0.4-1,1v20.5h-2.9v2h3.9c0.6,0,1-0.4,1-1V1.3C23.7,0.7,23.3,0.3,22.7,0.3z"/>
	</g>
	<g>
		<path class="st0" d="M23.7,1.3L23.7,1.3c0-0.6-0.5-1-1-1H6.3c-0.6,0-1,0.5-1,1v0c0,0.6,0.5,1,1,1h16.4C23.3,2.3,23.7,1.8,23.7,1.3
			z"/>
	</g>
	<g>
		<path class="st0" d="M8.2,20.4c-0.5,0-0.9-0.4-0.9-0.9v-3.1H4.2c-0.5,0-0.9-0.4-0.9-0.9c0-0.5,0.4-0.9,0.9-0.9h4.9v4.9
			C9.1,20,8.7,20.4,8.2,20.4z"/>
	</g>
	<path class="st0" d="M9.1,18.6V6H18v17.8h1.8V4.2H7.3v14.4c0,0.5,0.4,0.9,0.9,0.9S9.1,19.1,9.1,18.6z"/>
	<path class="st0" d="M8.2,18.6c-0.5,0-0.9,0.4-0.9,0.9s0.4,0.9,0.9,0.9h3.1v1.9v1.3v0.2h0h1.7h0v-0.2v-1.3v-3.7H8.2z"/>
	<path class="st0" d="M0.3,10.6v1.8h3v3.1c0,0.5,0.4,0.9,0.9,0.9s0.9-0.4,0.9-0.9v-4.9H0.3z"/>
	<circle class="st0" cx="11.3" cy="13.5" r="1.1"/>
</g>
</svg>
