<?xml version="1.0" encoding="utf-8"?>
<!-- Generator: Adobe Illustrator 21.0.0, SVG Export Plug-In . SVG Version: 6.00 Build 0)  -->
<svg version="1.1" id="Layer_3" xmlns="http://www.w3.org/2000/svg" xmlns:xlink="http://www.w3.org/1999/xlink" x="0px" y="0px"
	 viewBox="0 0 16 24" style="enable-background:new 0 0 16 24;" xml:space="preserve">
<style type="text/css">
	.st0{fill:#9DD614;}
</style>
<g>
	<g>
		<path class="st0" d="M15,24H1c-0.6,0-1-0.4-1-1V1c0-0.6,0.4-1,1-1h14c0.6,0,1,0.4,1,1v22C16,23.6,15.6,24,15,24L15,24z M2,22h12V2
			H2V22L2,22z"/>
	</g>
	<g>
		<path class="st0" d="M13,17.5H3c-0.3,0-0.5-0.2-0.5-0.5V4.3c0-0.3,0.2-0.5,0.5-0.5h10c0.3,0,0.5,0.2,0.5,0.5V17
			C13.5,17.3,13.3,17.5,13,17.5L13,17.5z M3.5,16.5h9V4.8h-9V16.5L3.5,16.5z"/>
	</g>
	<circle class="st0" cx="8" cy="19.7" r="1.2"/>
</g>
</svg>
