<?xml version="1.0" encoding="utf-8"?>
<!-- Generator: Adobe Illustrator 18.0.0, SVG Export Plug-In . SVG Version: 6.00 Build 0)  -->
<!DOCTYPE svg PUBLIC "-//W3C//DTD SVG 1.1//EN" "http://www.w3.org/Graphics/SVG/1.1/DTD/svg11.dtd">
<svg version="1.1" id="Warstwa_1" xmlns="http://www.w3.org/2000/svg" xmlns:xlink="http://www.w3.org/1999/xlink" x="0px" y="0px"
	 viewBox="0 0 12 12" enable-background="new 0 0 12 12" xml:space="preserve">
<path d="M11.7,10.2L7.5,6l4.2-4.3c0.4-0.4,0.4-1.1,0-1.5c-0.4-0.4-1-0.4-1.4,0L6,4.6L1.8,0.3c-0.4-0.4-1-0.4-1.4,0
	c-0.4,0.4-0.4,1.1,0,1.5L4.5,6l-4.2,4.3c-0.4,0.4-0.4,1.1,0,1.5c0.4,0.4,1,0.4,1.4,0L6,7.4l4.2,4.3c0.4,0.4,1,0.4,1.4,0
	C12.1,11.3,12.1,10.6,11.7,10.2z"/>
</svg>
