<?xml version="1.0" encoding="utf-8"?>
<!-- Generator: Adobe Illustrator 21.0.0, SVG Export Plug-In . SVG Version: 6.00 Build 0)  -->
<svg version="1.1" id="Layer_3" xmlns="http://www.w3.org/2000/svg" xmlns:xlink="http://www.w3.org/1999/xlink" x="0px" y="0px"
	 viewBox="0 0 23 23" style="enable-background:new 0 0 23 23;" xml:space="preserve">
<style type="text/css">
	.st0{fill:#282828;}
</style>
<g>
	<g>
		<path class="st0" d="M21.8,23H1.2c-0.6,0-1-0.4-1-1V9c0-0.6,0.4-1,1-1h20.5c0.6,0,1,0.4,1,1v13C22.8,22.5,22.3,23,21.8,23L21.8,23
			z M2.2,21h18.5V10H2.2V21L2.2,21z"/>
	</g>
	<g>
		<path class="st0" d="M11.5,16.6c-1.4,0-2.6-1.3-2.6-2.9c0-1.6,1.2-2.9,2.6-2.9c1.4,0,2.6,1.3,2.6,2.9
			C14.1,15.3,12.9,16.6,11.5,16.6L11.5,16.6z M11.5,12.9c-0.3,0-0.6,0.4-0.6,0.9c0,0.5,0.3,0.9,0.6,0.9c0.3,0,0.6-0.4,0.6-0.9
			C12.1,13.3,11.8,12.9,11.5,12.9L11.5,12.9z"/>
	</g>
	<g>
		<g>
			<path class="st0" d="M10.1,4.3C9.8,4.3,9.6,4.2,9.4,4L7.8,2.4L6.2,4c-0.4,0.4-1,0.4-1.4,0c-0.4-0.4-0.4-1,0-1.4l2.3-2.3
				c0.4-0.4,1-0.4,1.4,0l2.3,2.3c0.4,0.4,0.4,1,0,1.4C10.6,4.2,10.3,4.3,10.1,4.3L10.1,4.3z"/>
		</g>
		<g>
			<path class="st0" d="M7.8,7c-0.6,0-1-0.4-1-1l0-4.4c0-0.6,0.4-1,1-1l0,0c0.6,0,1,0.4,1,1l0,4.4C8.8,6.6,8.3,7,7.8,7L7.8,7L7.8,7z
				"/>
		</g>
	</g>
	<g>
		<g>
			<path class="st0" d="M13.1,2.7c0.3,0,0.5,0.1,0.7,0.3l1.6,1.6L16.9,3c0.4-0.4,1-0.4,1.4,0c0.4,0.4,0.4,1,0,1.4L16,6.7
				c-0.4,0.4-1,0.4-1.4,0l-2.3-2.3C12,4,12,3.4,12.3,3C12.5,2.8,12.8,2.7,13.1,2.7L13.1,2.7z"/>
		</g>
		<g>
			<path class="st0" d="M15.3,0c0.6,0,1,0.4,1,1l0,4.4c0,0.6-0.4,1-1,1l0,0c-0.6,0-1-0.4-1-1l0-4.4C14.3,0.5,14.8,0,15.3,0L15.3,0
				L15.3,0z"/>
		</g>
	</g>
	<path class="st0" d="M9.3,20.1l-0.1-1c0-0.1,0.2-0.4,0.3-0.4c1.3-0.4,2.6-0.4,3.9,0c0.2,0.1,0.3,0.3,0.3,0.4l0,1h1.9l0.1-0.9
		c0.1-1-0.6-2.1-1.6-2.5c-1.7-0.6-3.5-0.6-5.3,0c-1,0.4-1.7,1.4-1.6,2.4l0.1,0.9H9.3z"/>
</g>
</svg>
