<?xml version="1.0" encoding="utf-8"?>
<!-- Generator: Adobe Illustrator 21.0.0, SVG Export Plug-In . SVG Version: 6.00 Build 0)  -->
<svg version="1.1" id="Layer_3" xmlns="http://www.w3.org/2000/svg" xmlns:xlink="http://www.w3.org/1999/xlink" x="0px" y="0px"
	 viewBox="0 0 26 25" style="enable-background:new 0 0 26 25;" xml:space="preserve">
<style type="text/css">
	.st0{fill:#FFFFFF;}
</style>
<g>
	<g>
		<path class="st0" d="M20.2,24.6c-0.2,0-0.4-0.1-0.6-0.2L13,19.6l-6.6,4.8c-0.4,0.3-0.8,0.3-1.2,0c-0.3-0.3-0.5-0.7-0.4-1.1
			l2.5-7.8l-6.6-4.8C0.4,10.4,0.3,10,0.4,9.6c0.1-0.4,0.5-0.7,1-0.7h8.2L12,1.1c0.1-0.4,0.5-0.7,1-0.7c0.4,0,0.8,0.3,1,0.7l2.5,7.8
			h8.2c0.4,0,0.8,0.3,1,0.7c0.1,0.4,0,0.9-0.4,1.1l-6.6,4.8l2.5,7.8c0.1,0.4,0,0.9-0.4,1.1C20.6,24.5,20.4,24.6,20.2,24.6L20.2,24.6
			z M13,17.3c0.2,0,0.4,0.1,0.6,0.2l4.7,3.4l-1.8-5.5c-0.1-0.4,0-0.9,0.4-1.1l4.7-3.4h-5.8c-0.4,0-0.8-0.3-1-0.7L13,4.7l-1.8,5.5
			c-0.1,0.4-0.5,0.7-1,0.7H4.4l4.7,3.4c0.4,0.3,0.5,0.7,0.4,1.1l-1.8,5.5l4.7-3.4C12.6,17.4,12.8,17.3,13,17.3L13,17.3z"/>
	</g>
</g>
</svg>
