<?xml version="1.0" encoding="utf-8"?>
<!-- Generator: Adobe Illustrator 21.0.0, SVG Export Plug-In . SVG Version: 6.00 Build 0)  -->
<svg version="1.1" id="Layer_3" xmlns="http://www.w3.org/2000/svg" xmlns:xlink="http://www.w3.org/1999/xlink" x="0px" y="0px"
	 viewBox="0 0 25 23" style="enable-background:new 0 0 25 23;" xml:space="preserve">
<style type="text/css">
	.st0{fill:#9DD614;}
</style>
<g>
	<g>
		<path class="st0" d="M15.6,22.6c-5.1,0-9.2-4.1-9.2-9.2c0-5.1,4.1-9.2,9.2-9.2s9.2,4.1,9.2,9.2C24.8,18.4,20.7,22.6,15.6,22.6
			L15.6,22.6z M15.6,6.1c-4,0-7.2,3.3-7.2,7.2c0,4,3.3,7.2,7.2,7.2c4,0,7.2-3.3,7.2-7.2C22.8,9.3,19.6,6.1,15.6,6.1L15.6,6.1z"/>
	</g>
	<g>
		<path class="st0" d="M15.6,19.4c-3.4,0-6.1-2.7-6.1-6.1c0-3.4,2.7-6.1,6.1-6.1c3.4,0,6.1,2.7,6.1,6.1
			C21.7,16.7,18.9,19.4,15.6,19.4L15.6,19.4z M15.6,8.2c-2.8,0-5.1,2.3-5.1,5.1c0,2.8,2.3,5.1,5.1,5.1s5.1-2.3,5.1-5.1
			C20.7,10.5,18.4,8.2,15.6,8.2L15.6,8.2z"/>
	</g>
	<g>
		<path class="st0" d="M11.7,6.9H1.2c-0.6,0-1-0.4-1-1c0-0.6,0.4-1,1-1h10.5c0.6,0,1,0.4,1,1C12.7,6.5,12.2,6.9,11.7,6.9L11.7,6.9z"
			/>
	</g>
	<g>
		<path class="st0" d="M14.8,2.4H1.2c-0.6,0-1-0.4-1-1c0-0.6,0.4-1,1-1h13.7c0.6,0,1,0.4,1,1C15.8,2,15.4,2.4,14.8,2.4L14.8,2.4z"/>
	</g>
	<g>
		<path class="st0" d="M6.8,11.4H1.2c-0.6,0-1-0.4-1-1c0-0.6,0.4-1,1-1h5.7c0.6,0,1,0.4,1,1C7.8,11,7.4,11.4,6.8,11.4L6.8,11.4z"/>
	</g>
	<g>
		<path class="st0" d="M6.8,15.9H1.2c-0.6,0-1-0.4-1-1c0-0.6,0.4-1,1-1h5.7c0.6,0,1,0.4,1,1C7.8,15.5,7.4,15.9,6.8,15.9L6.8,15.9z"
			/>
	</g>
	<g>
		<path class="st0" d="M9.5,20.4H1.2c-0.6,0-1-0.4-1-1c0-0.6,0.4-1,1-1h8.3c0.6,0,1,0.4,1,1C10.5,20,10.1,20.4,9.5,20.4L9.5,20.4z"
			/>
	</g>
	<g>
		<path class="st0" d="M16.1,9.2v0.5c0.3,0,0.6,0.1,0.9,0.2c0.2,0.1,0.5,0.3,0.6,0.5c0.1,0.2,0.3,0.3,0.3,0.5
			c0.1,0.2,0.1,0.3,0.1,0.5c0,0.2-0.1,0.3-0.2,0.4C17.8,12,17.7,12,17.5,12c-0.3,0-0.5-0.2-0.6-0.5c-0.1-0.4-0.4-0.7-0.8-0.8v2
			c0.4,0.1,0.7,0.2,1,0.3c0.2,0.1,0.4,0.2,0.6,0.4c0.2,0.2,0.4,0.4,0.5,0.6c0.1,0.2,0.2,0.5,0.2,0.8c0,0.4-0.1,0.7-0.3,1
			c-0.2,0.3-0.4,0.6-0.8,0.8C17,16.9,16.6,17,16.1,17v1.2c0,0.2,0,0.3-0.1,0.4c0,0.1-0.1,0.1-0.2,0.1c-0.1,0-0.2,0-0.2-0.1
			c0-0.1-0.1-0.2-0.1-0.3V17c-0.4,0-0.7-0.1-1-0.3c-0.3-0.1-0.5-0.3-0.7-0.5c-0.2-0.2-0.3-0.4-0.4-0.6c-0.1-0.2-0.1-0.4-0.1-0.6
			c0-0.2,0.1-0.3,0.2-0.4c0.1-0.1,0.3-0.2,0.4-0.2c0.1,0,0.3,0,0.4,0.1c0.1,0.1,0.2,0.2,0.2,0.3c0.1,0.3,0.2,0.5,0.2,0.6
			c0.1,0.1,0.2,0.3,0.3,0.4c0.1,0.1,0.3,0.2,0.5,0.3v-2.2c-0.4-0.1-0.8-0.3-1.1-0.4c-0.3-0.1-0.5-0.4-0.7-0.6
			c-0.2-0.3-0.3-0.6-0.3-1c0-0.6,0.2-1,0.5-1.4c0.4-0.4,0.9-0.6,1.5-0.6V9.2c0-0.3,0.1-0.4,0.3-0.4C16,8.8,16.1,9,16.1,9.2z
			 M15.5,12.5v-1.8c-0.3,0.1-0.5,0.2-0.6,0.3c-0.2,0.1-0.2,0.3-0.2,0.6c0,0.3,0.1,0.4,0.2,0.6C15,12.3,15.2,12.4,15.5,12.5z
			 M16.1,14v2.1c0.3-0.1,0.6-0.2,0.8-0.4c0.2-0.2,0.3-0.4,0.3-0.7c0-0.3-0.1-0.5-0.3-0.6C16.7,14.2,16.4,14.1,16.1,14z"/>
	</g>
</g>
</svg>
