<svg id="Layer_3" xmlns="http://www.w3.org/2000/svg" viewBox="0 0 25 23"><style>.st0{fill:#9dd614}</style><path class="st0" d="M15.6 22.6c-5.1 0-9.2-4.1-9.2-9.2s4.1-9.2 9.2-9.2 9.2 4.1 9.2 9.2c0 5-4.1 9.2-9.2 9.2zm0-16.5c-4 0-7.2 3.3-7.2 7.2 0 4 3.3 7.2 7.2 7.2 4 0 7.2-3.3 7.2-7.2 0-4-3.2-7.2-7.2-7.2z"/><path class="st0" d="M15.6 19.4c-3.4 0-6.1-2.7-6.1-6.1 0-3.4 2.7-6.1 6.1-6.1 3.4 0 6.1 2.7 6.1 6.1 0 3.4-2.8 6.1-6.1 6.1zm0-11.2c-2.8 0-5.1 2.3-5.1 5.1s2.3 5.1 5.1 5.1 5.1-2.3 5.1-5.1-2.3-5.1-5.1-5.1zm-3.9-1.3H1.2c-.6 0-1-.4-1-1s.4-1 1-1h10.5c.6 0 1 .4 1 1s-.5 1-1 1zm3.1-4.5H1.2c-.6 0-1-.4-1-1s.4-1 1-1h13.7c.6 0 1 .4 1 1-.1.6-.5 1-1.1 1zm-8 9H1.2c-.6 0-1-.4-1-1s.4-1 1-1h5.7c.6 0 1 .4 1 1-.1.6-.5 1-1.1 1zm0 4.5H1.2c-.6 0-1-.4-1-1s.4-1 1-1h5.7c.6 0 1 .4 1 1-.1.6-.5 1-1.1 1zm2.7 4.5H1.2c-.6 0-1-.4-1-1s.4-1 1-1h8.3c.6 0 1 .4 1 1s-.4 1-1 1z"/><path class="st0" d="M16.1 9.2v.5c.3 0 .6.1.9.2.2.1.5.3.6.5.1.2.3.3.3.5.1.2.1.3.1.5s-.1.3-.2.4c0 .2-.1.2-.3.2-.3 0-.5-.2-.6-.5-.1-.4-.4-.7-.8-.8v2c.4.1.7.2 1 .3.2.1.4.2.6.4.2.2.4.4.5.6.1.2.2.5.2.8 0 .4-.1.7-.3 1-.2.3-.4.6-.8.8-.3.3-.7.4-1.2.4v1.2c0 .2 0 .3-.1.4 0 .1-.1.1-.2.1s-.2 0-.2-.1-.1-.2-.1-.3V17c-.4 0-.7-.1-1-.3-.3-.1-.5-.3-.7-.5-.2-.2-.3-.4-.4-.6-.1-.2-.1-.4-.1-.6 0-.2.1-.3.2-.4.1-.1.3-.2.4-.2.1 0 .3 0 .4.1.1.1.2.2.2.3.1.3.2.5.2.6.1.1.2.3.3.4.1.1.3.2.5.3v-2.2c-.4-.1-.8-.3-1.1-.4-.3-.1-.5-.4-.7-.6-.2-.3-.3-.6-.3-1 0-.6.2-1 .5-1.4.4-.4.9-.6 1.5-.6v-.7c0-.3.1-.4.3-.4.3 0 .4.2.4.4zm-.6 3.3v-1.8c-.3.1-.5.2-.6.3-.2.1-.2.3-.2.6s.1.4.2.6c.1.1.3.2.6.3zm.6 1.5v2.1c.3-.1.6-.2.8-.4.2-.2.3-.4.3-.7 0-.3-.1-.5-.3-.6-.2-.2-.5-.3-.8-.4z"/></svg>