<?xml version="1.0" encoding="utf-8"?>
<!-- Generator: Adobe Illustrator 21.1.0, SVG Export Plug-In . SVG Version: 6.00 Build 0)  -->
<svg version="1.1" id="Layer_3" xmlns="http://www.w3.org/2000/svg" xmlns:xlink="http://www.w3.org/1999/xlink" x="0px" y="0px"
	 viewBox="0 0 23 26" style="enable-background:new 0 0 23 26;" xml:space="preserve">
<style type="text/css">
	.st0{fill:#282828;}
</style>
<path class="st0" d="M21,14.3c0,0-0.1,0-0.2,0c-3.4,0-6.4,1.7-8.3,4.2v-4.1c4.6-0.5,8.3-4.5,8.3-9.2V3.7c0-0.5-0.3-0.9-0.8-1
	c-1.4-0.3-2.7-0.3-4,0c-1.2-1.1-2.7-1.9-4.5-2.3c-0.2,0-0.3,0-0.5,0C9.4,0.9,8.1,1.7,7,2.7c-1.3-0.3-2.7-0.3-4,0
	c-0.5,0.1-0.8,0.5-0.8,1v1.5c0,4.8,3.7,8.7,8.3,9.2v4.1c-1.9-2.6-4.9-4.2-8.3-4.2c-0.1,0-0.1,0-0.3,0c-0.6,0-1,0.5-1,1
	c0,5.7,4.6,10.3,10.3,10.3c0,0,0.1,0,0.3,0c0,0,0,0,0.1,0c0,0,0,0,0,0c0,0,0.1,0,0.2,0c5.7,0,10.3-4.6,10.3-10.3
	C22.1,14.8,21.5,14.3,21,14.3z M11.3,2.2c1,0.3,1.9,0.7,2.7,1.2c-0.9,0.4-1.8,1-2.5,1.8c-0.8-0.8-1.6-1.3-2.6-1.8
	C9.6,2.9,10.5,2.5,11.3,2.2z M4.2,5.2V4.5c2.5-0.2,5,0.8,6.5,2.8c0.4,0.5,1.2,0.5,1.6,0c1.5-2,3.9-3,6.5-2.8v0.7
	c0,4-3.3,7.3-7.3,7.3S4.2,9.2,4.2,5.2z M2.9,16.4c3.9,0.3,7,3.3,7.5,7.2C6.5,23.3,3.4,20.2,2.9,16.4z M12.6,23.6
	c0.5-3.8,3.6-6.8,7.5-7.2C19.6,20.2,16.5,23.2,12.6,23.6z"/>
</svg>
