<svg id="Layer_3" xmlns="http://www.w3.org/2000/svg" viewBox="0 0 23 26"><style>.st0{fill:#282828}</style><path class="st0" d="M11.2 25.6C5.5 25.6.9 21 .9 15.3c0-.5.4-1 1-1h.3c5.7 0 10.3 4.6 10.3 10.3 0 .5-.4 1-1 1h-.3zm-8.3-9.2c.5 3.8 3.6 6.9 7.5 7.2-.5-3.9-3.6-6.9-7.5-7.2z"/><path class="st0" d="M11.8 25.6h-.2c-.5 0-1.1-.5-1.1-1 0-5.7 4.6-10.3 10.3-10.3h.2c.5 0 1.1.5 1.1 1 0 5.7-4.6 10.3-10.3 10.3zm8.3-9.2c-3.9.4-7 3.4-7.5 7.2 3.9-.4 7-3.4 7.5-7.2z"/><path class="st0" d="M11.5 25.6c-.6 0-1-.4-1-1V13.8c0-.6.4-1 1-1s1 .4 1 1v10.8c0 .6-.4 1-1 1z"/><path class="st0" d="M11.5 14.5c-5.1 0-9.3-4.2-9.3-9.3V3.7c0-.5.3-.9.8-1 3.1-.7 6.3.3 8.5 2.5C13.7 3 16.9 2 20 2.7c.5.1.8.5.8 1v1.5c0 5.1-4.2 9.3-9.3 9.3zm-7.3-10v.7c0 4 3.3 7.3 7.3 7.3s7.3-3.3 7.3-7.3v-.7c-2.6-.2-5 .8-6.5 2.8-.4.5-1.2.5-1.6 0-1.5-2-4-3-6.5-2.8z"/><path class="st0" d="M11.5 7.6c-.3 0-.5-.1-.7-.3-1-1.3-2.4-2.2-3.9-2.7-.3 0-.5-.3-.6-.6-.1-.3 0-.6.2-.8C7.7 1.9 9.2 1 11 .4h.5c2 .5 3.7 1.5 5 2.8.2.2.3.5.2.8-.1.3-.3.5-.6.6-1.5.4-2.9 1.4-3.9 2.6-.2.3-.4.4-.7.4zM8.8 3.5c1 .5 1.9 1.1 2.7 1.9.8-.8 1.6-1.4 2.6-1.9-.8-.6-1.8-1-2.8-1.3-.9.3-1.8.7-2.5 1.3z"/></svg>