<svg id="Layer_3" xmlns="http://www.w3.org/2000/svg" viewBox="0 0 25 24"><style>.st0{fill:#282828}</style><path class="st0" d="M9.2 1.2c-.4-.4-1-.4-1.4-.1-.4.4-.4 1-.1 1.4L11 6.1v-3L9.2 1.2zM12 .9c0-.3-.2-.5-.5-.5s-.5.2-.5.5v2.3l1 1.1V.9z"/><path class="st0" d="M11 3.1v3l.3.3c.2.2.5.3.7.3V4.2l-1-1.1zm0 20c0 .3.2.5.5.5s.5-.2.5-.5v-3.3l-1 1.1v2.2zm-3.3-1.6c-.4.4-.3 1 .1 1.4.2.1.4.2.7.2.3 0 .5-.1.7-.3l1.8-1.9v-3l-3.3 3.6z"/><path class="st0" d="M11.2 17.6l-.2.3v3l1-1.1v-2.5c-.3 0-.6.1-.8.3zM1.4 11c-.5 0-.9-.3-1-.8 0-.5.3-1.1.8-1.2l5-1.1c.5-.1 1.1.2 1.2.8.1.5-.2 1.1-.8 1.2l-5 1.1h-.2z"/><path class="st0" d="M6.5 9.9c-.4 0-.8-.3-1-.7L4 4.2c-.2-.5.1-1 .6-1.2.5-.2 1.1.1 1.3.7l1.6 4.9c.2.5-.1 1.1-.7 1.3h-.3zm4.5 8l.3-.3c.2-.2.5-.3.7-.3v-4.2l-1 .6v4.2zm1-11.2c-.3 0-.5-.1-.7-.3l-.3-.3v4.2l1 .6V6.7z"/><path class="st0" d="M11 10.3L3.1 5.8c-.4-.3-1-.1-1.3.3-.3.5-.1 1.1.3 1.4L10 12l1-.6v-1.1zm.5.9c.2-.1.3-.1.5-.1v-.2l-1-.6v1.2l.5-.3z"/><path class="st0" d="M10 12l-7.8 4.5c-.5.3-.6.9-.4 1.4.2.3.5.5.9.5.2 0 .3 0 .5-.1l7.8-4.5v-1.2l-1-.6zm2 1c-.2 0-.3 0-.5-.1l-.5-.3v1.2l1-.6V13z"/><path class="st0" d="M11 11.4l-1 .6 1 .6zm.5-.2l-.5.2v1.2l.5.3c.1.1.3.1.5.1v-2c-.2 0-.4.1-.5.2zm-6.6 9.9h-.3c-.5-.2-.8-.7-.7-1.3l1.6-4.9c.2-.5.7-.8 1.3-.7.5.2.8.7.7 1.3l-1.6 4.9c-.1.4-.5.7-1 .7z"/><path class="st0" d="M6.5 16.2h-.2l-5-1.1c-.5-.1-.9-.7-.8-1.2.1-.5.6-.9 1.2-.8l5 1.1c.5.1.9.7.8 1.2-.1.5-.5.8-1 .8zM23.6 13h-4.5c-.6 0-1-.4-1-1s.4-1 1-1h4.5c.6 0 1 .4 1 1 0 .5-.5 1-1 1zm-6.3-4.3c-.3 0-.5-.1-.7-.3-.4-.4-.4-1 0-1.4l3.2-3.2c.4-.4 1-.4 1.4 0 .4.4.4 1 0 1.4L18 8.4c-.2.2-.5.3-.7.3zm3.2 11.7c-.3 0-.5-.1-.7-.3L16.6 17c-.4-.4-.4-1 0-1.4.4-.4 1-.4 1.4 0l3.2 3.2c.4.4.4 1 0 1.4-.2.1-.5.2-.7.2z"/><path class="st0" d="M19.9 12c0-3.5-2.6-6.3-5.9-6.8v2c2.2.5 3.9 2.4 3.9 4.8s-1.7 4.4-3.9 4.8v2c3.3-.5 5.9-3.4 5.9-6.8z"/><path class="st0" d="M14 7.1c-.4 0-.7-.1-1-.1v9.8c.3 0 .7 0 1-.1V7.1zm-1 16c0 .3.2.5.5.5s.5-.2.5-.5v-4.3c-.3 0-.7.1-1 .1v4.2zM14 .9c0-.3-.2-.5-.5-.5s-.5.2-.5.5V5c.3 0 .7 0 1 .1V.9z"/><path class="st0" d="M14 5.1c-.3 0-.7-.1-1-.1v2c.3 0 .7 0 1 .1v-2zm-1 11.8v2c.3 0 .7 0 1-.1v-2c-.4 0-.7.1-1 .1z"/></svg>