<svg id="Layer_3" xmlns="http://www.w3.org/2000/svg" viewBox="0 0 24 24"><style>.st0{fill:none}</style><path class="st0" d="M8.3 11.4c2.4 0 4.3-2.2 4.3-4.9s-1.9-4.9-4.3-4.9C5.9 1.5 4 3.7 4 6.4c0 2.8 1.9 5 4.3 5zm0-7.9c1.3 0 2.3 1.3 2.3 2.9 0 1.6-1 2.9-2.3 2.9S6 8 6 6.4c0-1.6 1-2.9 2.3-2.9zm4.8 9.8c-3.2-1.2-6.7-1.2-9.9 0-1.6.6-2.7 2.4-2.6 4l.3 4.2c0 .5.5.9 1 .9h12.7c.5 0 .9-.4 1-.9l.3-4.2c0-1.6-1.2-3.4-2.8-4zm.5 7.2H2.8l-.2-3.3c0-.7.5-1.7 1.3-2 2.8-1 5.8-1 8.6 0 .8.3 1.4 1.3 1.3 2l-.2 3.3zm7.4-6.2c-1.3-.5-2.7-.7-4.1-.8-.5 0-1 .4-1 1s.4 1 1 1c1.2 0 2.3.2 3.5.6.6.2 1.1 1.1 1.1 1.6l-.2 2.7h-4.1c-.5 0-1 .5-1 1 0 .6.4 1 1 1h5c.5 0 .9-.4 1-.9l.2-3.6c.1-1.5-.9-3.1-2.4-3.6zm.9-5.9c0-2.2-1.6-4.1-3.5-4.1-2 0-3.6 1.8-3.6 4.1 0 2.2 1.6 4.1 3.6 4.1 1.9-.1 3.5-1.9 3.5-4.1zm-5.2 0c0-1.1.7-2 1.6-2 .9 0 1.6.9 1.6 2s-.7 2-1.6 2c-.9 0-1.6-.9-1.6-2z"/></svg>