<svg id="Layer_3" xmlns="http://www.w3.org/2000/svg" viewBox="0 0 26 25"><style>.st0{fill:#fff}</style><path class="st0" d="M20.2 24.6c-.2 0-.4-.1-.6-.2L13 19.6l-6.6 4.8c-.4.3-.8.3-1.2 0-.3-.3-.5-.7-.4-1.1l2.5-7.8-6.6-4.8c-.3-.3-.4-.7-.3-1.1.1-.4.5-.7 1-.7h8.2L12 1.1c.1-.4.5-.7 1-.7.4 0 .8.3 1 .7l2.5 7.8h8.2c.4 0 .8.3 1 .7.1.4 0 .9-.4 1.1l-6.6 4.8 2.5 7.8c.1.4 0 .9-.4 1.1-.2.1-.4.2-.6.2zM13 17.3c.2 0 .4.1.6.2l4.7 3.4-1.8-5.5c-.1-.4 0-.9.4-1.1l4.7-3.4h-5.8c-.4 0-.8-.3-1-.7L13 4.7l-1.8 5.5c-.1.4-.5.7-1 .7H4.4l4.7 3.4c.4.3.5.7.4 1.1l-1.8 5.5 4.7-3.4c.2-.1.4-.2.6-.2z"/></svg>