<svg id="Layer_3" xmlns="http://www.w3.org/2000/svg" viewBox="0 0 23 26"><style>.st0{fill:#282828}</style><path class="st0" d="M17.5 20c.3-.2.6-.5.9-.8h-.1l-.8.8zm-12.9-.9c0 .1 0 .1 0 0 .3.4.6.6.9.9l-.9-.9zm-.4 2.4c2.9 2.8 5.1 4.2 7.3 4.2s4.4-1.4 7.3-4.2c-2.1 1.6-4.6 2.5-7.3 2.5-2.7.1-5.2-.8-7.3-2.5z"/><path class="st0" d="M20.1 1.6C14.5-.2 8.4-.2 2.9 1.6 1.4 2.1.3 3.6.3 5.1V15c0 1.3.7 3.3 1.8 4.5l.2.2c-.2-.3-.3-.7-.1-1.1.2-.4.6-.8.9-1-.5-.8-.9-1.9-.9-2.6V5.1c0-.7.5-1.4 1.2-1.6 2.6-.9 5.3-1.3 8-1.3s5.4.4 8 1.3c.6.2 1.2 1 1.2 1.6V15c0 .7-.4 1.9-.9 2.7.4.2.7.6.9 1 .2.3.2.8-.1 1.1l.2-.2c1.1-1.2 1.8-3.2 1.8-4.5v-10c.2-1.5-1-3-2.4-3.5z"/><path class="st0" d="M18.8 21.5c.4-.3.7-.6 1-.9.3-.3.6-.6.8-.9v-.1c-.6.7-1.2 1.4-1.8 1.9zM4.6 19.1c1.5-.7 3.2-1.1 4.9-1.3.3 0 .5-.2.7-.4.2-.2.2-.5.2-.8l-.2-1.4c0-.3-.2-.5-.5-.7-.2-.1-.3-.3-.3-.3 0-.4-.1-.9-.1-1.3s-.3-.7-.7-.8l-.1-.7c.3-.1.5-.5.5-.9l-.2-1.2c0-.7-.1-1.3.4-1.8s1.3-.8 2.3-.8c.9 0 1.8.3 2.3.8.5.4.4 1.1.4 1.7l-.2 1.3c0 .4.1.7.4.9h.1l-.1.7c-.4.1-.6.4-.7.8l-.1 1.2s-.1.2-.3.3c-.2.2-.4.4-.4.7l-.2 1.4c0 .3 0 .5.2.8.2.2.4.4.7.4 1.7.2 3.4.7 4.9 1.3l1.1-1.1c.1-.1.2-.3.3-.4-.1 0-.1-.1-.2-.1-1.5-.7-3.1-1.2-4.8-1.5.5-.4.8-.9.8-1.4v-.4c.4-.2.7-.6.7-1.1l.2-1.9c0-.5-.1-.9-.4-1.2l.1-.5c.1-.7.2-2.3-1-3.4-.9-.8-2.2-1.3-3.7-1.3-1.6.1-2.9.5-3.7 1.3-1.3 1.1-1.1 2.7-1 3.4l.1.5c-.3.3-.5.7-.5 1.2l.2 1.9c.1.5.3.9.7 1.1v.4c0 .5.3 1 .8 1.4-1.7.3-3.3.8-4.9 1.5l-.1.1c.1.2.2.3.3.4.4.5.8.9 1.1 1.2zm-2.3.6c.3.4.5.7.8.9.3.3.7.6 1 .9l-1.8-1.8z"/><path class="st0" d="M20.7 18.6c-.2-.4-.6-.7-.9-1-.1.2-.2.3-.3.4l-1.1 1.1h.1c-.3.3-.6.6-.9.8-2.5 2.5-4.4 3.8-6 3.8-1.6 0-3.5-1.3-6-3.8-.3-.2-.6-.5-.9-.8h.1L3.7 18c-.1-.1-.2-.3-.3-.4-.4.2-.7.6-.9 1-.2.3-.2.8.1 1.1.4.7 1 1.3 1.6 1.8 2.1 1.6 4.6 2.5 7.3 2.5s5.2-.9 7.3-2.5l1.9-1.9c.2-.2.2-.7 0-1z"/></svg>