<?xml version="1.0" encoding="utf-8"?>
<!-- Generator: Adobe Illustrator 18.0.0, SVG Export Plug-In . SVG Version: 6.00 Build 0)  -->
<!DOCTYPE svg PUBLIC "-//W3C//DTD SVG 1.1//EN" "http://www.w3.org/Graphics/SVG/1.1/DTD/svg11.dtd">
<svg version="1.1" id="Warstwa_1" xmlns="http://www.w3.org/2000/svg" xmlns:xlink="http://www.w3.org/1999/xlink" x="0px" y="0px"
	 viewBox="0 0 19 23" enable-background="new 0 0 19 23" xml:space="preserve">
<g>
	<path d="M11.7,22.5c-0.3,0-0.5-0.2-0.5-0.5v-6.1c0-0.3,0.2-0.5,0.5-0.5H18c0.3,0,0.5,0.2,0.5,0.5c0,0.3-0.2,0.5-0.5,0.5h-5.7V22
		C12.3,22.3,12,22.5,11.7,22.5"/>
	<path d="M11.7,23H1c-0.6,0-1-0.5-1-1V1c0-0.6,0.5-1,1-1H18c0.6,0,1,0.5,1,1v14.8c0,0.3-0.1,0.5-0.3,0.7l-6.2,6.1
		C12.3,22.9,12,23,11.7,23 M2.1,21h9.2l5.6-5.5V2H2.1V21z"/>
	<path d="M10.6,5.4H4.5C4.2,5.4,4,5.2,4,4.9c0-0.3,0.2-0.5,0.5-0.5h6.1c0.3,0,0.5,0.2,0.5,0.5C11.1,5.2,10.9,5.4,10.6,5.4"/>
	<path d="M14.6,7.9H4.5C4.2,7.9,4,7.6,4,7.4c0-0.3,0.2-0.5,0.5-0.5h10.1c0.3,0,0.5,0.2,0.5,0.5C15.2,7.6,14.9,7.9,14.6,7.9"/>
	<path d="M14.6,10.3H4.5C4.2,10.3,4,10.1,4,9.8c0-0.3,0.2-0.5,0.5-0.5h10.1c0.3,0,0.5,0.2,0.5,0.5C15.2,10.1,14.9,10.3,14.6,10.3"/>
	<path d="M8.8,12.8H4.5c-0.3,0-0.5-0.2-0.5-0.5c0-0.3,0.2-0.5,0.5-0.5h4.2c0.3,0,0.5,0.2,0.5,0.5C9.3,12.6,9.1,12.8,8.8,12.8"/>
</g>
</svg>
