<svg xmlns="http://www.w3.org/2000/svg" viewBox="0 0 19 23"><path d="M11.7 22.5c-.3 0-.5-.2-.5-.5v-6.1c0-.3.2-.5.5-.5H18c.3 0 .5.2.5.5s-.2.5-.5.5h-5.7V22c0 .3-.3.5-.6.5"/><path d="M11.7 23H1c-.6 0-1-.5-1-1V1c0-.6.5-1 1-1h17c.6 0 1 .5 1 1v14.8c0 .3-.1.5-.3.7l-6.2 6.1c-.2.3-.5.4-.8.4m-9.6-2h9.2l5.6-5.5V2H2.1v19z"/><path d="M10.6 5.4H4.5c-.3 0-.5-.2-.5-.5s.2-.5.5-.5h6.1c.3 0 .5.2.5.5s-.2.5-.5.5m4 2.5H4.5c-.3 0-.5-.3-.5-.5 0-.3.2-.5.5-.5h10.1c.3 0 .5.2.5.5.1.2-.2.5-.5.5m0 2.4H4.5c-.3 0-.5-.2-.5-.5s.2-.5.5-.5h10.1c.3 0 .5.2.5.5.1.3-.2.5-.5.5m-5.8 2.5H4.5c-.3 0-.5-.2-.5-.5s.2-.5.5-.5h4.2c.3 0 .5.2.5.5.1.3-.1.5-.4.5"/></svg>