<svg id="Layer_3" xmlns="http://www.w3.org/2000/svg" viewBox="0 0 24 24"><style>.st0{fill:#282828}</style><path class="st0" d="M22.7.3c-.6 0-1 .4-1 1v20.5h-2.9v2h3.9c.6 0 1-.4 1-1V1.3c0-.6-.4-1-1-1z"/><path class="st0" d="M23.7 1.3c0-.6-.5-1-1-1H6.3c-.6 0-1 .5-1 1 0 .6.5 1 1 1h16.4c.6 0 1-.5 1-1zM8.2 20.4c-.5 0-.9-.4-.9-.9v-3.1H4.2c-.5 0-.9-.4-.9-.9s.4-.9.9-.9h4.9v4.9c0 .5-.4.9-.9.9z"/><path class="st0" d="M9.1 18.6V6H18v17.8h1.8V4.2H7.3v14.4c0 .5.4.9.9.9s.9-.4.9-.9z"/><path class="st0" d="M8.2 18.6c-.5 0-.9.4-.9.9s.4.9.9.9h3.1v3.4H13v-5.2H8.2zm-7.9-8v1.8h3v3.1c0 .5.4.9.9.9s.9-.4.9-.9v-4.9H.3z"/><circle class="st0" cx="11.3" cy="13.5" r="1.1"/></svg>