<?xml version="1.0" encoding="utf-8"?>
<!-- Generator: Adobe Illustrator 21.0.0, SVG Export Plug-In . SVG Version: 6.00 Build 0)  -->
<svg version="1.1" id="Layer_3" xmlns="http://www.w3.org/2000/svg" xmlns:xlink="http://www.w3.org/1999/xlink" x="0px" y="0px"
	 viewBox="0 0 24 23" style="enable-background:new 0 0 24 23;" xml:space="preserve">
<style type="text/css">
	.st0{fill:#9DD614;}
</style>
<g>
	<g>
		<g>
			<path class="st0" d="M10.1,6.6H4.7c-0.3,0-0.5-0.2-0.5-0.5c0-0.3,0.2-0.5,0.5-0.5h4.9V0.8c0-0.3,0.2-0.5,0.5-0.5
				c0.3,0,0.5,0.2,0.5,0.5v5.4C10.6,6.4,10.3,6.6,10.1,6.6L10.1,6.6z"/>
		</g>
		<g>
			<path class="st0" d="M19.3,11.1H4.7c-0.3,0-0.5-0.2-0.5-0.5V6.1c0-0.1,0.1-0.3,0.1-0.4l5.4-5.4c0.1-0.1,0.2-0.1,0.4-0.1h9.2
				c0.3,0,0.5,0.2,0.5,0.5v9.9C19.8,10.9,19.6,11.1,19.3,11.1L19.3,11.1z M5.2,10.1h13.6V1.3h-8.5L5.2,6.3V10.1L5.2,10.1z"/>
		</g>
	</g>
	<g>
		<g>
			<path class="st0" d="M19.3,22.7H4.7c-0.3,0-0.5-0.2-0.5-0.5v-4.9c0-0.3,0.2-0.5,0.5-0.5h14.6c0.3,0,0.5,0.2,0.5,0.5v4.9
				C19.8,22.5,19.6,22.7,19.3,22.7L19.3,22.7z M5.2,21.7h13.6v-3.9H5.2V21.7L5.2,21.7z"/>
		</g>
	</g>
	<g>
		<polygon class="st0" points="23.7,21 20.6,21 20.6,19 21.7,19 21.7,11.8 2.3,11.8 2.3,19 3.4,19 3.4,21 0.3,21 0.3,9.8 23.7,9.8 
			23.7,21 		"/>
	</g>
	<path class="st0" d="M17.9,13.2c-0.6,0-1.2,0.5-1.2,1.2c0,0.6,0.5,1.2,1.2,1.2c0.7,0,1.2-0.5,1.2-1.2C19,13.8,18.5,13.2,17.9,13.2
		L17.9,13.2z"/>
	<g>
		<path class="st0" d="M15,14.7H8.8c-0.3,0-0.5-0.2-0.5-0.5c0-0.3,0.2-0.5,0.5-0.5H15c0.3,0,0.5,0.2,0.5,0.5
			C15.5,14.4,15.3,14.7,15,14.7L15,14.7z"/>
	</g>
</g>
</svg>
