<svg id="Layer_3" xmlns="http://www.w3.org/2000/svg" viewBox="0 0 26 19"><style>.st0{fill:#9dd614}</style><path class="st0" d="M13.1 8.8c-2.1 0-3.8-1.9-3.8-4.2C9.3 2.3 11 .4 13.1.4c2.1 0 3.8 1.9 3.8 4.2 0 2.3-1.7 4.2-3.8 4.2zm0-6.4c-1 0-1.8 1-1.8 2.2 0 1.2.8 2.2 1.8 2.2s1.8-1 1.8-2.2c0-1.2-.8-2.2-1.8-2.2zm5.3 16.2H7.6c-.5 0-1-.4-1-.9-.1-1.2-.2-2.3-.2-3.5-.1-1.4 1-3 2.3-3.5 2.8-1 5.8-1 8.5 0 1.4.5 2.4 2.1 2.3 3.5l-.2 3.5c0 .5-.4.9-.9.9zm-9.8-2h8.9l.2-2.5c0-.4-.4-1.2-1-1.5-2.3-.8-4.8-.8-7.1 0-.6.2-1 1-1 1.5-.1.8-.1 1.7 0 2.5z"/><path class="st0" d="M18.4 18.6H7.6c-.5 0-1-.4-1-.9-.1-1.2-.2-2.3-.2-3.5-.1-1.4 1-3 2.3-3.5 2.8-1 5.8-1 8.5 0 1.4.5 2.4 2.1 2.3 3.5l-.2 3.5c0 .5-.4.9-.9.9zm-9.8-2h8.9l.2-2.5c0-.4-.4-1.2-1-1.5-2.3-.8-4.8-.8-7.1 0-.6.2-1 1-1 1.5-.1.8-.1 1.7 0 2.5zm16.3.4h-4.3c-.3 0-.5-.2-.5-.5s.2-.5.5-.5h3.8l.2-2.5c0-.5-.4-1.4-1.1-1.6-1-.3-2-.5-3-.6-.3 0-.5-.2-.5-.5s.2-.5.5-.5c1.1 0 2.3.2 3.4.6 1 .4 1.9 1.6 1.8 2.6l-.2 3c-.2.3-.4.5-.6.5zm-3.3-7.8c-1.5 0-2.7-1.3-2.7-3s1.2-3 2.7-3c1.5 0 2.7 1.3 2.7 3-.1 1.6-1.3 3-2.7 3zm0-5c-.9 0-1.7.9-1.7 2s.8 2 1.7 2c.9 0 1.7-.9 1.7-2-.1-1.1-.8-2-1.7-2zM5.4 17H1.1c-.3 0-.5-.2-.5-.5l-.2-3c-.1-1 .7-2.3 1.8-2.6 1.1-.4 2.2-.6 3.4-.6.3 0 .5.2.5.5s-.2.5-.5.5c-1 0-2.1.2-3 .6-.7.2-1.2 1.1-1.1 1.6l.1 2.5h3.8c.3 0 .5.2.5.5s-.2.5-.5.5zm-1-7.8c-1.5 0-2.7-1.3-2.7-3s1.2-3 2.7-3c1.5 0 2.7 1.3 2.7 3 0 1.6-1.2 3-2.7 3zm0-5c-.9 0-1.7.9-1.7 2s.7 2 1.7 2c.9 0 1.7-.9 1.7-2s-.7-2-1.7-2z"/></svg>