<svg xmlns="http://www.w3.org/2000/svg" viewBox="0 0 24 22"><path d="M8.1 10.3c2.5 0 4.5-2.3 4.5-5.2 0-2.8-2-5.2-4.5-5.2-2.5.1-4.5 2.4-4.5 5.3 0 2.8 2 5.1 4.5 5.1zm0-8.2c1.3 0 2.4 1.4 2.4 3 0 1.7-1.1 3-2.4 3-1.3 0-2.4-1.4-2.4-3s1-3 2.4-3zm5.1 10.3c-3.4-1.2-7.1-1.2-10.4 0-1.7.6-2.9 2.5-2.8 4.2L.3 21c0 .6.5 1 1 1h13.3c.5 0 1-.4 1-1l.3-4.4c.2-1.7-1-3.6-2.7-4.2zm.5 7.5H2.3l-.2-3.4c0-.7.6-1.8 1.4-2.1 2.9-1.1 6.1-1.1 9 0 .8.3 1.5 1.4 1.4 2.1l-.2 3.4zm7.8-6.5c-1.4-.5-2.8-.8-4.3-.8-.6 0-1 .5-1.1 1 0 .6.4 1.1 1 1.1 1.2 0 2.5.3 3.6.7.7.2 1.2 1.1 1.1 1.7l-.2 2.8h-4.3c-.6 0-1 .5-1 1.1 0 .6.5 1.1 1 1.1h5.3c.5 0 1-.4 1-1l.3-3.8c.2-1.6-.9-3.3-2.4-3.9zm.9-6.2c0-2.3-1.7-4.3-3.7-4.3-2.1 0-3.7 1.9-3.7 4.3 0 2.3 1.7 4.3 3.7 4.3s3.7-2 3.7-4.3zm-5.4 0c0-1.2.7-2.1 1.7-2.1.9 0 1.7 1 1.7 2.1 0 1.2-.7 2.1-1.7 2.1S17 8.4 17 7.2z"/></svg>