<?xml version="1.0" encoding="utf-8"?>
<!-- Generator: Adobe Illustrator 21.0.0, SVG Export Plug-In . SVG Version: 6.00 Build 0)  -->
<svg version="1.1" id="Layer_3" xmlns="http://www.w3.org/2000/svg" xmlns:xlink="http://www.w3.org/1999/xlink" x="0px" y="0px"
	 viewBox="0 0 23 26" style="enable-background:new 0 0 23 26;" xml:space="preserve">
<style type="text/css">
	.st0{fill:#282828;}
</style>
<g>
	<path class="st0" d="M17.5,20c0.3-0.2,0.6-0.5,0.9-0.8c0,0,0,0,0,0c0,0,0,0-0.1,0C18.1,19.4,17.8,19.7,17.5,20z"/>
	<path class="st0" d="M4.6,19.1C4.6,19.1,4.6,19.1,4.6,19.1C4.6,19.2,4.6,19.2,4.6,19.1c0.3,0.4,0.6,0.6,0.9,0.9
		C5.2,19.7,4.9,19.4,4.6,19.1z"/>
	<path class="st0" d="M4.2,21.5c2.9,2.8,5.1,4.2,7.3,4.2c2.2,0,4.4-1.4,7.3-4.2c-2.1,1.6-4.6,2.5-7.3,2.5
		C8.8,24.1,6.3,23.2,4.2,21.5z"/>
	<path class="st0" d="M20.1,1.6c-5.6-1.8-11.7-1.8-17.2,0c-1.5,0.5-2.6,2-2.6,3.5V15c0,1.3,0.7,3.3,1.8,4.5c0.1,0.1,0.1,0.1,0.2,0.2
		c-0.2-0.3-0.3-0.7-0.1-1.1c0.2-0.4,0.6-0.8,0.9-1c-0.5-0.8-0.9-1.9-0.9-2.6V5.1c0-0.7,0.5-1.4,1.2-1.6c2.6-0.9,5.3-1.3,8-1.3
		c2.7,0,5.4,0.4,8,1.3c0.6,0.2,1.2,1,1.2,1.6V15c0,0.7-0.4,1.9-0.9,2.7c0.4,0.2,0.7,0.6,0.9,1c0.2,0.3,0.2,0.8-0.1,1.1
		c0.1-0.1,0.1-0.1,0.2-0.2c1.1-1.2,1.8-3.2,1.8-4.5V5.1C22.7,3.6,21.5,2.1,20.1,1.6z"/>
	<path class="st0" d="M18.8,21.5c0.4-0.3,0.7-0.6,1-0.9c0.3-0.3,0.6-0.6,0.8-0.9c0,0,0,0,0-0.1C20,20.3,19.4,21,18.8,21.5z"/>
	<path class="st0" d="M4.6,19.1c1.5-0.7,3.2-1.1,4.9-1.3c0.3,0,0.5-0.2,0.7-0.4c0.2-0.2,0.2-0.5,0.2-0.8l-0.2-1.4
		c0-0.3-0.2-0.5-0.5-0.7c-0.2-0.1-0.3-0.3-0.3-0.3c0-0.4-0.1-0.9-0.1-1.3c0-0.4-0.3-0.7-0.7-0.8c0,0,0,0,0,0l-0.1-0.7c0,0,0,0,0,0
		C8.8,11.3,9,10.9,9,10.5L8.8,9.3C8.8,8.6,8.7,8,9.2,7.5c0.5-0.5,1.3-0.8,2.3-0.8c0.9,0,1.8,0.3,2.3,0.8c0.5,0.4,0.4,1.1,0.4,1.7
		L14,10.5c0,0.4,0.1,0.7,0.4,0.9c0,0,0,0,0.1,0l-0.1,0.7c0,0,0,0,0,0c-0.4,0.1-0.6,0.4-0.7,0.8l-0.1,1.2c0,0-0.1,0.2-0.3,0.3
		c-0.2,0.2-0.4,0.4-0.4,0.7l-0.2,1.4c0,0.3,0,0.5,0.2,0.8c0.2,0.2,0.4,0.4,0.7,0.4c1.7,0.2,3.4,0.7,4.9,1.3c0.3-0.3,0.7-0.7,1.1-1.1
		c0.1-0.1,0.2-0.3,0.3-0.4c-0.1,0-0.1-0.1-0.2-0.1c-1.5-0.7-3.1-1.2-4.8-1.5c0.5-0.4,0.8-0.9,0.8-1.4l0-0.4c0.4-0.2,0.7-0.6,0.7-1.1
		l0.2-1.9c0-0.5-0.1-0.9-0.4-1.2l0.1-0.5c0.1-0.7,0.2-2.3-1-3.4c-0.9-0.8-2.2-1.3-3.7-1.3C10,4.8,8.7,5.2,7.9,6
		c-1.3,1.1-1.1,2.7-1,3.4l0.1,0.5c-0.3,0.3-0.5,0.7-0.5,1.2l0.2,1.9c0.1,0.5,0.3,0.9,0.7,1.1c0,0.1,0,0.3,0,0.4c0,0.5,0.3,1,0.8,1.4
		c-1.7,0.3-3.3,0.8-4.9,1.5c0,0-0.1,0.1-0.1,0.1c0.1,0.2,0.2,0.3,0.3,0.4C3.9,18.4,4.3,18.8,4.6,19.1z"/>
	<path class="st0" d="M2.3,19.7C2.3,19.7,2.3,19.7,2.3,19.7c0.3,0.4,0.5,0.7,0.8,0.9c0.3,0.3,0.7,0.6,1,0.9C3.6,21,3,20.4,2.3,19.7z
		"/>
	<path class="st0" d="M20.7,18.6c-0.2-0.4-0.6-0.7-0.9-1c-0.1,0.2-0.2,0.3-0.3,0.4c-0.4,0.4-0.7,0.7-1.1,1.1c0,0,0,0,0.1,0
		c0,0,0,0,0,0c-0.3,0.3-0.6,0.6-0.9,0.8c-2.5,2.5-4.4,3.8-6,3.8c-1.6,0-3.5-1.3-6-3.8c-0.3-0.2-0.6-0.5-0.9-0.8c0,0,0,0,0,0
		c0,0,0,0,0.1,0c-0.3-0.3-0.7-0.7-1.1-1.1c-0.1-0.1-0.2-0.3-0.3-0.4c-0.4,0.2-0.7,0.6-0.9,1c-0.2,0.3-0.2,0.8,0.1,1.1
		C3,20.4,3.6,21,4.2,21.5c2.1,1.6,4.6,2.5,7.3,2.5c2.7,0,5.2-0.9,7.3-2.5c0.6-0.6,1.2-1.2,1.9-1.9C20.9,19.4,20.9,18.9,20.7,18.6z"
		/>
</g>
</svg>
