<?xml version="1.0" encoding="utf-8"?>
<!-- Generator: Adobe Illustrator 21.0.0, SVG Export Plug-In . SVG Version: 6.00 Build 0)  -->
<svg version="1.1" id="Layer_3" xmlns="http://www.w3.org/2000/svg" xmlns:xlink="http://www.w3.org/1999/xlink" x="0px" y="0px"
	 viewBox="0 0 26 22" style="enable-background:new 0 0 26 22;" xml:space="preserve">
<style type="text/css">
	.st0{fill:#9DD614;}
</style>
<g>
	<g>
		<path class="st0" d="M22.1,15.6H8.7c-0.5,0-0.8-0.3-1-0.7L5.2,5.5c-0.1-0.3,0-0.6,0.2-0.9c0.2-0.2,0.5-0.4,0.8-0.4h18.6
			c0.3,0,0.6,0.1,0.8,0.4c0.2,0.2,0.3,0.6,0.2,0.9l-2.6,9.3C23,15.3,22.6,15.6,22.1,15.6L22.1,15.6z M9.4,13.6h11.9l2-7.3H7.4
			L9.4,13.6L9.4,13.6z"/>
	</g>
	<g>
		<path class="st0" d="M8.7,15.6c-0.4,0-0.8-0.3-1-0.7L4.4,2.6L1.3,2.5c-0.6,0-1-0.5-1-1c0-0.5,0.5-1,1-1l3.8,0.2
			C5.6,0.7,6,1,6.1,1.4l3.5,12.9c0.1,0.5-0.2,1.1-0.7,1.2C8.9,15.5,8.8,15.6,8.7,15.6L8.7,15.6z"/>
	</g>
	<g>
		<path class="st0" d="M11.1,21.5c-1.5,0-2.8-1.2-2.8-2.8S9.6,16,11.1,16s2.8,1.2,2.8,2.8S12.6,21.5,11.1,21.5L11.1,21.5z M11.1,18
			c-0.4,0-0.8,0.3-0.8,0.8c0,0.4,0.3,0.8,0.8,0.8c0.4,0,0.8-0.3,0.8-0.8C11.8,18.3,11.5,18,11.1,18L11.1,18z"/>
	</g>
	<g>
		<path class="st0" d="M19.4,21.5c-1.5,0-2.8-1.2-2.8-2.8s1.2-2.8,2.8-2.8s2.8,1.2,2.8,2.8S20.9,21.5,19.4,21.5L19.4,21.5z M19.4,18
			c-0.4,0-0.8,0.3-0.8,0.8c0,0.4,0.3,0.8,0.8,0.8c0.4,0,0.8-0.3,0.8-0.8C20.2,18.3,19.8,18,19.4,18L19.4,18z"/>
	</g>
</g>
</svg>
