<svg id="Layer_3" xmlns="http://www.w3.org/2000/svg" viewBox="0 0 26 22"><style>.st0{fill:#9dd614}</style><path class="st0" d="M22.1 15.6H8.7c-.5 0-.8-.3-1-.7L5.2 5.5c-.1-.3 0-.6.2-.9.2-.2.5-.4.8-.4h18.6c.3 0 .6.1.8.4.2.2.3.6.2.9l-2.6 9.3c-.2.5-.6.8-1.1.8zm-12.7-2h11.9l2-7.3H7.4l2 7.3z"/><path class="st0" d="M8.7 15.6c-.4 0-.8-.3-1-.7L4.4 2.6l-3.1-.1c-.6 0-1-.5-1-1s.5-1 1-1l3.8.2c.5 0 .9.3 1 .7l3.5 12.9c.1.5-.2 1.1-.7 1.2 0 0-.1.1-.2.1zm2.4 5.9c-1.5 0-2.8-1.2-2.8-2.8S9.6 16 11.1 16s2.8 1.2 2.8 2.8-1.3 2.7-2.8 2.7zm0-3.5c-.4 0-.8.3-.8.8 0 .4.3.8.8.8.4 0 .8-.3.8-.8-.1-.5-.4-.8-.8-.8zm8.3 3.5c-1.5 0-2.8-1.2-2.8-2.8s1.2-2.8 2.8-2.8 2.8 1.2 2.8 2.8-1.3 2.8-2.8 2.8zm0-3.5c-.4 0-.8.3-.8.8 0 .4.3.8.8.8.4 0 .8-.3.8-.8s-.4-.8-.8-.8z"/></svg>