<svg xmlns="http://www.w3.org/2000/svg" viewBox="0 0 23.6 23.6"><path d="M11.8 23.6c-3.1 0-6.1-1.2-8.3-3.5C1.2 17.9 0 14.9 0 11.8 0 5.3 5.3 0 11.8 0c6.5 0 11.8 5.3 11.8 11.8 0 6.5-5.3 11.8-11.8 11.8m0-21.6C6.4 2 2 6.4 2 11.8c0 2.6 1 5.1 2.9 6.9 1.8 1.8 4.3 2.9 6.9 2.9 5.4 0 9.8-4.4 9.8-9.8S17.2 2 11.8 2"/><path d="M19.4 20.4c-.3 0-.5-.1-.7-.3L3.5 4.9c-.4-.4-.4-1 0-1.4.4-.4 1-.4 1.4 0l15.2 15.2c.4.4.4 1 0 1.4-.2.2-.5.3-.7.3"/><path d="M4.2 20.4c-.3 0-.5-.1-.7-.3-.4-.4-.4-1 0-1.4L18.7 3.5c.4-.4 1-.4 1.4 0 .4.4.4 1 0 1.4L4.9 20.1c-.2.2-.5.3-.7.3"/></svg>