<svg id="Layer_3" xmlns="http://www.w3.org/2000/svg" viewBox="0 0 24 24"><style>.st0{fill:#fff}</style><path class="st0" d="M12 23.8c-3.1 0-6.1-1.2-8.3-3.5C1.5 18.1.2 15.1.3 12 .2 5.5 5.5.2 12 .2 18.5.2 23.8 5.5 23.8 12c0 6.5-5.3 11.8-11.8 11.8zm0-21.6c-5.4 0-9.8 4.4-9.8 9.8 0 2.6 1 5.1 2.9 6.9 1.8 1.8 4.3 2.9 6.9 2.9 5.4 0 9.8-4.4 9.8-9.8S17.4 2.2 12 2.2z"/><path class="st0" d="M19.6 20.6c-.3 0-.5-.1-.7-.3L3.7 5.1c-.4-.4-.4-1 0-1.4.4-.4 1-.4 1.4 0l15.2 15.2c.4.4.4 1 0 1.4-.2.2-.4.3-.7.3z"/><path class="st0" d="M4.4 20.6c-.3 0-.5-.1-.7-.3-.4-.4-.4-1 0-1.4L18.9 3.7c.4-.4 1-.4 1.4 0 .4.4.4 1 0 1.4L5.1 20.3c-.2.2-.4.3-.7.3z"/></svg>