<?xml version="1.0" encoding="utf-8"?>
<!-- Generator: Adobe Illustrator 18.0.0, SVG Export Plug-In . SVG Version: 6.00 Build 0)  -->
<!DOCTYPE svg PUBLIC "-//W3C//DTD SVG 1.1//EN" "http://www.w3.org/Graphics/SVG/1.1/DTD/svg11.dtd">
<svg version="1.1" id="Warstwa_1" xmlns="http://www.w3.org/2000/svg" xmlns:xlink="http://www.w3.org/1999/xlink" x="0px" y="0px"
	 viewBox="0 0 24 24" enable-background="new 0 0 24 24" xml:space="preserve">
<path d="M12,0C5.3,0-0.1,5.4,0,12c-0.1,3.2,1.2,6.2,3.5,8.4C5.7,22.8,8.8,24,12,24c6.6,0,12-5.4,12-12S18.6,0,12,0z M19.7,18.3
	L13.4,12l6.3-6.3C21.1,7.4,22,9.6,22,12S21.1,16.6,19.7,18.3z M18.3,4.3L12,10.6L5.6,4.3C7.4,2.8,9.6,2,12,2S16.5,2.8,18.3,4.3z
	 M4.2,5.7l6.3,6.3l-6.3,6.3c-1.4-1.7-2.2-4-2.2-6.3S2.8,7.4,4.2,5.7z M5.6,19.7l6.3-6.3l6.3,6.3C16.5,21.2,14.4,22,12,22
	C9.6,22,7.5,21.2,5.6,19.7z"/>
</svg>
