<svg id="Layer_3" xmlns="http://www.w3.org/2000/svg" viewBox="0 0 26 21"><style>.st0{fill:#9dd614}</style><path class="st0" d="M19.4 21c-3.4 0-6.2-2.8-6.2-6.2s2.8-6.2 6.2-6.2 6.2 2.8 6.2 6.2c.1 3.4-2.7 6.2-6.2 6.2zm0-11.5c-2.9 0-5.2 2.3-5.2 5.2s2.3 5.2 5.2 5.2 5.2-2.3 5.2-5.2-2.3-5.2-5.2-5.2z"/><path class="st0" d="M12.3 20.5c-.2 0-.3 0-.5-.1l-.1-.1-.3-.2c-.7-.5-2.5-1.7-3.6-2.6-4.4-3.4-6.7-5.9-7.1-7.8C.5 9.1.4 8.3.3 7.6c0-2 .7-4 2.1-5.4C3.7.9 5.3.2 7 .2c1.9 0 3.7.8 5 2.2C13.3 1 15 .1 17 .1c1.8 0 3.4.6 4.7 1.9C23.1 3.3 24 5.2 24 7.3c0 .8-.1 1.5-.3 2.2 0 .2-.1.5-.3.8l-1.8-.8c.1-.2.1-.4.2-.5.1-.6.2-1.1.2-1.7 0-1.5-.6-3-1.6-3.9-.9-.9-2-1.3-3.2-1.3-1.7 0-3.2.9-4.1 2.5-.3.2-.6.4-1 .4s-.7-.2-.9-.5c-.8-1.5-2.4-2.3-4-2.3h-.1c-1.2 0-2.3.5-3.2 1.4-1 1-1.6 2.5-1.5 4 0 .6.1 1.1.3 1.6.1.8 1.2 2.7 6.3 6.7 1 .8 2.5 1.8 3.3 2.4.5-.3 1-.8 1.7-1.3l1.2 1.6c-1 .8-1.8 1.3-2.4 1.7-.1.2-.3.2-.5.2z"/><path class="st0" d="M19.4 18.5c-.6 0-1-.4-1-1V12c0-.6.4-1 1-1s1 .4 1 1v5.5c0 .6-.4 1-1 1z"/><path class="st0" d="M22.2 15.8h-5.5c-.6 0-1-.4-1-1s.4-1 1-1h5.5c.6 0 1 .4 1 1 0 .5-.4 1-1 1z"/></svg>