<svg id="Layer_1" xmlns="http://www.w3.org/2000/svg" viewBox="0 0 25 25"><style>.st0{fill:#9dd614}</style><path class="st0" d="M12.7 23.3c-.2 0-.4 0-.5-.1l-.1-.1-.3-.2c-.8-.5-2.6-1.8-3.8-2.8C3.3 16.5.9 13.8.5 11.9c-.4-.7-.5-1.5-.5-2.3 0-2.2.8-4.3 2.2-5.7 1.3-1.3 3.1-2.1 4.9-2.1 2.1 0 3.9.8 5.3 2.3 1.3-1.5 3.2-2.4 5.2-2.4h.1c3.9 0 7.1 3.4 7.2 7.6 0 .8-.1 1.6-.3 2.4-.4 1.9-2.8 4.7-7.3 8.4-1.7 1.4-3.1 2.5-4.2 3.1 0 .1-.2.1-.4.1zM7.2 3.9c-1.3 0-2.5.5-3.5 1.5S2.1 8 2.1 9.6c0 .6.1 1.2.3 1.7.2.9 1.3 2.9 6.8 7.1 1.1.8 2.7 1.9 3.5 2.5.9-.6 2.1-1.5 3.4-2.6 5.3-4.3 6.4-6.4 6.5-7.2.2-.6.3-1.2.3-1.8 0-3.1-2.3-5.6-5.1-5.6h-.1c-1.8 0-3.4 1-4.3 2.6-.2.3-.5.5-.9.5s-.7-.2-.9-.5c-1-1.5-2.6-2.4-4.4-2.4z"/><path class="st0" d="M20.6 11.3h-.1c-.3-.1-.5-.3-.4-.6l.1-.3c.1-.3.1-.6.1-1 0-1.7-1.1-2.9-2.5-2.9-.3 0-.5-.2-.5-.5s.2-.5.5-.5c2 0 3.5 1.8 3.6 4 0 .4-.1.9-.2 1.3l-.1.2c-.1.1-.3.3-.5.3z"/></svg>