<svg id="Layer_3" xmlns="http://www.w3.org/2000/svg" viewBox="0 0 23 23"><style>.st0{fill:#282828}</style><path class="st0" d="M21.8 23H1.2c-.6 0-1-.4-1-1V9c0-.6.4-1 1-1h20.5c.6 0 1 .4 1 1v13c.1.5-.4 1-.9 1zM2.2 21h18.5V10H2.2v11z"/><path class="st0" d="M11.5 16.6c-1.4 0-2.6-1.3-2.6-2.9 0-1.6 1.2-2.9 2.6-2.9 1.4 0 2.6 1.3 2.6 2.9 0 1.6-1.2 2.9-2.6 2.9zm0-3.7c-.3 0-.6.4-.6.9s.3.9.6.9.6-.4.6-.9-.3-.9-.6-.9zm-1.4-8.6c-.3 0-.5-.1-.7-.3L7.8 2.4 6.2 4c-.4.4-1 .4-1.4 0-.4-.4-.4-1 0-1.4L7.1.3c.4-.4 1-.4 1.4 0l2.3 2.3c.4.4.4 1 0 1.4-.2.2-.5.3-.7.3z"/><path class="st0" d="M7.8 7c-.6 0-1-.4-1-1V1.6c0-.6.4-1 1-1s1 .4 1 1V6c0 .6-.5 1-1 1zm5.3-4.3c.3 0 .5.1.7.3l1.6 1.6L16.9 3c.4-.4 1-.4 1.4 0 .4.4.4 1 0 1.4L16 6.7c-.4.4-1 .4-1.4 0l-2.3-2.3c-.3-.4-.3-1 0-1.4.2-.2.5-.3.8-.3z"/><path class="st0" d="M15.3 0c.6 0 1 .4 1 1v4.4c0 .6-.4 1-1 1s-1-.4-1-1V1c0-.5.5-1 1-1zm-6 20.1l-.1-1c0-.1.2-.4.3-.4 1.3-.4 2.6-.4 3.9 0 .2.1.3.3.3.4v1h1.9l.1-.9c.1-1-.6-2.1-1.6-2.5-1.7-.6-3.5-.6-5.3 0-1 .4-1.7 1.4-1.6 2.4l.1.9h2z"/></svg>