<svg id="Layer_3" xmlns="http://www.w3.org/2000/svg" viewBox="0 0 24 23"><style>.st0{fill:#9dd614}</style><path class="st0" d="M10.1 6.6H4.7c-.3 0-.5-.2-.5-.5s.2-.5.5-.5h4.9V.8c0-.3.2-.5.5-.5s.5.2.5.5v5.4c0 .2-.3.4-.5.4z"/><path class="st0" d="M19.3 11.1H4.7c-.3 0-.5-.2-.5-.5V6.1c0-.1.1-.3.1-.4L9.7.3c.1-.1.2-.1.4-.1h9.2c.3 0 .5.2.5.5v9.9c0 .3-.2.5-.5.5zm-14.1-1h13.6V1.3h-8.5l-5.1 5v3.8zm14.1 12.6H4.7c-.3 0-.5-.2-.5-.5v-4.9c0-.3.2-.5.5-.5h14.6c.3 0 .5.2.5.5v4.9c0 .3-.2.5-.5.5zm-14.1-1h13.6v-3.9H5.2v3.9z"/><path class="st0" d="M23.7 21h-3.1v-2h1.1v-7.2H2.3V19h1.1v2H.3V9.8h23.4V21z"/><path class="st0" d="M17.9 13.2c-.6 0-1.2.5-1.2 1.2 0 .6.5 1.2 1.2 1.2s1.2-.5 1.2-1.2c-.1-.6-.6-1.2-1.2-1.2zM15 14.7H8.8c-.3 0-.5-.2-.5-.5s.2-.5.5-.5H15c.3 0 .5.2.5.5 0 .2-.2.5-.5.5z"/></svg>