<svg id="Layer_3" xmlns="http://www.w3.org/2000/svg" viewBox="0 0 23 22"><style>.st0{fill:#9dd614}</style><path class="st0" d="M20.6 21.5H2.4c-.8 0-1.5-.5-1.7-1.2-.1-.2 0-.4.1-.6l7.1-6.3c.2-.2.5-.2.7 0 .2.2.2.5 0 .7l-6.8 6c.2.2.4.3.6.3h18.2c.2 0 .5-.1.6-.3L14.3 14c-.2-.2-.2-.5 0-.7s.5-.2.7 0l7.2 6.4c.2.1.2.4.1.5-.3.8-1 1.3-1.7 1.3zM14.5 4.6c-.2 0-.4-.1-.5-.2L11.6 2 9.1 4.3c-.4.3-.8.3-1.1 0-.3-.3-.3-.8 0-1.1l3-3c.3-.2.7-.2 1 .1l3 3c.3.3.3.8 0 1.1-.1.1-.3.2-.5.2z"/><path class="st0" d="M11.5 12c-.4 0-.8-.3-.8-.8V1.6c0-.4.3-.8.8-.8.4 0 .8.3.8.8v9.6c0 .5-.4.8-.8.8z"/><path class="st0" d="M20.6 22H2.4C1.1 22 0 20.9 0 19.6V7.7c0-1.3 1.1-2.4 2.4-2.4h6.4c.6 0 1 .4 1 1s-.4 1-1 1H2.4c-.2 0-.4.2-.4.4v11.9c0 .2.2.4.4.4h18.2c.2 0 .4-.2.4-.4V7.7c0-.2-.2-.4-.4-.4h-6.4c-.6 0-1-.4-1-1s.4-1 1-1h6.4c1.3 0 2.4 1.1 2.4 2.4v11.9c-.1 1.3-1.1 2.4-2.4 2.4z"/><path class="st0" d="M11.5 17c-.1 0-.2 0-.3-.1L.8 7.6c-.2-.2-.2-.5 0-.7s.5-.2.7 0l10 8.9 10-8.9c.2-.2.5-.2.7 0s.2.5 0 .7l-10.3 9.2c-.2.1-.3.2-.4.2z"/></svg>