<svg id="Layer_3" xmlns="http://www.w3.org/2000/svg" viewBox="0 0 24 24"><style>.st0{fill:#9dd614}</style><path class="st0" d="M12 13c-.2 0-.4-.1-.6-.2L6 8.9c-.4-.3-.5-1-.2-1.4.3-.5 1-.6 1.4-.3l4.8 3.5 4.8-3.5c.4-.3 1.1-.2 1.4.2.3.4.2 1.1-.2 1.4l-5.4 3.9c-.2.2-.4.3-.6.3z"/><path class="st0" d="M12 13c-.6 0-1-.4-1-1V1.2c0-.6.4-1 1-1s1 .4 1 1V12c0 .5-.4 1-1 1zm10.5 10.8h-21c-.6 0-1-.4-1-1v-7.1c0-.6.4-1 1-1H8c.6 0 1 .4 1 1v1.4h6v-1.4c0-.6.4-1 1-1h6.5c.6 0 1 .4 1 1v7.1c0 .5-.4 1-1 1zm-20-2h19v-5.1H17v.4c0 1.1-.9 2-2 2H9c-1.1 0-2-.9-2-2v-.4H2.5v5.1z"/><path class="st0" d="M1.5 16.7c-.2 0-.5-.1-.7-.3-.4-.4-.4-1 0-1.4l4-4.2c.4-.4 1-.4 1.4 0 .4.4.4 1 0 1.4l-4 4.2c-.2.2-.4.3-.7.3zm21 0c-.3 0-.5-.1-.7-.3l-4-4.2c-.4-.4-.4-1 0-1.4.4-.4 1-.4 1.4 0l4 4.2c.4.4.4 1 0 1.4-.2.2-.4.3-.7.3z"/></svg>