<svg id="Layer_3" xmlns="http://www.w3.org/2000/svg" viewBox="0 0 23 24"><style>.st0{fill:#9dd614}</style><path class="st0" d="M10 20.3c-5.5 0-10-4.5-10-10S4.5.3 10 .3s10 4.5 10 10-4.5 10-10 10zm0-17.9c-4.4 0-8 3.6-8 8s3.6 8 8 8 8-3.6 8-8-3.6-8-8-8z"/><path class="st0" d="M21.9 23.6c-.3 0-.5-.1-.7-.3l-5.6-5.6c-.4-.4-.4-1 0-1.4.4-.4 1-.4 1.4 0l5.6 5.6c.4.4.4 1 0 1.4-.2.2-.4.3-.7.3zM10 15.2c-.6 0-1-.4-1-1V6.3c0-.6.4-1 1-1s1 .4 1 1v7.9c0 .5-.4 1-1 1z"/><path class="st0" d="M14 11.2H6.1c-.6 0-1-.4-1-1s.4-1 1-1H14c.6 0 1 .4 1 1s-.5 1-1 1z"/></svg>